<svg width="68" height="68" viewBox="0 0 68 68" fill="none" xmlns="http://www.w3.org/2000/svg">
<path fill-rule="evenodd" clip-rule="evenodd" d="M0 34C0 15.2252 15.2252 0 34 0C52.7748 0 68 15.2252 68 34C68 52.7748 52.7748 68 34 68C15.2252 68 0 52.7748 0 34ZM47.3025 43.8313L47.3219 29.8026C47.3361 19.2971 47.3224 15.7088 47.2654 15.513C47.1021 14.9506 46.6824 14.6298 46.1115 14.6304C45.9391 14.6304 45.3419 14.7154 44.7841 14.8193C42.3189 15.2784 27.7855 18.2409 27.5377 18.3345C27.1535 18.4801 26.7733 18.8255 26.5929 19.192L26.4399 19.502C26.4399 19.502 26.3679 41.4905 26.2566 41.7383C26.087 42.1151 25.7114 42.4719 25.3648 42.5855C25.201 42.6398 24.5513 42.7888 23.9221 42.9166C21.0058 43.511 19.9234 43.9386 19.007 44.8589C18.4869 45.3813 18.1016 46.095 17.9349 46.8434C17.7756 47.5588 17.8292 48.6299 18.0559 49.2807C18.5292 50.6395 19.5797 51.6021 20.9938 51.9726C22.3287 52.322 24.827 51.9332 26.1053 51.1773C26.6391 50.861 27.3265 50.197 27.6839 49.6518C27.8255 49.436 28.0384 49.001 28.1566 48.6852C28.2075 48.55 28.2521 48.4348 28.2911 48.3177C28.5709 47.4779 28.5643 46.5427 28.5648 37.4084C28.5654 30.6327 28.5865 27.8809 28.6396 27.6325C28.7298 27.2118 29.0102 26.9035 29.3984 26.799C29.7472 26.7048 43.7416 23.8736 44.135 23.8171C44.5055 23.764 44.8561 23.8964 45.0245 24.1533C45.1375 24.3263 45.145 24.6694 45.1615 30.9056C45.1793 37.2962 45.1876 37.8644 44.9201 38.2316C44.8871 38.2768 44.85 38.319 44.8081 38.3687C44.5312 38.6981 44.1847 38.8254 42.7625 39.1229C40.5987 39.575 39.8577 39.7897 39.0292 40.2036C37.9942 40.7209 37.4198 41.2878 36.9756 42.2293C36.6616 42.895 36.544 43.3945 36.5452 44.0573C36.5469 45.2426 36.9465 46.1686 37.848 47.0752C38.4675 47.6987 39.0338 48.0252 39.8148 48.2091C40.6929 48.4163 42.4799 48.2799 43.7028 47.9128C45.4333 47.3932 46.655 46.1338 47.1552 44.3542L47.3025 43.8313Z" fill="url(#paint0_linear_935_21)"/>
<defs>
<linearGradient id="paint0_linear_935_21" x1="40.5" y1="0" x2="40.5" y2="68" gradientUnits="userSpaceOnUse">
<stop stop-color="#FF6F84"/>
<stop offset="0.95625" stop-color="#FB2F47"/>
</linearGradient>
</defs>
</svg>
