<svg width="20" height="20" viewBox="0 0 20 20" fill="none" xmlns="http://www.w3.org/2000/svg">
<g clip-path="url(#clip0_184_2425)">
<path d="M10.4231 0C7.43322 0 5 2.43249 5 5.42319V15.6905C5 16.057 5.29656 16.3536 5.66315 16.3536C6.02949 16.3536 6.32606 16.057 6.32606 15.6905V5.42319C6.32606 3.16413 8.16361 1.3261 10.4231 1.3261C12.6829 1.3261 14.5204 3.16413 14.5204 5.42319V16.0085C14.5204 17.478 13.3245 18.674 11.8547 18.674C11.8438 18.674 11.8339 18.6798 11.823 18.6804C11.8114 18.6798 11.8023 18.674 11.7907 18.674C10.321 18.674 9.1251 17.478 9.1251 16.0085V9.65884C9.1251 8.9427 9.7071 8.36066 10.4231 8.36066C11.1393 8.36066 11.7213 8.9427 11.7213 9.65884V15.6905C11.7213 16.057 12.0184 16.3536 12.3843 16.3536C12.7501 16.3536 13.0474 16.057 13.0474 15.6905V9.65884C13.0474 8.21171 11.8703 7.03461 10.4231 7.03461C8.97619 7.03461 7.79904 8.21175 7.79904 9.65884V16.0085C7.79904 18.2091 9.5893 20 11.7906 20C11.8023 20 11.8114 19.9941 11.823 19.9935C11.8339 19.9942 11.8438 20 11.8546 20C14.0555 20 15.8462 18.2091 15.8462 16.0085V5.42319C15.8462 2.43249 13.4131 0 10.4231 0Z" fill="#333333"/>
</g>
<defs>
<clipPath id="clip0_184_2425">
<rect width="20" height="20" fill="white"/>
</clipPath>
</defs>
</svg>
