<svg width="329" height="179" viewBox="0 0 329 179" fill="none" xmlns="http://www.w3.org/2000/svg">
<rect width="329" height="179" fill="#945FFF"/>
<g opacity="0.4">
<path d="M201.799 148H167.664V100.544C167.664 95.8529 163.863 92.051 159.172 92.051C154.481 92.051 150.679 95.8529 150.679 100.544V156.493C150.679 161.183 154.481 164.985 159.172 164.985H201.799C206.49 164.985 210.292 161.183 210.292 156.493C210.292 151.802 206.49 148 201.799 148Z" fill="#4000C0" stroke="#4000C0"/>
</g>
<path opacity="0.4" fill-rule="evenodd" clip-rule="evenodd" d="M55 148.5C55 88.1206 104.123 39 164.5 39C224.877 39 274 88.1206 274 148.5C274 159.08 272.492 169.315 269.679 179H252.908C256.217 169.436 258.015 159.173 258.015 148.497C258.015 96.9362 216.063 54.9853 164.5 54.9853C112.937 54.9853 70.9853 96.9366 70.9853 148.5C70.9853 159.174 72.7831 169.437 76.0917 179H59.3213C56.5084 169.315 55 159.08 55 148.5Z" fill="#4000C0"/>
</svg>
