<svg width="328" height="178" viewBox="0 0 328 178" fill="none" xmlns="http://www.w3.org/2000/svg">
<rect width="328" height="178" fill="#945FFF"/>
<path opacity="0.4" fill-rule="evenodd" clip-rule="evenodd" d="M248.901 80.1863C263.549 84.111 275.791 93.5046 283.373 106.637C297.206 130.597 291.534 160.555 271.315 178H227.9L251.241 164.524C267.506 155.133 273.099 134.259 263.707 117.992C259.158 110.113 251.813 104.477 243.024 102.122C234.235 99.7667 225.055 100.975 217.175 105.524L128.672 156.621C123.25 159.752 121.386 166.711 124.516 172.133C127.647 177.553 134.605 179.418 140.028 176.288L191.097 146.803C196.528 143.667 203.473 145.528 206.608 150.959C209.743 156.389 207.883 163.334 202.452 166.469L182.48 178H102.298C96.8104 162.787 102.832 145.318 117.317 136.955L205.82 85.8573C218.954 78.2757 234.253 76.2613 248.901 80.1863ZM68.0178 178C67.3133 171.194 67.8545 164.246 69.6788 157.438C73.6031 142.79 82.998 130.547 96.1315 122.965L194.465 66.1898C199.897 63.0541 201.757 56.1098 198.622 50.6791C195.486 45.2485 188.541 43.3877 183.111 46.523L84.7769 103.298C66.39 113.913 53.2381 131.053 47.7425 151.56C45.3981 160.31 44.5673 169.225 45.2097 178H68.0178Z" fill="#4000C0"/>
</svg>
