<svg width="328" height="178" viewBox="0 0 328 178" fill="none" xmlns="http://www.w3.org/2000/svg">
<rect width="328" height="178" fill="#945FFF"/>
<g opacity="0.4">
<path d="M209.673 108.202H108.827C104.188 108.202 100.423 111.951 100.423 116.569C100.423 121.188 104.188 124.936 108.827 124.936H209.673C214.312 124.936 218.077 121.188 218.077 116.569C218.077 111.951 214.312 108.202 209.673 108.202Z" fill="#4000C0"/>
</g>
<g opacity="0.4">
<path d="M176.058 141.67H108.827C104.188 141.67 100.423 145.419 100.423 150.037C100.423 154.656 104.188 158.404 108.827 158.404H176.058C180.697 158.404 184.462 154.656 184.462 150.037C184.462 145.419 180.697 141.67 176.058 141.67Z" fill="#4000C0"/>
</g>
<path opacity="0.4" fill-rule="evenodd" clip-rule="evenodd" d="M85.0769 58H242.923C262.268 58 278 73.0104 278 91.4679V178H260.462V91.4679C260.462 82.2475 252.604 74.734 242.923 74.734H85.0769C75.3957 74.734 67.5385 82.2475 67.5385 91.4679V178H50V91.4679C50 73.0104 65.732 58 85.0769 58Z" fill="#4000C0"/>
</svg>
