<svg width="328" height="178" viewBox="0 0 328 178" fill="none" xmlns="http://www.w3.org/2000/svg">
<rect width="328" height="178" fill="#945FFF"/>
<g opacity="0.4">
<path fill-rule="evenodd" clip-rule="evenodd" d="M222.125 55.9648H264.496C268.072 55.9648 271 58.6382 271 61.9875V175.828H257.991V111.983H68.0089V175.828H55V61.9875C55 59.4896 56.6348 57.3503 58.9716 56.4379C59.7477 56.1327 60.6063 55.9648 61.5045 55.9648H103.875V48.0226C103.875 44.6978 106.784 42 110.379 42C113.97 42 116.884 44.6978 116.884 48.0226V55.9648H209.116V48.0226C209.116 44.6978 212.03 42 215.621 42C219.216 42 222.125 44.6978 222.125 48.0226V55.9648ZM68.0089 99.9376H257.991V68.0101H222.125V75.9478C222.125 79.2757 219.216 81.9704 215.621 81.9704C212.03 81.9704 209.116 79.2757 209.116 75.9478V68.0101H116.884V75.9478C116.884 79.2757 113.97 81.9704 110.379 81.9704C106.784 81.9704 103.875 79.2757 103.875 75.9478V68.0101H68.0089V99.9376Z" fill="#4000C0"/>
<path d="M222.125 55.9648H220.125V57.9648H222.125V55.9648ZM271 175.828V177.828H273V175.828H271ZM257.991 175.828H255.991V177.828H257.991V175.828ZM257.991 111.983H259.991V109.983H257.991V111.983ZM68.0089 111.983V109.983H66.0089V111.983H68.0089ZM68.0089 175.828V177.828H70.0089V175.828H68.0089ZM55 175.828H53V177.828H55V175.828ZM58.9716 56.4379L59.699 58.3009L59.7034 58.2992L58.9716 56.4379ZM103.875 55.9648V57.9648H105.875V55.9648H103.875ZM116.884 55.9648H114.884V57.9648H116.884V55.9648ZM209.116 55.9648V57.9648H211.116V55.9648H209.116ZM257.991 99.9376V101.938H259.991V99.9376H257.991ZM68.0089 99.9376H66.0089V101.938H68.0089V99.9376ZM257.991 68.0101H259.991V66.0101H257.991V68.0101ZM222.125 68.0101V66.0101H220.125V68.0101H222.125ZM209.116 68.0101H211.116V66.0101H209.116V68.0101ZM116.884 68.0101V66.0101H114.884V68.0101H116.884ZM103.875 68.0101H105.875V66.0101H103.875V68.0101ZM68.0089 68.0101V66.0101H66.0089V68.0101H68.0089ZM264.496 53.9648H222.125V57.9648H264.496V53.9648ZM273 61.9875C273 57.3836 269.02 53.9648 264.496 53.9648V57.9648C267.123 57.9648 269 59.8928 269 61.9875H273ZM273 175.828V61.9875H269V175.828H273ZM257.991 177.828H271V173.828H257.991V177.828ZM255.991 111.983V175.828H259.991V111.983H255.991ZM68.0089 113.983H257.991V109.983H68.0089V113.983ZM70.0089 175.828V111.983H66.0089V175.828H70.0089ZM55 177.828H68.0089V173.828H55V177.828ZM53 61.9875V175.828H57V61.9875H53ZM58.2441 54.5749C55.2345 55.7501 53 58.5687 53 61.9875H57C57 60.4105 58.035 58.9506 59.699 58.3009L58.2441 54.5749ZM61.5045 53.9648C60.3573 53.9648 59.2504 54.1792 58.2397 54.5766L59.7034 58.2992C60.2451 58.0862 60.8553 57.9648 61.5045 57.9648V53.9648ZM103.875 53.9648H61.5045V57.9648H103.875V53.9648ZM101.875 48.0226V55.9648H105.875V48.0226H101.875ZM110.379 40C105.826 40 101.875 43.452 101.875 48.0226H105.875C105.875 45.9435 107.741 44 110.379 44V40ZM118.884 48.0226C118.884 43.451 114.927 40 110.379 40V44C113.013 44 114.884 45.9445 114.884 48.0226H118.884ZM118.884 55.9648V48.0226H114.884V55.9648H118.884ZM209.116 53.9648H116.884V57.9648H209.116V53.9648ZM207.116 48.0226V55.9648H211.116V48.0226H207.116ZM215.621 40C211.073 40 207.116 43.451 207.116 48.0226H211.116C211.116 45.9445 212.987 44 215.621 44V40ZM224.125 48.0226C224.125 43.452 220.174 40 215.621 40V44C218.259 44 220.125 45.9435 220.125 48.0226H224.125ZM224.125 55.9648V48.0226H220.125V55.9648H224.125ZM257.991 97.9376H68.0089V101.938H257.991V97.9376ZM255.991 68.0101V99.9376H259.991V68.0101H255.991ZM222.125 70.0101H257.991V66.0101H222.125V70.0101ZM224.125 75.9478V68.0101H220.125V75.9478H224.125ZM215.621 83.9704C220.174 83.9704 224.125 80.5221 224.125 75.9478H220.125C220.125 78.0293 218.259 79.9704 215.621 79.9704V83.9704ZM207.116 75.9478C207.116 80.5231 211.074 83.9704 215.621 83.9704V79.9704C212.986 79.9704 211.116 78.0283 211.116 75.9478H207.116ZM207.116 68.0101V75.9478H211.116V68.0101H207.116ZM116.884 70.0101H209.116V66.0101H116.884V70.0101ZM118.884 75.9478V68.0101H114.884V75.9478H118.884ZM110.379 83.9704C114.926 83.9704 118.884 80.5231 118.884 75.9478H114.884C114.884 78.0283 113.014 79.9704 110.379 79.9704V83.9704ZM101.875 75.9478C101.875 80.5221 105.826 83.9704 110.379 83.9704V79.9704C107.741 79.9704 105.875 78.0293 105.875 75.9478H101.875ZM101.875 68.0101V75.9478H105.875V68.0101H101.875ZM68.0089 70.0101H103.875V66.0101H68.0089V70.0101ZM70.0089 99.9376V68.0101H66.0089V99.9376H70.0089Z" fill="#4000C0"/>
</g>
<path opacity="0.4" fill-rule="evenodd" clip-rule="evenodd" d="M142.432 178H184.538L184.527 177.833L195.997 164.135C197.905 161.863 196.878 158.372 194.04 157.491L176.487 152.051L166.937 137.84C165.288 135.387 161.682 135.387 160.033 137.84L150.483 152.051L132.93 157.491C130.095 158.371 129.063 161.859 130.973 164.135L142.444 177.833L142.432 178Z" fill="#4000C0"/>
</svg>
