<svg width="68" height="68" viewBox="0 0 68 68" fill="none" xmlns="http://www.w3.org/2000/svg">
<path d="M0 34C0 15.2223 15.2223 0 34 0C52.7777 0 68 15.2223 68 34C68 52.7777 52.7777 68 34 68C15.2223 68 0 52.7777 0 34Z" fill="#1769FF"/>
<path fill-rule="evenodd" clip-rule="evenodd" d="M33.5331 28.397C33.5331 27.0864 33.1898 25.9631 32.5053 25.0228C31.3645 23.4913 29.4305 22.7067 26.6968 22.6667H15.8667V44.7759H25.9654C27.1041 44.7759 28.1575 44.6791 29.132 44.4793C30.1064 44.2773 30.9487 43.9092 31.663 43.3686C32.2985 42.8973 32.8273 42.3167 33.2495 41.6289C33.9169 40.5897 34.2496 39.4137 34.2496 38.1032C34.2496 36.8326 33.9574 35.7513 33.3774 34.8636C32.791 33.9737 31.9296 33.3237 30.7867 32.9114C31.5394 32.5327 32.1087 32.112 32.4968 31.6534C33.1898 30.833 33.5331 29.7454 33.5331 28.397ZM48.645 26.449H39.0409V23.6975H48.645V26.449ZM40.1604 34.9835C40.3182 33.919 40.7041 33.0755 41.3161 32.4528C41.9281 31.8301 42.7938 31.5188 43.9026 31.5188C44.9261 31.5188 45.7812 31.8112 46.4764 32.3981C47.163 32.9892 47.5511 33.8475 47.63 34.9835H40.1604ZM47.7984 28.7588C48.9563 29.2679 49.9094 30.0757 50.66 31.178C51.3445 32.1499 51.7838 33.2774 51.9842 34.5585C52.1015 35.3074 52.1484 36.3929 52.1292 37.8044H40.0538C40.1263 39.4432 40.6977 40.5939 41.7895 41.2523C42.4505 41.6625 43.2459 41.8687 44.1798 41.8687C45.1628 41.8687 45.9667 41.6183 46.583 41.1198C46.922 40.8484 47.2206 40.4739 47.4764 39.9943H51.901C51.7837 40.962 51.2464 41.9486 50.2954 42.9499C48.8113 44.5382 46.7322 45.3333 44.0604 45.3333C41.8535 45.3333 39.9066 44.6644 38.2242 43.3223C36.5333 41.9823 35.6931 39.7987 35.6931 36.7779C35.6931 33.9443 36.4544 31.7712 37.9747 30.2587C39.4994 28.7504 41.4718 27.991 43.9005 27.991C45.3441 27.991 46.6427 28.2476 47.7984 28.7588ZM20.3339 40.9389V35.0424H25.8524C26.812 35.0508 27.5604 35.177 28.0935 35.4168C29.0467 35.8481 29.52 36.6369 29.52 37.7897C29.52 39.1487 29.0296 40.0658 28.0466 40.5497C27.5071 40.8084 26.748 40.9389 25.7757 40.9389H20.3339ZM20.3339 26.5058V31.3841H25.7842C26.7544 31.3841 27.5455 31.2011 28.1553 30.8351C28.7609 30.4691 29.0658 29.8211 29.0658 28.8955C29.0658 27.8627 28.665 27.1832 27.8632 26.8508C27.1681 26.6215 26.2853 26.5058 25.2127 26.5058H20.3339Z" fill="white"/>
</svg>
