<svg width="220" height="138" viewBox="0 0 220 138" fill="none" xmlns="http://www.w3.org/2000/svg">
<g opacity="0.4">
<path fill-rule="evenodd" clip-rule="evenodd" d="M169.125 15.9648H211.496C215.072 15.9648 218 18.6382 218 21.9875V135.828H204.991V71.9829H15.0089V135.828H2V21.9875C2 19.4896 3.63477 17.3503 5.97156 16.4379C6.74774 16.1327 7.60632 15.9648 8.50446 15.9648H50.8749V8.02264C50.8749 4.69775 53.7835 2 57.3793 2C60.9702 2 63.8838 4.69775 63.8838 8.02264V15.9648H156.116V8.02264C156.116 4.69775 159.03 2 162.621 2C166.216 2 169.125 4.69775 169.125 8.02264V15.9648ZM15.0089 59.9376H204.991V28.0101H169.125V35.9478C169.125 39.2757 166.216 41.9704 162.621 41.9704C159.03 41.9704 156.116 39.2757 156.116 35.9478V28.0101H63.8838V35.9478C63.8838 39.2757 60.9702 41.9704 57.3793 41.9704C53.7835 41.9704 50.8749 39.2757 50.8749 35.9478V28.0101H15.0089V59.9376Z" fill="#4000C0"/>
<path d="M169.125 15.9648H167.125V17.9648H169.125V15.9648ZM218 135.828V137.828H220V135.828H218ZM204.991 135.828H202.991V137.828H204.991V135.828ZM204.991 71.9829H206.991V69.9829H204.991V71.9829ZM15.0089 71.9829V69.9829H13.0089V71.9829H15.0089ZM15.0089 135.828V137.828H17.0089V135.828H15.0089ZM2 135.828H0V137.828H2V135.828ZM5.97156 16.4379L6.69903 18.3009L6.70337 18.2992L5.97156 16.4379ZM50.8749 15.9648V17.9648H52.8749V15.9648H50.8749ZM63.8838 15.9648H61.8838V17.9648H63.8838V15.9648ZM156.116 15.9648V17.9648H158.116V15.9648H156.116ZM204.991 59.9376V61.9376H206.991V59.9376H204.991ZM15.0089 59.9376H13.0089V61.9376H15.0089V59.9376ZM204.991 28.0101H206.991V26.0101H204.991V28.0101ZM169.125 28.0101V26.0101H167.125V28.0101H169.125ZM156.116 28.0101H158.116V26.0101H156.116V28.0101ZM63.8838 28.0101V26.0101H61.8838V28.0101H63.8838ZM50.8749 28.0101H52.8749V26.0101H50.8749V28.0101ZM15.0089 28.0101V26.0101H13.0089V28.0101H15.0089ZM211.496 13.9648H169.125V17.9648H211.496V13.9648ZM220 21.9875C220 17.3836 216.02 13.9648 211.496 13.9648V17.9648C214.123 17.9648 216 19.8928 216 21.9875H220ZM220 135.828V21.9875H216V135.828H220ZM204.991 137.828H218V133.828H204.991V137.828ZM202.991 71.9829V135.828H206.991V71.9829H202.991ZM15.0089 73.9829H204.991V69.9829H15.0089V73.9829ZM17.0089 135.828V71.9829H13.0089V135.828H17.0089ZM2 137.828H15.0089V133.828H2V137.828ZM0 21.9875V135.828H4V21.9875H0ZM5.24409 14.5749C2.2345 15.7501 0 18.5687 0 21.9875H4C4 20.4105 5.03503 18.9506 6.69903 18.3009L5.24409 14.5749ZM8.50446 13.9648C7.35732 13.9648 6.25039 14.1792 5.23974 14.5766L6.70337 18.2992C7.24509 18.0862 7.85532 17.9648 8.50446 17.9648V13.9648ZM50.8749 13.9648H8.50446V17.9648H50.8749V13.9648ZM48.8749 8.02264V15.9648H52.8749V8.02264H48.8749ZM57.3793 0C52.8256 0 48.8749 3.45198 48.8749 8.02264H52.8749C52.8749 5.94353 54.7414 4 57.3793 4V0ZM65.8838 8.02264C65.8838 3.45103 61.9271 0 57.3793 0V4C60.0134 4 61.8838 5.94448 61.8838 8.02264H65.8838ZM65.8838 15.9648V8.02264H61.8838V15.9648H65.8838ZM156.116 13.9648H63.8838V17.9648H156.116V13.9648ZM154.116 8.02264V15.9648H158.116V8.02264H154.116ZM162.621 0C158.073 0 154.116 3.45103 154.116 8.02264H158.116C158.116 5.94448 159.987 4 162.621 4V0ZM171.125 8.02264C171.125 3.45198 167.174 0 162.621 0V4C165.259 4 167.125 5.94353 167.125 8.02264H171.125ZM171.125 15.9648V8.02264H167.125V15.9648H171.125ZM204.991 57.9376H15.0089V61.9376H204.991V57.9376ZM202.991 28.0101V59.9376H206.991V28.0101H202.991ZM169.125 30.0101H204.991V26.0101H169.125V30.0101ZM171.125 35.9478V28.0101H167.125V35.9478H171.125ZM162.621 43.9704C167.174 43.9704 171.125 40.5221 171.125 35.9478H167.125C167.125 38.0293 165.259 39.9704 162.621 39.9704V43.9704ZM154.116 35.9478C154.116 40.5231 158.074 43.9704 162.621 43.9704V39.9704C159.986 39.9704 158.116 38.0283 158.116 35.9478H154.116ZM154.116 28.0101V35.9478H158.116V28.0101H154.116ZM63.8838 30.0101H156.116V26.0101H63.8838V30.0101ZM65.8838 35.9478V28.0101H61.8838V35.9478H65.8838ZM57.3793 43.9704C61.9264 43.9704 65.8838 40.5231 65.8838 35.9478H61.8838C61.8838 38.0283 60.0141 39.9704 57.3793 39.9704V43.9704ZM48.8749 35.9478C48.8749 40.5221 52.8263 43.9704 57.3793 43.9704V39.9704C54.7407 39.9704 52.8749 38.0293 52.8749 35.9478H48.8749ZM48.8749 28.0101V35.9478H52.8749V28.0101H48.8749ZM15.0089 30.0101H50.8749V26.0101H15.0089V30.0101ZM17.0089 59.9376V28.0101H13.0089V59.9376H17.0089Z" fill="#4000C0"/>
</g>
</svg>
