<svg width="20" height="20" viewBox="0 0 20 20" fill="none" xmlns="http://www.w3.org/2000/svg">
<path fill-rule="evenodd" clip-rule="evenodd" d="M14.0833 1.66669C14.0833 1.25247 13.7475 0.916687 13.3333 0.916687C12.9191 0.916687 12.5833 1.25247 12.5833 1.66669V2.58331H7.41669V1.66669C7.41669 1.25247 7.0809 0.916687 6.66669 0.916687C6.25247 0.916687 5.91669 1.25247 5.91669 1.66669V2.58331H4.16667C2.83198 2.58331 1.75 3.66529 1.75 4.99998V8.33331V16.6666C1.75 18.0013 2.83198 19.0833 4.16667 19.0833H15.8333C17.168 19.0833 18.25 18.0013 18.25 16.6666V8.33331V4.99998C18.25 3.66529 17.168 2.58331 15.8333 2.58331H14.0833V1.66669ZM16.75 7.58331V4.99998C16.75 4.49372 16.3396 4.08331 15.8333 4.08331H14.0833V5.00002C14.0833 5.41423 13.7475 5.75002 13.3333 5.75002C12.9191 5.75002 12.5833 5.41423 12.5833 5.00002V4.08331H7.41669V5.00002C7.41669 5.41423 7.0809 5.75002 6.66669 5.75002C6.25247 5.75002 5.91669 5.41423 5.91669 5.00002V4.08331H4.16667C3.66041 4.08331 3.25 4.49372 3.25 4.99998V7.58331H16.75ZM3.25 9.08331H16.75V16.6666C16.75 17.1729 16.3396 17.5833 15.8333 17.5833H4.16667C3.66041 17.5833 3.25 17.1729 3.25 16.6666V9.08331Z" fill="black"/>
</svg>
