<svg width="54" height="54" viewBox="0 0 54 54" fill="none" xmlns="http://www.w3.org/2000/svg">
<path d="M13.4326 16.9422H37.3172C38.1398 16.9422 38.8076 17.61 38.8076 18.4326C38.8076 19.2551 38.1398 19.923 37.3172 19.923H13.4326C12.61 19.923 11.9422 19.2551 11.9422 18.4326C11.9422 17.61 12.61 16.9422 13.4326 16.9422Z" fill="black"/>
<path d="M13.4326 24.9039H29.3557C30.1782 24.9039 30.8461 25.5717 30.8461 26.3943C30.8461 27.2168 30.1782 27.8847 29.3557 27.8847H13.4326C12.61 27.8847 11.9422 27.2168 11.9422 26.3943C11.9422 25.5717 12.61 24.9039 13.4326 24.9039Z" fill="black"/>
<path fill-rule="evenodd" clip-rule="evenodd" d="M14.6152 43.8077L2.59415 53.4071C2.30796 53.6362 1.94513 53.7596 1.57692 53.7596C1.34804 53.7596 1.1142 53.7107 0.899917 53.6159C0.342035 53.3667 0 52.8365 0 52.2692V12.4615C0 8.36673 3.48187 5 7.80769 5H45.1923C49.5181 5 53 8.36673 53 12.4615V36.3462C53 40.441 49.5181 43.8077 45.1923 43.8077H14.6152ZM3.15385 49.0611L13.0212 41.1794C13.3051 40.9527 13.6641 40.8269 14.0385 40.8269H45.1923C47.7414 40.8269 49.8462 38.8352 49.8462 36.3462V12.4615C49.8462 9.97247 47.7414 7.98077 45.1923 7.98077H7.80769C5.25856 7.98077 3.15385 9.97247 3.15385 12.4615V49.0611Z" fill="black"/>
</svg>
