<svg width="20" height="20" viewBox="0 0 20 20" fill="none" xmlns="http://www.w3.org/2000/svg">
<g clip-path="url(#clip0_461_235)">
<path fill-rule="evenodd" clip-rule="evenodd" d="M10 2.41669C5.81186 2.41669 2.41669 5.81186 2.41669 10C2.41669 14.1882 5.81186 17.5834 10 17.5834C14.1882 17.5834 17.5834 14.1882 17.5834 10C17.5834 5.81186 14.1882 2.41669 10 2.41669ZM0.916687 10C0.916687 4.98343 4.98343 0.916687 10 0.916687C15.0166 0.916687 19.0834 4.98343 19.0834 10C19.0834 15.0166 15.0166 19.0834 10 19.0834C4.98343 19.0834 0.916687 15.0166 0.916687 10Z" fill="black"/>
<path fill-rule="evenodd" clip-rule="evenodd" d="M10 4.25C10.4142 4.25 10.75 4.58579 10.75 5V9.53647L13.6687 10.9958C14.0392 11.1811 14.1894 11.6316 14.0042 12.0021C13.8189 12.3726 13.3684 12.5227 12.9979 12.3375L9.66459 10.6708C9.4105 10.5438 9.25 10.2841 9.25 10V5C9.25 4.58579 9.58579 4.25 10 4.25Z" fill="black"/>
</g>
<defs>
<clipPath id="clip0_461_235">
<rect width="20" height="20" fill="white"/>
</clipPath>
</defs>
</svg>
