<svg width="54" height="54" viewBox="0 0 54 54" fill="none" xmlns="http://www.w3.org/2000/svg">
<path d="M44.4023 39.4453C43.8198 39.4453 43.3477 39.9174 43.3477 40.4999V50.8359C43.3477 51.4174 42.8745 51.8906 42.293 51.8906H6.01438C5.43282 51.8906 4.95969 51.4174 4.95969 50.8359V31.746C4.95969 31.1635 4.48751 30.6913 3.905 30.6913C3.3225 30.6913 2.85031 31.1635 2.85031 31.746V50.8359C2.85031 52.5806 4.26971 54 6.01438 54H42.293C44.0376 54 45.457 52.5806 45.457 50.8359V40.4999C45.457 39.9174 44.9848 39.4453 44.4023 39.4453Z" fill="black"/>
<path d="M48.5426 19.7383C47.6367 18.8323 46.582 18.1648 45.4571 17.731V11.3895C45.4563 11.3894 45.4554 11.3893 45.4546 11.3893C45.4545 11.115 45.3499 10.8454 45.1482 10.6437L34.8135 0.309024C34.6119 0.107367 34.3421 0.00284766 34.0679 0.00274219C34.0679 0.00179297 34.0678 0.000949221 34.0678 0H6.01438C4.26971 0 2.85031 1.4194 2.85031 3.16407V22.8164C2.85031 23.3989 3.3225 23.8711 3.905 23.8711C4.48751 23.8711 4.95969 23.3989 4.95969 22.8164V3.16396C4.95969 2.58241 5.43282 2.10927 6.01438 2.10927H33.0131V9.28011C33.0131 11.0248 34.4325 12.4442 36.1771 12.4442H43.3476V17.2023C40.7106 16.8744 37.9544 17.718 35.9341 19.7383L20.9026 34.7697C20.4907 35.1816 20.4907 35.8494 20.9026 36.2614C21.3144 36.6732 21.9823 36.6732 22.3942 36.2614L37.4258 21.2298C40.0794 18.5762 44.3974 18.5761 47.0511 21.2298C49.7048 23.8836 49.7048 28.2015 47.0511 30.855L32.9535 44.9527C31.2987 46.6074 28.6061 46.6075 26.9514 44.9527C26.1499 44.1511 25.7084 43.0853 25.7084 41.9516C25.7084 40.8181 26.1499 39.7522 26.9514 38.9506L41.1176 24.7845C41.4298 24.4723 41.8449 24.3003 42.2864 24.3003C42.7279 24.3003 43.143 24.4722 43.4552 24.7845C43.7674 25.0967 43.9393 25.5118 43.9393 25.9533C43.9393 26.3948 43.7674 26.8099 43.4551 27.1221L30.6878 39.8893C30.2759 40.3012 30.2759 40.969 30.6878 41.381C31.0996 41.7927 31.7675 41.7927 32.1794 41.381L44.9467 28.6136C45.6573 27.9031 46.0487 26.9582 46.0487 25.9533C46.0487 24.9484 45.6573 24.0035 44.9468 23.2929C44.2362 22.5823 43.2913 22.1909 42.2864 22.1909C41.2815 22.1909 40.3367 22.5823 39.6261 23.2928L25.4599 37.459C22.9828 39.9362 22.9828 43.9669 25.4599 46.4442C26.6986 47.6829 28.3253 48.3022 29.9525 48.302C31.5792 48.3019 33.2066 47.6826 34.445 46.4442L48.5426 32.3466C52.0187 28.8705 52.0187 23.2143 48.5426 19.7383ZM36.1771 10.3348C35.5956 10.3348 35.1224 9.86166 35.1224 9.28011V3.60103L41.8561 10.3348H36.1771Z" fill="black"/>
<path d="M4.65097 26.5928C4.4548 26.3967 4.18269 26.2838 3.90531 26.2838C3.62687 26.2838 3.35581 26.3967 3.15859 26.5928C2.96241 26.789 2.85062 27.0611 2.85062 27.3385C2.85062 27.6159 2.96241 27.888 3.15859 28.0842C3.35581 28.2814 3.62687 28.3932 3.90531 28.3932C4.18269 28.3932 4.4548 28.2814 4.65097 28.0842C4.84714 27.888 4.96 27.6159 4.96 27.3385C4.96 27.0611 4.84714 26.789 4.65097 26.5928Z" fill="black"/>
<path d="M19.2956 38.4285L19.2747 38.364C19.0948 37.81 18.4999 37.5066 17.9459 37.6864C17.3918 37.8662 17.0884 38.4612 17.2682 39.0152L17.2891 39.0796C17.4338 39.5255 17.8474 39.809 18.2921 39.809C18.4 39.809 18.5098 39.7923 18.6179 39.7573C19.1719 39.5774 19.4754 38.9825 19.2956 38.4285Z" fill="black"/>
</svg>
