<svg width="68" height="68" viewBox="0 0 68 68" fill="none" xmlns="http://www.w3.org/2000/svg">
<path d="M0 34C0 15.2223 15.2223 0 34 0C52.7777 0 68 15.2223 68 34C68 52.7777 52.7777 68 34 68C15.2223 68 0 52.7777 0 34Z" fill="#F26798"/>
<path fill-rule="evenodd" clip-rule="evenodd" d="M52.1334 33.9749C52.1334 35.2012 52.0085 36.4258 51.7633 37.6196C51.5242 38.7849 51.17 39.929 50.706 41.0227C50.2527 42.0971 49.6905 43.1324 49.0334 44.0979C48.3862 45.0574 47.6406 45.9574 46.8215 46.7779C46.0007 47.5949 45.0975 48.3384 44.1386 48.9884C43.1699 49.6409 42.1331 50.2023 41.0581 50.6578C39.9628 51.1193 38.8161 51.4729 37.6517 51.7116C36.4564 51.9575 35.2273 52.083 33.9992 52.083C32.7702 52.083 31.5412 51.9575 30.3476 51.7116C29.1815 51.4729 28.0348 51.1193 26.9403 50.6578C25.8654 50.2023 24.8276 49.6409 23.8589 48.9884C22.9 48.3385 21.9968 47.5949 21.1777 46.7779C20.3578 45.9574 19.6122 45.0574 18.9641 44.0979C18.3106 43.1324 17.7474 42.097 17.2923 41.0227C16.8283 39.929 16.4733 38.7849 16.2333 37.6196C15.9907 36.4258 15.8667 35.2012 15.8667 33.9749C15.8667 32.7477 15.9906 31.5204 16.2334 30.3293C16.4733 29.1639 16.8283 28.0181 17.2924 26.9261C17.7475 25.851 18.3107 24.8147 18.9641 23.8492C19.6123 22.889 20.3579 21.9906 21.1778 21.1692C21.9969 20.3521 22.9 19.6104 23.859 18.9614C24.8277 18.3062 25.8655 17.7448 26.9404 17.2885C28.0348 16.826 29.1815 16.4715 30.3477 16.2345C31.5413 15.9905 32.7703 15.8667 33.9993 15.8667C35.2274 15.8667 36.4564 15.9905 37.6518 16.2345C38.8161 16.4715 39.9628 16.826 41.0582 17.2885C42.1331 17.7447 43.17 18.3062 44.1387 18.9614C45.0976 19.6104 46.0009 20.3521 46.8216 21.1692C47.6407 21.9906 48.3863 22.889 49.0335 23.8492C49.6905 24.8147 50.2527 25.851 50.706 26.9261C51.17 28.0181 51.5242 29.1639 51.7633 30.3293C52.0085 31.5204 52.1334 32.7477 52.1334 33.9749ZM27.3919 19.9879C23.0734 22.0243 19.8503 25.9978 18.8453 30.7865L18.8602 30.7867C19.3895 30.7916 25.7851 30.8507 33.142 28.8987C30.4618 24.1436 27.5982 20.263 27.3919 19.9879ZM18.5257 33.4816C18.8002 33.4921 26.4515 33.6636 34.4251 31.2799C34.8687 32.1482 35.2929 33.0289 35.6815 33.9077C35.4779 33.966 35.2724 34.0262 35.0706 34.0934C26.7136 36.7919 22.4757 44.2995 22.4811 44.3075C20.0142 41.5691 18.5133 37.9475 18.5133 33.9749C18.5133 33.8602 18.5171 33.7481 18.5209 33.635C18.5226 33.5842 18.5243 33.5331 18.5257 33.4816ZM44.2263 22.369C41.4999 19.9684 37.92 18.5122 33.9992 18.5122C32.7409 18.5122 31.5199 18.6643 30.3502 18.9455L30.3754 18.9792C30.742 19.4696 33.5638 23.2436 36.1393 27.9659C41.9347 25.7964 44.1518 22.4804 44.2249 22.3711L44.2263 22.369ZM36.6994 36.4821L36.7144 36.4774L36.737 36.47C38.9161 42.1253 39.8158 46.861 40.0451 48.212C38.1865 49.0015 36.1438 49.4375 33.9992 49.4375C30.4078 49.4375 27.1103 48.2058 24.4813 46.1643C24.5136 46.0943 27.4974 39.6843 36.6343 36.5036C36.6558 36.4958 36.6776 36.4889 36.6994 36.4821ZM42.6528 46.7991C46.13 44.456 48.5995 40.7354 49.2884 36.4257C48.9697 36.3232 44.6371 34.9536 39.6386 35.7538C41.6699 41.3278 42.4952 45.8672 42.6528 46.7991ZM38.3601 32.5124C38.0387 31.7581 37.6907 31.0076 37.3313 30.2701C43.4063 27.7926 45.8972 24.2388 45.9575 24.1528L45.9584 24.1516C48.1312 26.7855 49.4444 30.1499 49.4798 33.8156C49.4755 33.8148 49.4694 33.8135 49.4615 33.8118C49.0549 33.7273 43.9128 32.6578 38.6948 33.3135C38.586 33.0483 38.4744 32.783 38.3601 32.5124Z" fill="white"/>
</svg>
