<svg width="32" height="32" viewBox="0 0 32 32" fill="none" xmlns="http://www.w3.org/2000/svg">
<circle cx="16" cy="16" r="16" fill="white"/>
<path d="M17.5045 11.7495L10.4618 18.7928C10.4264 18.8283 10.4008 18.8732 10.3886 18.9214L9.60798 22.0546C9.58463 22.149 9.61235 22.2493 9.68118 22.3181C9.73327 22.3702 9.80423 22.399 9.87682 22.399C9.89905 22.399 9.9218 22.3963 9.94393 22.3907L13.0772 21.61C13.126 21.5978 13.1704 21.5723 13.2058 21.5369L20.2492 14.4941L17.5045 11.7495Z" fill="#333333"/>
<path d="M21.9941 10.7895L21.2101 10.0056C20.6862 9.48161 19.773 9.48212 19.2496 10.0056L18.2893 10.9659L21.0338 13.7104L21.9941 12.7501C22.2558 12.4885 22.4 12.1402 22.4 11.7699C22.4 11.3995 22.2558 11.0513 21.9941 10.7895Z" fill="#333333"/>
</svg>
