<svg width="20" height="20" viewBox="0 0 20 20" fill="none" xmlns="http://www.w3.org/2000/svg">
<g clip-path="url(#clip0_461_251)">
<path fill-rule="evenodd" clip-rule="evenodd" d="M15.947 2.61365C16.1378 2.42278 16.3967 2.31555 16.6666 2.31555C16.9366 2.31555 17.1954 2.42278 17.3863 2.61365C17.5772 2.80452 17.6844 3.06339 17.6844 3.33332C17.6844 3.60325 17.5772 3.86212 17.3863 4.05299L9.61654 11.8228L7.69742 12.3025L8.1772 10.3834L15.947 2.61365ZM16.6666 0.815552C15.9989 0.815552 15.3585 1.08082 14.8863 1.55299L6.96965 9.46966C6.87353 9.56577 6.80534 9.68621 6.77237 9.81808L5.93903 13.1514C5.87514 13.407 5.95003 13.6774 6.13631 13.8636C6.3226 14.0499 6.59296 14.1248 6.84854 14.0609L10.1819 13.2276C10.3138 13.1946 10.4342 13.1264 10.5303 13.0303L18.447 5.11365C18.9191 4.64148 19.1844 4.00107 19.1844 3.33332C19.1844 2.66556 18.9191 2.02516 18.447 1.55299C17.9748 1.08082 17.3344 0.815552 16.6666 0.815552ZM3.33335 2.58331C2.69241 2.58331 2.07773 2.83793 1.62451 3.29114C1.1713 3.74435 0.916687 4.35904 0.916687 4.99998V16.6666C0.916687 17.3076 1.1713 17.9223 1.62451 18.3755C2.07772 18.8287 2.69241 19.0833 3.33335 19.0833H15C15.641 19.0833 16.2556 18.8287 16.7089 18.3755C17.1621 17.9223 17.4167 17.3076 17.4167 16.6666V10.8333C17.4167 10.4191 17.0809 10.0833 16.6667 10.0833C16.2525 10.0833 15.9167 10.4191 15.9167 10.8333V16.6666C15.9167 16.9098 15.8201 17.1429 15.6482 17.3148C15.4763 17.4867 15.2431 17.5833 15 17.5833H3.33335C3.09024 17.5833 2.85708 17.4867 2.68517 17.3148C2.51326 17.1429 2.41669 16.9098 2.41669 16.6666V4.99998C2.41669 4.75686 2.51326 4.52371 2.68517 4.3518C2.85708 4.17989 3.09024 4.08331 3.33335 4.08331H9.16669C9.5809 4.08331 9.91669 3.74753 9.91669 3.33331C9.91669 2.9191 9.5809 2.58331 9.16669 2.58331H3.33335Z" fill="#7A38FF"/>
</g>
<defs>
<clipPath id="clip0_461_251">
<rect width="20" height="20" fill="white"/>
</clipPath>
</defs>
</svg>
