<svg width="68" height="68" viewBox="0 0 68 68" fill="none" xmlns="http://www.w3.org/2000/svg">
<g clip-path="url(#clip0_519_366)">
<path d="M34.1328 27.8906C30.8372 27.8906 28.1562 30.5716 28.1562 33.8672C28.1562 37.1628 30.8372 39.8438 34.1328 39.8438C37.4284 39.8438 40.1094 37.1628 40.1094 33.8672C40.1094 30.5716 37.4284 27.8906 34.1328 27.8906Z" fill="black"/>
<path d="M33.8672 0C15.1924 0 0 15.1924 0 33.8672C0 52.542 15.1924 68 33.8672 68C52.542 68 68 52.542 68 33.8672C68 15.1924 52.542 0 33.8672 0ZM48.0781 43.8281C45.3856 43.8281 43.0111 42.4786 41.5681 40.4287C39.7415 42.4961 37.1017 43.8281 34.1328 43.8281C28.6406 43.8281 24.1719 39.3594 24.1719 33.8672C24.1719 28.375 28.6406 23.9062 34.1328 23.9062C36.3837 23.9062 38.4394 24.6852 40.1094 25.9493V25.8984C40.1094 24.7973 41.0004 23.9062 42.1016 23.9062C43.2027 23.9062 44.0938 24.7973 44.0938 25.8984C44.0938 30.3291 44.0938 31.4268 44.0938 35.8594C44.0938 38.0558 45.8817 39.8438 48.0781 39.8438C50.2746 39.8438 52.0625 38.0558 52.0625 35.8594C52.0625 22.5262 43.2395 15.9375 34.1328 15.9375C24.2459 15.9375 16.2031 23.9802 16.2031 33.8672C16.2031 43.7542 24.2459 51.7969 34.1328 51.7969C38.1172 51.7969 41.8856 50.5207 45.0315 48.1043C47.1329 46.5002 49.5392 49.6668 47.4595 51.2638C43.6094 54.219 39.0024 55.7812 34.1328 55.7812C22.0494 55.7812 12.2188 45.9506 12.2188 33.8672C12.2188 21.7838 22.0494 11.9531 34.1328 11.9531C45.1426 11.9531 56.0469 20.0726 56.0469 35.8594C56.0469 40.2543 52.473 43.8281 48.0781 43.8281Z" fill="black"/>
</g>
<defs>
<clipPath id="clip0_519_366">
<rect width="68" height="68" fill="white"/>
</clipPath>
</defs>
</svg>
