<svg width="54" height="54" viewBox="0 0 54 54" fill="none" xmlns="http://www.w3.org/2000/svg">
<g clip-path="url(#clip0_889_345)">
<path d="M48.4106 5.85761C48.3003 5.85312 48.1898 5.85238 48.0794 5.85549H43.9155V2.27714C43.9156 0.845803 42.5493 0 41.1179 0H37.2794C35.8481 0 34.8071 0.845803 34.8071 2.27714V5.85537H19.1927V2.27714C19.1927 0.845803 18.1517 0 16.7204 0H12.8818C11.4506 0 10.0842 0.845803 10.0842 2.27714V5.85537H5.92046C3.26251 5.78127 1.04776 7.87598 0.973662 10.5338C0.970549 10.6441 0.971296 10.7547 0.97578 10.8651V48.4698C0.97578 51.3325 3.05766 53.9999 5.92034 53.9999H48.0795C50.9422 53.9999 53.024 51.3325 53.024 48.4698V10.8651C53.1329 8.20835 51.0673 5.96645 48.4106 5.85761ZM37.2794 2.60241H41.3132V9.75898H37.2794V2.60241ZM12.8819 2.60241H16.5904V9.75898H12.8819V2.60241ZM50.4216 48.4698C50.4216 49.9011 49.5108 51.3975 48.0795 51.3975H5.92046C4.48912 51.3975 3.57832 49.9011 3.57832 48.4698V20.8193H50.4216V48.4698ZM50.4216 10.8651V18.2169H3.57819V10.8651C3.46798 9.6484 4.36497 8.57272 5.58162 8.46251C5.69419 8.4523 5.80752 8.45081 5.92034 8.4579H10.0842V9.88924C10.0842 11.3206 11.4504 12.3615 12.8818 12.3615H16.7204C18.0494 12.398 19.1562 11.3501 19.1927 10.0211C19.1939 9.97716 19.1939 9.9332 19.1927 9.88924V8.45778H34.8071V9.88912C34.7707 11.2181 35.8186 12.3249 37.1475 12.3614C37.1915 12.3626 37.2355 12.3626 37.2794 12.3614H41.118C42.5494 12.3614 43.9156 11.3205 43.9156 9.88912V8.45778H48.0795C49.2987 8.38094 50.3494 9.30707 50.4262 10.5263C50.4333 10.6392 50.4318 10.7525 50.4216 10.8651Z" fill="black"/>
<path d="M19.7782 38.5809L18.6071 45.0869C18.5608 45.366 18.6066 45.6527 18.7378 45.9033C19.0709 46.54 19.8572 46.7862 20.4939 46.4531L26.3492 43.3953L32.2046 46.4531L32.7901 46.5833C33.0724 46.5882 33.348 46.4963 33.5708 46.323C33.9597 46.0389 34.1598 45.5635 34.0913 45.0868L32.9203 38.5808L37.6697 34.0266C38.0095 33.6594 38.1328 33.1413 37.9949 32.6604C37.8197 32.2158 37.425 31.8952 36.954 31.8146L30.448 30.8387L27.5203 24.9182C27.3927 24.6547 27.18 24.4419 26.9165 24.3143C26.2697 24.0012 25.4915 24.2715 25.1782 24.9182L22.2505 30.8387L15.7444 31.8146C15.2735 31.8951 14.8787 32.2158 14.7035 32.6604C14.5657 33.1413 14.6891 33.6594 15.0288 34.0266L19.7782 38.5809ZM23.3565 33.3111C23.7651 33.2499 24.1113 32.978 24.2674 32.5954L26.3492 28.4315L28.4311 32.5954C28.5873 32.978 28.9333 33.2499 29.3419 33.3111L33.9612 33.9616L30.6431 37.1496C30.334 37.4555 30.1891 37.8904 30.2527 38.3206L31.0334 42.9399L26.9346 40.7279L26.3491 40.5978L25.7636 40.7279L21.6648 42.9399L22.4455 38.3206C22.5092 37.8904 22.3642 37.4555 22.0551 37.1496L18.737 33.9616L23.3565 33.3111Z" fill="black"/>
</g>
<defs>
<clipPath id="clip0_889_345">
<rect width="54" height="54" fill="white"/>
</clipPath>
</defs>
</svg>
