<svg width="68" height="68" viewBox="0 0 68 68" fill="none" xmlns="http://www.w3.org/2000/svg">
<path d="M68 34C68 15.2204 52.7796 0 34 0C15.2204 0 0 15.2204 0 34C0 50.9735 12.4312 65.0383 28.6875 67.5883V43.8281H20.0546V34H28.6875V26.5094C28.6875 17.9894 33.761 13.2813 41.5304 13.2813C45.2492 13.2813 49.1406 13.9453 49.1406 13.9453V22.3125H44.8508C40.6273 22.3125 39.3125 24.9356 39.3125 27.625V34H48.7421L47.2348 43.8281H39.3125V67.5883C55.5687 65.0383 68 50.9735 68 34Z" fill="#1877F2"/>
<path d="M47.2349 43.8281L48.7422 34H39.3126V27.625C39.3126 24.9356 40.6274 22.3125 44.8509 22.3125H49.1407V13.9453C49.1407 13.9453 45.2493 13.2812 41.5305 13.2812C33.7611 13.2812 28.6876 17.9894 28.6876 26.5094V34H20.0547V43.8281H28.6876V67.5883C30.4207 67.8606 32.1938 68 34.0001 68C35.8063 68 37.5794 67.8606 39.3126 67.5883V43.8281H47.2349Z" fill="white"/>
</svg>
