<svg width="68" height="68" viewBox="0 0 68 68" fill="none" xmlns="http://www.w3.org/2000/svg">
<path d="M34.0003 0C15.2249 0 0 15.6073 0 34.8608C0 50.2632 9.74211 63.3305 23.2515 67.9401C24.9507 68.2628 25.5745 67.1838 25.5745 66.2631C25.5745 65.4318 25.543 62.6857 25.5284 59.7727C16.0695 61.8815 14.0735 55.6596 14.0735 55.6596C12.5269 51.6302 10.2984 50.5588 10.2984 50.5588C7.21355 48.3951 10.5309 48.4396 10.5309 48.4396C13.9451 48.6855 15.7429 52.032 15.7429 52.032C18.7754 57.3614 23.6968 55.8207 25.637 54.9299C25.9422 52.6768 26.8233 51.1389 27.7957 50.2684C20.2438 49.3869 12.305 46.3977 12.305 33.04C12.305 29.234 13.6332 26.1242 15.8082 23.6829C15.4552 22.8049 14.2914 19.2592 16.1376 14.4574C16.1376 14.4574 18.9927 13.5205 25.4901 18.0308C28.2022 17.2584 31.1108 16.871 34.0003 16.8577C36.8898 16.871 39.8006 17.2584 42.5178 18.0308C49.0073 13.5205 51.8585 14.4574 51.8585 14.4574C53.7092 19.2592 52.5448 22.8049 52.1918 23.6829C54.3718 26.1242 55.691 29.234 55.691 33.04C55.691 46.4295 47.7371 49.3776 40.166 50.2407C41.3855 51.3225 42.4722 53.444 42.4722 56.6964C42.4722 61.3608 42.4328 65.1149 42.4328 66.2631C42.4328 67.1908 43.0448 68.2778 44.7682 67.9355C58.2703 63.3207 68 50.258 68 34.8608C68 15.6073 52.7773 0 34.0003 0Z" fill="black"/>
<path d="M12.9778 49.8133C12.9031 49.9847 12.6378 50.0362 12.3962 49.9184C12.15 49.8058 12.0118 49.572 12.0916 49.4C12.1647 49.2234 12.4305 49.1742 12.6761 49.2925C12.9228 49.4051 13.0633 49.6412 12.9778 49.8133Z" fill="#161514"/>
<path d="M14.3525 51.3726C14.1906 51.5252 13.8742 51.4543 13.6595 51.2131C13.4376 50.9724 13.396 50.6506 13.5601 50.4957C13.727 50.3431 14.0338 50.4146 14.2564 50.6552C14.4783 50.8987 14.5216 51.2182 14.3525 51.3726Z" fill="#161514"/>
<path d="M15.6906 53.3606C15.4827 53.5075 15.1427 53.3697 14.9325 53.0628C14.7246 52.7558 14.7246 52.3877 14.937 52.2402C15.1477 52.0928 15.4827 52.2254 15.6957 52.53C15.903 52.8421 15.903 53.2102 15.6906 53.3606Z" fill="#161514"/>
<path d="M17.5237 55.2811C17.3377 55.4897 16.9415 55.4337 16.6515 55.149C16.3548 54.8707 16.2722 54.4757 16.4588 54.2671C16.6471 54.0579 17.0455 54.1167 17.3377 54.3991C17.6322 54.6769 17.7221 55.0747 17.5237 55.2811Z" fill="#161514"/>
<path d="M20.0528 56.3962C19.9707 56.6666 19.5891 56.7895 19.2047 56.6746C18.8209 56.5563 18.5697 56.2396 18.6472 55.9664C18.727 55.6943 19.1103 55.5663 19.4975 55.6892C19.8808 55.8069 20.1326 56.1213 20.0528 56.3962Z" fill="#161514"/>
<path d="M22.8299 56.6031C22.8395 56.8878 22.5135 57.1239 22.11 57.129C21.7043 57.1381 21.3761 56.9078 21.3716 56.6277C21.3716 56.3402 21.6902 56.1064 22.096 56.0996C22.4995 56.0916 22.8299 56.3202 22.8299 56.6031Z" fill="#161514"/>
<path d="M25.4145 56.1556C25.4628 56.4334 25.1824 56.7186 24.7817 56.7946C24.3877 56.8678 24.023 56.6963 23.973 56.4208C23.9241 56.1362 24.2096 55.8509 24.603 55.7772C25.0042 55.7063 25.3633 55.8732 25.4145 56.1556Z" fill="#161514"/>
</svg>
