<svg width="24" height="24" viewBox="0 0 24 24" fill="none" xmlns="http://www.w3.org/2000/svg">
<g clip-path="url(#clip0_889_687)">
<path fill-rule="evenodd" clip-rule="evenodd" d="M12 2C6.47715 2 2 6.47715 2 12C2 17.5228 6.47715 22 12 22C17.5228 22 22 17.5228 22 12C22 6.47715 17.5228 2 12 2ZM0 12C0 5.37258 5.37258 0 12 0C18.6274 0 24 5.37258 24 12C24 18.6274 18.6274 24 12 24C5.37258 24 0 18.6274 0 12Z" fill="black"/>
<path fill-rule="evenodd" clip-rule="evenodd" d="M12.2438 7.03199C11.7923 6.94428 11.3196 7.03677 10.9023 7.31459C10.4807 7.59526 10.1347 8.05471 9.95501 8.63339C9.79122 9.16082 9.23086 9.45562 8.70342 9.29182C8.17599 9.12803 7.8812 8.56767 8.04499 8.04024C8.3492 7.06064 8.95835 6.20609 9.79399 5.64978C10.6339 5.09062 11.6394 4.87716 12.6252 5.06871C13.6081 5.25969 14.471 5.83297 15.0772 6.64861C15.6816 7.46196 16.0012 8.4735 16 9.50319C15.9997 11.1422 14.9173 12.2754 14.0589 12.9237C13.6119 13.2612 13.171 13.5103 12.8446 13.6746C12.6802 13.7574 12.5415 13.8203 12.4414 13.8635C12.3913 13.8852 12.3505 13.902 12.3208 13.9139L12.2845 13.9283L12.2729 13.9328L12.2688 13.9344L12.2671 13.935C12.2671 13.935 12.2658 13.9355 11.9268 13.0379L12.2658 13.9355C11.7491 14.1306 11.1721 13.8699 10.977 13.3532C10.782 12.837 11.0422 12.2605 11.5581 12.0649L11.5566 12.0655L11.5581 12.0649L11.5736 12.0587C11.5891 12.0525 11.6147 12.042 11.649 12.0272C11.7177 11.9975 11.8203 11.9512 11.9453 11.8882C12.1978 11.7611 12.5287 11.573 12.8536 11.3276C13.5389 10.8102 14 10.1948 14 9.50261L14 9.50129C14.0008 8.87936 13.8064 8.29173 13.4719 7.84155C13.1389 7.39345 12.6981 7.12027 12.2438 7.03199Z" fill="black"/>
<path fill-rule="evenodd" clip-rule="evenodd" d="M11 17C11 16.4477 11.4477 16 12 16H12.01C12.5623 16 13.01 16.4477 13.01 17C13.01 17.5523 12.5623 18 12.01 18H12C11.4477 18 11 17.5523 11 17Z" fill="black"/>
</g>
<defs>
<clipPath id="clip0_889_687">
<rect width="24" height="24" fill="white"/>
</clipPath>
</defs>
</svg>
