<svg width="68" height="68" viewBox="0 0 68 68" fill="none" xmlns="http://www.w3.org/2000/svg">
<circle cx="34" cy="34" r="34" fill="url(#paint0_linear_935_11)"/>
<path fill-rule="evenodd" clip-rule="evenodd" d="M34.135 16C29.2103 16 28.5922 16.0215 26.658 16.1096C24.7275 16.198 23.4098 16.5036 22.2568 16.952C21.0642 17.4152 20.0525 18.0347 19.0445 19.043C18.0359 20.051 17.4163 21.0627 16.9516 22.2549C16.5021 23.4083 16.1961 24.7264 16.1092 26.6561C16.0227 28.5903 16 29.2088 16 34.1335C16 39.0583 16.0219 39.6744 16.1096 41.6087C16.1983 43.5392 16.504 44.8569 16.952 46.0098C17.4155 47.2025 18.0351 48.2142 19.0434 49.2221C20.051 50.2308 21.0627 50.8519 22.2546 51.315C23.4083 51.7635 24.7264 52.0691 26.6565 52.1575C28.5907 52.2455 29.2084 52.267 34.1328 52.267C39.0579 52.267 39.6741 52.2455 41.6083 52.1575C43.5388 52.0691 44.858 51.7635 46.0117 51.315C47.204 50.8519 48.2142 50.2308 49.2217 49.2221C50.2304 48.2142 50.85 47.2025 51.3147 46.0102C51.7604 44.8569 52.0664 43.5388 52.1571 41.6091C52.244 39.6748 52.2667 39.0583 52.2667 34.1335C52.2667 29.2088 52.244 28.5907 52.1571 26.6565C52.0664 24.726 51.7604 23.4083 51.3147 22.2553C50.85 21.0627 50.2304 20.051 49.2217 19.043C48.2131 18.0344 47.2044 17.4148 46.0106 16.952C44.8546 16.5036 43.5361 16.198 41.6057 16.1096C39.6714 16.0215 39.0556 16 34.1294 16H34.135ZM33.5304 19.2676H33.5306L34.135 19.2678C38.9767 19.2678 39.5505 19.2852 41.4625 19.3721C43.2305 19.4529 44.1901 19.7483 44.8293 19.9965C45.6755 20.3252 46.2788 20.7181 46.9131 21.3528C47.5478 21.9874 47.9407 22.5919 48.2701 23.4381C48.5183 24.0766 48.8141 25.0361 48.8946 26.8042C48.9815 28.7157 49.0003 29.29 49.0003 34.1294C49.0003 38.9687 48.9815 39.543 48.8946 41.4545C48.8137 43.2226 48.5183 44.1821 48.2701 44.8206C47.9414 45.6668 47.5478 46.2694 46.9131 46.9037C46.2784 47.5383 45.6759 47.9312 44.8293 48.2599C44.1908 48.5092 43.2305 48.8039 41.4625 48.8848C39.5509 48.9716 38.9767 48.9905 34.135 48.9905C29.293 48.9905 28.7191 48.9716 26.8076 48.8848C25.0395 48.8032 24.08 48.5077 23.4404 48.2595C22.5942 47.9309 21.9897 47.538 21.355 46.9033C20.7204 46.2686 20.3275 45.6657 19.998 44.8191C19.7498 44.1806 19.454 43.2211 19.3736 41.453C19.2867 39.5415 19.2693 38.9672 19.2693 34.1248C19.2693 29.2824 19.2867 28.7112 19.3736 26.7996C19.4544 25.0316 19.7498 24.072 19.998 23.4328C20.3267 22.5866 20.7204 21.9822 21.355 21.3475C21.9897 20.7128 22.5942 20.3199 23.4404 19.9905C24.0796 19.7412 25.0395 19.4465 26.8076 19.3653C28.4804 19.2897 29.1287 19.267 32.5083 19.2633V19.2678C32.8239 19.2673 33.1635 19.2675 33.5299 19.2676H33.5301H33.5304ZM41.6385 24.454C41.6385 23.2523 42.6132 22.2787 43.8146 22.2787V22.278C45.0159 22.278 45.9906 23.2527 45.9906 24.454C45.9906 25.6553 45.0159 26.63 43.8146 26.63C42.6132 26.63 41.6385 25.6553 41.6385 24.454ZM34.1347 24.8212C28.9921 24.8214 24.8227 28.9909 24.8227 34.1335C24.8227 39.2763 28.9923 43.444 34.135 43.444C39.2778 43.444 43.4458 39.2763 43.4458 34.1335C43.4458 28.9908 39.2774 24.8212 34.1347 24.8212ZM40.1796 34.1335C40.1796 30.7951 37.4731 28.089 34.1351 28.089C30.7966 28.089 28.0906 30.7951 28.0906 34.1335C28.0906 37.4716 30.7966 40.178 34.1351 40.178C37.4731 40.178 40.1796 37.4716 40.1796 34.1335Z" fill="white"/>
<defs>
<linearGradient id="paint0_linear_935_11" x1="15.5" y1="10" x2="56" y2="64.5" gradientUnits="userSpaceOnUse">
<stop stop-color="#DC01A7"/>
<stop offset="0.602083" stop-color="#F10146"/>
<stop offset="1" stop-color="#FFB800"/>
</linearGradient>
</defs>
</svg>
