<svg width="24" height="24" viewBox="0 0 24 24" fill="none" xmlns="http://www.w3.org/2000/svg">
<path fill-rule="evenodd" clip-rule="evenodd" d="M6.49463 7.53683C5.43376 7.53683 4.41635 7.95826 3.6662 8.70841C2.91606 9.45855 2.49463 10.476 2.49463 11.5368C2.49463 12.5977 2.91606 13.6151 3.6662 14.3653C4.03764 14.7367 4.47859 15.0313 4.96389 15.2324C5.4492 15.4334 5.96934 15.5368 6.49463 15.5368H9.49463C10.0469 15.5368 10.4946 15.9845 10.4946 16.5368C10.4946 17.0891 10.0469 17.5368 9.49463 17.5368H6.49463C5.7067 17.5368 4.92648 17.3816 4.19853 17.0801C3.47057 16.7786 2.80914 16.3366 2.25199 15.7795C1.12677 14.6543 0.494629 13.1281 0.494629 11.5368C0.494629 9.94554 1.12677 8.41941 2.25199 7.29419C3.37721 6.16898 4.90333 5.53683 6.49463 5.53683H9.49463C10.0469 5.53683 10.4946 5.98455 10.4946 6.53683C10.4946 7.08912 10.0469 7.53683 9.49463 7.53683H6.49463Z" fill="#7A38FF"/>
<path fill-rule="evenodd" clip-rule="evenodd" d="M17.4946 15.5368C18.5555 15.5368 19.5729 15.1154 20.3231 14.3653C21.0732 13.6151 21.4946 12.5977 21.4946 11.5368C21.4946 10.476 21.0732 9.45855 20.3231 8.70841C19.9516 8.33697 19.5107 8.04233 19.0254 7.84132C18.5401 7.6403 18.0199 7.53683 17.4946 7.53683L14.4946 7.53683C13.9423 7.53683 13.4946 7.08912 13.4946 6.53683C13.4946 5.98455 13.9423 5.53683 14.4946 5.53683L17.4946 5.53683C18.2826 5.53683 19.0628 5.69203 19.7907 5.99356C20.5187 6.29509 21.1801 6.73704 21.7373 7.29419C22.8625 8.41941 23.4946 9.94554 23.4946 11.5368C23.4946 13.1281 22.8625 14.6543 21.7373 15.7795C20.6121 16.9047 19.0859 17.5368 17.4946 17.5368L14.4946 17.5368C13.9423 17.5368 13.4946 17.0891 13.4946 16.5368C13.4946 15.9845 13.9423 15.5368 14.4946 15.5368L17.4946 15.5368Z" fill="#7A38FF"/>
<path fill-rule="evenodd" clip-rule="evenodd" d="M6.49463 11.5368C6.49463 10.9845 6.94234 10.5368 7.49463 10.5368H15.4946C16.0469 10.5368 16.4946 10.9845 16.4946 11.5368C16.4946 12.0891 16.0469 12.5368 15.4946 12.5368H7.49463C6.94234 12.5368 6.49463 12.0891 6.49463 11.5368Z" fill="#7A38FF"/>
</svg>
