<svg width="68" height="68" viewBox="0 0 68 68" fill="none" xmlns="http://www.w3.org/2000/svg">
<path d="M0 34C0 15.2223 15.2223 0 34 0C52.7777 0 68 15.2223 68 34C68 52.7777 52.7777 68 34 68C15.2223 68 0 52.7777 0 34Z" fill="#0077B5"/>
<path fill-rule="evenodd" clip-rule="evenodd" d="M24.5349 20.9988C24.5349 23.2217 22.8617 25.0004 20.175 25.0004H20.1258C17.539 25.0004 15.8667 23.2217 15.8667 20.9988C15.8667 18.7289 17.5899 17 20.2258 17C22.8617 17 24.4849 18.7289 24.5349 20.9988ZM24.0275 28.1603V51.3111H16.3223V28.1603H24.0275ZM51.8149 51.3111L51.8152 38.0371C51.8152 30.9262 48.014 27.6167 42.9437 27.6167C38.8527 27.6167 37.0212 29.8637 35.9985 31.44V28.1609H28.2924C28.394 30.3333 28.2924 51.3117 28.2924 51.3117H35.9985V38.3824C35.9985 37.6905 36.0485 37.0003 36.2522 36.5049C36.8091 35.1226 38.077 33.6915 40.2058 33.6915C42.995 33.6915 44.11 35.8144 44.11 38.9254V51.3111H51.8149Z" fill="white"/>
</svg>
