<svg width="24" height="24" viewBox="0 0 24 24" fill="none" xmlns="http://www.w3.org/2000/svg">
<g clip-path="url(#clip0_889_691)">
<path d="M23.2493 11.2504H13.7495C13.3355 11.2504 12.9995 10.9145 12.9995 10.5005C12.9995 10.0865 13.3355 9.75049 13.7495 9.75049H23.2493C23.6632 9.75049 23.9992 10.0865 23.9992 10.5005C23.9992 10.9145 23.6632 11.2504 23.2493 11.2504Z" fill="#EB5757"/>
<path d="M19.4994 15.0003C19.3073 15.0003 19.1154 14.9273 18.9693 14.7804C18.6763 14.4873 18.6763 14.0123 18.9693 13.7194L22.1893 10.4996L18.9693 7.27958C18.6763 6.98662 18.6763 6.51166 18.9693 6.2187C19.2624 5.92555 19.7374 5.92555 20.0304 6.2187L23.7802 9.96857C24.0732 10.2615 24.0732 10.7365 23.7802 11.0295L20.0304 14.7793C19.8833 14.9273 19.6914 15.0003 19.4994 15.0003Z" fill="#EB5757"/>
<path d="M7.99981 24.0002C7.78577 24.0002 7.58271 23.9701 7.37983 23.9072L1.3619 21.9022C0.543074 21.6162 0 20.8532 0 20.0004V2.00091C0 0.897921 0.897006 0.000915527 2 0.000915527C2.21386 0.000915527 2.41692 0.0309439 2.61997 0.0939302L8.63773 2.09887C9.45673 2.38487 9.99963 3.14785 9.99963 4.00073V22.0002C9.99963 23.1032 9.1028 24.0002 7.99981 24.0002ZM2 1.50087C1.72498 1.50087 1.49995 1.7259 1.49995 2.00091V20.0004C1.49995 20.2133 1.64295 20.4112 1.84693 20.4823L7.83667 22.4782C7.8797 22.4922 7.93573 22.5002 7.99981 22.5002C8.27483 22.5002 8.49967 22.2752 8.49967 22.0002V4.00073C8.49967 3.78778 8.35667 3.58985 8.1527 3.51881L2.16296 1.52284C2.11993 1.50893 2.0639 1.50087 2 1.50087Z" fill="#EB5757"/>
<path d="M15.2495 8.00073C14.8355 8.00073 14.4995 7.66474 14.4995 7.25075V2.75089C14.4995 2.06189 13.9387 1.50087 13.2497 1.50087H2.00004C1.58605 1.50087 1.25006 1.16488 1.25006 0.750892C1.25006 0.336904 1.58605 0.000915527 2.00004 0.000915527H13.2497C14.7667 0.000915527 15.9995 1.23391 15.9995 2.75089V7.25075C15.9995 7.66474 15.6635 8.00073 15.2495 8.00073Z" fill="#EB5757"/>
<path d="M13.2497 20.9999H9.24967C8.83568 20.9999 8.49969 20.6639 8.49969 20.2499C8.49969 19.836 8.83568 19.5 9.24967 19.5H13.2497C13.9387 19.5 14.4995 18.939 14.4995 18.2499V13.7501C14.4995 13.3361 14.8355 13.0001 15.2495 13.0001C15.6635 13.0001 15.9995 13.3361 15.9995 13.7501V18.2499C15.9995 19.7669 14.7666 20.9999 13.2497 20.9999Z" fill="#EB5757"/>
</g>
<defs>
<clipPath id="clip0_889_691">
<rect width="24" height="24" fill="white"/>
</clipPath>
</defs>
</svg>
