<svg width="239" height="240" viewBox="0 0 239 240" fill="none" xmlns="http://www.w3.org/2000/svg">
<path fill-rule="evenodd" clip-rule="evenodd" d="M224.254 213.722C218.012 159.228 253.266 49.0596 199.068 19.5907C114.995 -26.122 -7.58094 37.7258 0.826 140.824C6.77036 213.722 231.313 275.346 224.254 213.722Z" fill="#7A38FF"/>
<path d="M142.54 45.064C142.331 44.4524 142.091 43.8924 142.012 43.3106C141.85 42.1132 141.719 40.9062 141.674 39.6995C141.58 37.1954 141.55 34.2733 141.496 31.7677C141.488 31.3858 141.413 30.9951 142.028 30.9735C142.645 30.9519 145.585 29.0755 145.585 30.5C145.585 33.4569 145.997 37.9825 146.256 40.888C146.339 41.8268 146.729 42.5917 146.749 43.6818C146.783 45.5191 143.539 45.0424 142.54 45.064Z" fill="white"/>
<path fill-rule="evenodd" clip-rule="evenodd" d="M101.54 18.362C100.895 18.4178 100.25 18.5145 99.6046 18.5227C95.5998 18.5735 91.5945 18.6003 87.5897 18.6507C87.3498 18.6537 86.2787 18.6568 86.0388 18.66C84.9882 18.674 83.9376 18.6898 82.8871 18.7083C82.3958 18.7169 82.7358 18.7318 82.2447 18.751C80.4981 18.8193 78.7525 18.9421 77.0064 19.0314C76.0267 19.0815 75.0459 19.121 74.0685 19.2017C71.5144 19.4124 58.9881 20.0651 56.4341 20.277C55.8314 20.327 55.4854 20.4769 55.5353 21.219C55.6477 22.8907 55.6905 53.6607 55.7041 55.3366C55.708 55.8285 55.8446 55.9372 56.3012 55.8984C57.8406 55.7677 69.357 55.2511 70.8982 55.1417C72.4949 55.0283 74.0909 54.9032 75.6888 54.8107C77.8695 54.6845 80.0519 54.5889 82.2329 54.4675C82.5461 54.45 82.8536 54.348 83.1667 54.308C84.517 54.1355 85.8662 53.9516 87.2198 53.81C88.5354 53.6725 89.8544 53.559 91.1745 53.4748C94.0281 53.2926 96.8819 53.0993 99.7385 52.9797C102.303 52.8723 104.871 52.8588 107.438 52.8013C109.837 52.7475 112.237 52.6863 114.637 52.6356C117.482 52.5755 120.327 52.516 123.172 52.4692C126.991 52.4064 130.811 52.365 134.631 52.2966C136.529 52.2626 138.428 52.1921 140.326 52.1323C141.946 52.0812 143.565 52.0014 145.185 51.9703C148.782 51.9012 152.379 51.8507 155.976 51.8C160.241 51.7399 164.507 51.7143 168.772 51.6228C171.762 51.5586 179.322 51.4142 182.31 51.2823C182.456 51.2758 182.712 51.0476 182.714 50.9185C182.744 49.4989 182.732 18.9865 182.733 17.5663C182.734 16.9645 182.386 16.6248 181.843 16.5353C181.206 16.4304 180.556 16.3826 179.909 16.3621C177.705 16.2922 170.929 16.1908 168.724 16.1994C160.727 16.2303 152.731 16.2922 144.734 16.3604C143.844 16.368 142.954 16.3753 142.063 16.3833C138.883 16.4121 135.703 16.4501 132.524 16.5428C130.557 16.6001 128.597 16.8716 126.632 17.0217C124.252 17.2035 121.87 17.3607 119.489 17.5258C118.621 17.5859 117.753 17.6366 116.885 17.6939C114.364 17.8602 111.846 18.0716 109.323 18.1826C106.787 18.2942 104.246 18.3063 101.54 18.362Z" fill="white"/>
<path fill-rule="evenodd" clip-rule="evenodd" d="M51.3244 5.57974C50.2181 5.47244 49.1222 5.25698 48.0221 5.087C47.9473 5.07544 47.8768 5.03569 47.8042 5.00905C47.8733 4.97999 47.9404 4.94304 48.0122 4.9245C48.0644 4.91102 48.123 4.923 48.1786 4.9217C50.5508 4.86619 52.9235 4.82754 55.2949 4.75035C58.146 4.65755 60.996 4.53546 63.8462 4.41873C64.9377 4.37403 66.0278 4.2975 67.1193 4.25608C68.8505 4.19039 70.5825 4.14611 72.3139 4.08501C73.7115 4.03569 75.1085 3.97154 76.506 3.91988C79.5791 3.80626 82.6525 3.69991 85.7255 3.58316C86.9005 3.53852 88.0742 3.46028 89.2493 3.42083C91.2312 3.35428 93.2139 3.312 95.1959 3.24889C96.6492 3.20262 98.1019 3.13523 99.5551 3.08469C101.287 3.02448 103.018 2.97697 104.75 2.91499C106.092 2.86694 107.433 2.79323 108.775 2.75212C110.924 2.68628 113.074 2.64266 115.223 2.5808C116.899 2.53256 118.574 2.46837 120.25 2.41585C122.121 2.35723 123.992 2.30377 125.863 2.24807C127.734 2.19236 129.604 2.13537 131.475 2.08131C133.457 2.02403 135.44 1.97036 137.422 1.91361C139.33 1.85898 141.238 1.79971 143.147 1.74746C145.296 1.68861 147.445 1.63561 149.595 1.57954C151.716 1.5242 153.838 1.46707 155.959 1.41282C158.192 1.35572 160.425 1.30164 162.658 1.24524C164.835 1.19025 167.013 1.1535 169.189 1.07195C170.85 1.0097 172.509 0.883569 174.169 0.802852C174.415 0.790902 174.666 0.909123 174.914 0.905687C178.345 0.858097 181.775 0.805035 185.205 0.742328C187.773 0.695399 190.34 0.63054 192.907 0.577517C195.725 0.51932 198.542 0.446379 201.36 0.415963C202.822 0.402858 203.784 1.06261 204.128 2.44215C204.3 3.12949 204.21 3.88546 204.215 4.61055C204.228 6.47432 204.25 8.33845 204.226 10.2019C204.211 11.3626 204.119 12.5224 204.064 13.6827C204.054 13.9034 204.051 14.1248 204.051 14.3458C204.05 16.7785 204.069 19.2113 204.046 21.6437C204.006 25.9099 203.943 30.1759 203.882 34.4418C203.832 37.9838 203.772 41.5257 203.716 45.0676C203.66 48.6652 203.605 52.2628 203.549 55.8604C203.494 59.4023 203.446 62.9444 203.379 66.4861C203.34 68.58 203.256 70.6731 203.22 72.7671C203.194 74.2245 203.231 75.6829 203.212 77.1405C203.166 80.7382 203.112 84.3359 203.045 87.9333C203.006 89.9994 202.921 92.0647 202.886 94.1308C202.86 95.616 202.901 97.1024 202.876 98.5876C202.84 100.626 202.753 102.663 202.719 104.702C202.692 106.27 202.735 107.84 202.708 109.409C202.676 111.28 202.585 113.151 202.552 115.022C202.525 116.535 202.562 118.049 202.543 119.562C202.497 123.244 202.438 126.925 202.378 130.606C202.327 133.758 202.274 136.91 202.21 140.062C202.164 142.35 202.085 144.639 202.05 146.928C202.024 148.691 202.067 150.456 202.039 152.22C202.01 154.036 201.913 155.85 201.884 157.666C201.856 159.401 201.9 161.139 201.872 162.874C201.845 164.523 201.743 166.17 201.717 167.819C201.689 169.582 201.728 171.347 201.707 173.111C201.664 176.765 201.602 180.418 201.543 184.071C201.491 187.279 201.492 190.489 201.359 193.693C201.232 196.775 201.942 199.633 203.474 202.264C205.035 204.944 206.708 207.56 208.367 210.182C210.007 212.774 211.446 215.472 212.209 218.447C212.753 220.57 212.833 222.775 212.222 224.925C212.013 225.66 210.74 230.731 211.823 232.049C213.213 233.74 214.971 234.499 217.136 234.549C219.247 234.597 221.25 234.083 223.273 233.615C225.732 233.046 228.201 232.635 230.677 233.533C231.909 233.98 233.019 234.612 233.748 235.752C233.859 235.926 234.128 236.217 233.54 236.221C232.114 236.228 230.689 236.316 229.264 236.372C226.414 236.484 223.563 236.598 220.713 236.705C219.065 236.767 217.417 236.82 215.769 236.873C213.926 236.931 212.083 236.988 210.24 237.04C208.091 237.099 205.941 237.157 203.792 237.206C201.114 237.268 198.435 237.324 195.756 237.374C192.465 237.434 189.174 237.493 185.883 237.54C181.505 237.603 177.128 237.647 172.75 237.711C169.765 237.755 166.781 237.822 163.796 237.875C163.285 237.884 162.774 237.872 162.263 237.877C156.103 237.932 149.943 237.988 143.783 238.043C143.245 238.047 142.706 238.039 142.167 238.044C135.868 238.099 129.569 238.155 123.269 238.21C122.703 238.215 122.136 238.206 121.57 238.211C115.326 238.266 109.083 238.322 102.839 238.377C102.301 238.382 101.762 238.373 101.223 238.378C94.9238 238.433 88.6246 238.489 82.3254 238.544C81.8146 238.548 81.3036 238.541 80.7928 238.545C74.4936 238.6 68.1944 238.656 61.8952 238.711C61.3565 238.716 60.8177 238.708 60.279 238.712C53.9798 238.767 47.6806 238.823 41.3814 238.878C40.8984 238.882 40.4153 238.875 39.9323 238.879C33.5217 238.934 27.1111 238.99 20.7005 239.049C20.5982 239.05 20.4963 239.102 20.3942 239.171C20.3942 239.213 20.3107 239.213 20.2689 239.213C20.0437 239.157 19.8608 239.055 19.6767 239.053C18.4236 239.039 17.1701 239.048 15.9168 239.042C15.7971 239.041 15.6777 238.983 15.5581 238.952C15.6594 238.928 15.7613 238.906 15.8618 238.878C18.5421 238.155 21.2037 237.348 23.9098 236.739C25.4437 236.393 27.048 236.339 28.6255 236.215C29.9633 236.11 31.3076 236.076 32.6499 236.047C33.1585 236.036 33.1163 235.923 32.9825 235.48C32.4197 233.619 31.7726 231.759 31.4743 229.849C31.2266 228.263 31.3615 226.604 31.4446 224.983C31.5041 223.821 31.6736 222.649 31.9471 221.519C32.262 220.217 32.6773 218.93 33.169 217.683C34.4665 214.395 36.774 211.826 39.1592 209.29C40.5848 207.775 41.8782 206.109 43.0458 204.386C43.7518 203.343 44.1316 202.072 44.1264 200.747C44.1181 198.659 44.1445 196.569 44.1194 194.481C44.0822 191.384 44.0169 188.288 43.9557 185.192C43.9066 182.708 43.83 180.225 43.7933 177.741C43.7257 173.169 43.7041 168.595 43.6125 164.024C43.5637 161.591 43.3534 159.162 43.318 156.73C43.288 154.664 43.4705 152.594 43.4398 150.528C43.3963 147.591 43.2376 144.656 43.1458 141.719C43.1353 141.384 43.2842 141.045 43.2818 140.709C43.2353 134.298 43.1513 127.887 43.1281 121.477C43.1001 113.724 43.1428 105.972 43.1148 98.2195C43.0919 91.8922 42.9647 85.5651 42.9666 79.2379C42.9687 72.298 43.0765 65.3582 43.1173 58.4182C43.1404 54.4816 43.1004 50.5447 43.1283 46.6082C43.1499 43.5673 43.2368 40.5269 43.2862 37.4862C43.3013 36.5577 43.279 35.6287 43.2902 34.7002C43.3422 30.4062 43.4089 26.1123 43.4519 21.8182C43.4735 19.6643 43.434 17.5097 43.462 15.3559C43.4882 13.3454 43.5676 11.3355 43.6221 9.3254C43.6287 9.08317 43.6259 8.84069 43.6275 8.59833C43.6816 8.86686 43.7537 9.13318 43.787 9.40427C44.0154 11.2609 44.242 13.1179 44.455 14.9763C44.5319 15.6471 44.5775 16.3219 44.624 16.9957C44.74 18.6761 44.847 20.3571 44.96 22.0376C45.1259 24.503 55.198 26.7655 55.2202 26.4962C55.3094 26.7544 55.4045 27.0107 55.4868 27.271C56.2329 29.6304 56.7002 32.0404 57.0143 34.4991C57.46 37.9887 57.4964 41.4846 57.4961 44.9895C57.4916 90.5553 57.4955 136.121 57.4719 181.687C57.4716 182.423 57.6979 182.716 58.3634 182.908C60.5476 183.539 62.7938 183.768 65.0216 183.532C69.2348 183.086 76.7891 181.605 80.1062 178.85C82.7561 176.649 84.6425 173.956 85.7637 170.752C86.2021 169.499 86.3022 168.115 86.4505 166.778C86.5861 165.557 86.7074 164.309 86.6059 163.092C86.4335 161.025 86.1023 158.97 85.7978 156.917C85.55 155.245 85.196 153.589 84.9748 151.915C84.6522 149.474 84.3379 147.028 84.149 144.574C83.9905 142.516 83.8398 140.43 83.9978 138.381C84.3205 134.194 84.9742 130.046 86.1296 125.991C87.3647 121.657 89.0861 117.521 91.2273 113.565C92.8201 110.623 94.6451 107.817 96.8391 105.281C98.5397 103.316 100.307 101.407 102.1 99.5248C102.863 98.7233 103.783 98.0726 104.605 97.3235C107.727 94.4757 110.014 90.9651 112.374 87.5101C114.216 84.8136 112.229 82.0425 114.251 79.4868C116.915 76.1212 120.184 73.4533 124.43 72.2798C125.992 71.8482 127.599 71.5717 129.194 71.2708C132.58 70.632 136.013 70.671 139.428 70.7915C142.978 70.9167 146.351 71.8113 149.381 73.7701C151.878 75.3842 153.691 77.6478 155.235 80.1153C157.041 82.9996 158.747 85.9482 160.424 88.9094C162.581 92.7167 164.675 96.56 166.781 100.396C167.914 102.459 169.03 104.532 170.126 106.614C172.402 110.934 181.082 127.95 183.163 132.13C183.24 132.286 183.336 132.433 183.423 132.584C183.503 132.395 183.642 132.208 183.654 132.015C183.78 129.861 183.887 127.707 183.997 125.553C184.11 123.315 184.222 121.077 184.331 118.84C184.445 116.491 184.558 114.142 184.664 111.792C184.78 109.248 184.893 106.704 184.999 104.16C185.115 101.365 185.224 98.5705 185.333 95.7757C185.392 94.2949 185.448 92.814 185.5 91.3329C185.559 89.685 185.612 88.0369 185.668 86.3888C185.723 84.7686 185.784 83.1486 185.834 81.5282C185.894 79.6018 185.947 77.6751 186.002 75.7486C186.059 73.7663 186.118 71.7841 186.168 69.8017C186.228 67.4575 186.284 65.1131 186.336 62.7687C186.395 60.0902 186.455 57.4117 186.502 54.733C186.564 51.219 186.607 47.7046 186.674 44.1907C186.714 42.0689 186.812 39.9479 186.831 37.826C186.858 34.6973 186.818 31.5679 186.845 28.4392C186.863 26.4287 186.953 24.419 187 22.4086C187.004 22.2067 186.932 22.003 186.896 21.8002C186.725 21.9243 186.528 22.0246 186.386 22.1763C185.299 23.3385 183.926 23.7533 182.38 23.8129C180.002 23.9046 177.757 23.2032 175.476 22.7176C173.292 22.2525 171.096 21.7319 168.856 21.9994C167.526 22.1583 166.206 22.5566 164.929 22.988C162.87 23.6838 160.909 23.4728 158.959 22.6378C157.066 21.8278 155.191 20.9681 153.262 20.2538C151.527 19.6109 149.685 19.6172 148.002 20.3514C147.18 20.7097 146.355 21.4784 145.943 22.2744C144.978 24.136 143.523 25.002 141.523 25.3309C138.885 25.7648 136.56 24.878 134.214 23.9153C132.31 23.1335 130.425 22.2531 128.452 21.7024C125.818 20.9672 123.397 21.7648 121.214 23.3359C119.841 24.3236 118.548 25.4599 117.07 26.2528C115.088 27.3161 112.2 27.4691 110.636 25.7143C110.362 25.4073 110.084 25.0392 109.984 24.6537C109.59 23.1274 108.602 22.7987 107.229 22.6402C105.253 22.4119 103.801 23.4749 102.368 24.6223C101.041 25.6844 99.8038 26.8659 98.0002 27.1981C96.5685 27.4617 95.2228 27.2742 93.9533 26.7286C91.8007 25.8034 89.6887 24.7778 87.5938 23.7263C85.7201 22.7859 83.7178 22.3177 81.7069 22.7016C80.4115 22.9489 79.1918 23.7546 78.0206 24.4492C76.6 25.2916 75.3306 26.4002 73.8808 27.1798C71.3864 28.521 69.1512 28.5512 65.9564 28.0277C62.7616 27.5041 55.0542 22.5109 54.6685 21.9994C54.6148 21.9282 53.4241 5.78337 51.3244 5.57974Z" fill="white"/>
<path fill-rule="evenodd" clip-rule="evenodd" d="M99.723 175.273C99.0354 170.241 98.8463 165.624 99.1558 161.42C99.4653 157.217 100.419 151.033 102.017 142.868C98.961 150.923 97.1445 157.107 96.5679 161.42C95.9913 165.734 96.3257 170.866 97.5712 176.817L99.723 175.273Z" fill="#7A38FF"/>
<path fill-rule="evenodd" clip-rule="evenodd" d="M144.674 114.675C147.703 114.386 149.618 114.989 150.195 116.704C151.169 119.603 144.071 123.48 141.567 123.247C140.689 122.441 149.407 120.266 148.619 117.234C148.418 116.463 147.178 116.106 144.832 116.33C144.375 116.373 143.969 116.038 143.925 115.581C143.882 115.124 144.217 114.719 144.674 114.675Z" fill="#333333"/>
<path fill-rule="evenodd" clip-rule="evenodd" d="M159.615 192.179C159.393 191.65 159.708 188.369 161.449 185.225C164.332 180.019 176.873 178.294 181.568 173.556C187.524 167.546 185.005 160.491 184.682 159.833C184.605 159.676 184.575 159.494 184.523 159.324C184.661 159.414 184.822 159.481 184.933 159.597C186.875 161.634 188.16 164.049 188.754 166.779C189.391 169.704 189.596 172.663 188.158 175.443C187.842 176.052 187.199 176.543 186.612 176.951C184.839 178.182 176.149 181.588 173.718 182.075C171.373 182.546 169.34 183.63 167.182 184.482C165.856 185.005 165.135 186.221 164.096 187.066C163 187.957 162.684 189.049 162.782 190.366C162.811 190.754 162.771 191.146 162.789 191.535C162.905 194.037 160.298 193.805 159.615 192.179Z" fill="#7A38FF"/>
<path fill-rule="evenodd" clip-rule="evenodd" d="M109.585 122.604C110.779 122.604 111.223 121.673 110.59 120.526C109.971 119.378 108.758 118.448 107.869 118.448C106.98 118.448 106.505 119.378 106.819 120.526C107.147 121.673 108.391 122.604 109.585 122.604Z" fill="#7A38FF"/>
<path fill-rule="evenodd" clip-rule="evenodd" d="M132.859 128.007C134.052 128.007 134.497 127.076 133.864 125.929C133.245 124.781 132.032 123.851 131.143 123.851C130.254 123.851 129.778 124.781 130.093 125.929C130.421 127.076 131.665 128.007 132.859 128.007Z" fill="#7A38FF"/>
<path fill-rule="evenodd" clip-rule="evenodd" d="M203.023 0.000185876C204.485 -0.0127272 205.446 0.647023 205.791 2.02657C205.962 2.71391 205.872 3.46988 205.877 4.19497C205.891 6.05874 205.912 7.92287 205.888 9.78632C205.873 10.9471 205.781 12.1068 205.726 13.2671C205.716 13.4879 205.714 13.7092 205.713 13.9302C205.713 16.3629 205.732 18.7957 205.709 21.2281C205.668 25.4943 205.605 29.7603 205.545 34.0263C205.494 37.5682 205.434 41.1101 205.379 44.652C205.323 48.2496 205.268 51.8472 205.211 55.4448C205.156 58.9867 205.108 62.5288 205.041 66.0705C205.002 68.1644 204.919 70.2576 204.882 72.3515C204.857 73.8089 204.893 75.2673 204.874 76.7249C204.828 80.3226 204.774 83.9203 204.707 87.5177C204.669 89.5838 204.584 91.6491 204.548 93.7152C204.522 95.2004 204.564 96.6869 204.538 98.1721C204.503 100.21 204.415 102.248 204.381 104.286C204.355 105.855 204.397 107.425 204.37 108.994C204.338 110.865 204.247 112.735 204.214 114.606C204.188 116.119 204.225 117.633 204.206 119.147C204.16 122.828 204.101 126.509 204.041 130.19C203.99 133.342 203.936 136.494 203.873 139.646C203.827 141.935 203.747 144.223 203.713 146.512C203.686 148.276 203.729 150.041 203.701 151.804C203.673 153.62 203.575 155.434 203.546 157.25C203.519 158.986 203.562 160.723 203.534 162.459C203.508 164.107 203.406 165.755 203.38 167.403C203.352 169.167 203.391 170.932 203.37 172.696C203.326 176.349 203.264 180.002 203.205 183.655C203.153 186.863 203.155 190.073 203.022 193.278C202.894 196.36 203.604 199.218 205.137 201.849C206.698 204.529 208.37 207.145 210.03 209.766C211.67 212.358 213.109 215.056 213.871 218.031C214.416 220.155 214.495 222.359 213.884 224.509C213.675 225.244 212.402 230.316 213.486 231.633C214.876 233.325 216.634 234.084 218.799 234.133C220.909 234.181 222.913 233.668 224.935 233.2C227.394 232.63 229.863 232.219 232.339 233.118C233.571 233.565 234.682 234.196 235.41 235.336C235.521 235.51 235.79 235.802 235.202 235.805C233.777 235.813 232.352 235.901 230.927 235.957C228.076 236.068 225.226 236.182 222.375 236.29C220.728 236.352 219.079 236.405 217.431 236.457C215.588 236.516 213.745 236.573 211.902 236.624C209.753 236.684 207.604 236.742 205.454 236.791C202.776 236.852 200.097 236.908 197.419 236.958C194.128 237.019 190.836 237.078 187.545 237.125C183.168 237.187 178.79 237.231 174.413 237.296C171.428 237.34 168.443 237.406 165.458 237.459C164.947 237.468 164.436 237.457 163.925 237.461C157.766 237.516 151.606 237.572 145.446 237.627C144.907 237.632 144.368 237.624 143.829 237.628C137.53 237.683 131.231 237.74 124.932 237.794L123.232 237.795C116.989 237.85 110.745 237.907 104.502 237.961C103.963 237.966 103.424 237.958 102.885 237.963C96.5862 238.017 90.287 238.074 83.9878 238.128C83.477 238.133 82.9661 238.125 82.4552 238.13C76.156 238.184 69.8568 238.241 63.5576 238.296C63.0189 238.3 62.4801 238.292 61.9414 238.297C55.6422 238.352 49.343 238.408 43.0438 238.463C42.5608 238.467 42.0777 238.46 41.5947 238.464C35.1841 238.519 28.7735 238.574 22.363 238.634C22.2606 238.635 22.1587 238.686 22.0567 238.756C22.0567 238.797 21.9731 238.797 21.9313 238.797C21.7061 238.742 21.5232 238.64 21.3392 238.638C20.086 238.624 18.8326 238.633 17.5793 238.626C17.4595 238.626 17.3401 238.568 17.2205 238.537C17.3218 238.512 17.4237 238.49 17.5243 238.463C20.2046 237.739 22.8661 236.932 25.5722 236.323C27.1061 235.978 28.7105 235.923 30.2879 235.8C31.6257 235.695 32.9701 235.66 34.3123 235.632C34.8209 235.621 34.7787 235.507 34.6449 235.065C34.0821 233.203 33.435 231.343 33.1368 229.433C32.8891 227.847 33.0239 226.188 33.107 224.567C33.1665 223.406 33.336 222.233 33.6095 221.103C33.9244 219.801 34.3397 218.514 34.8315 217.268C36.129 213.979 38.4364 211.411 40.8216 208.875C42.2472 207.359 43.5406 205.694 44.7082 203.97C45.4142 202.928 45.794 201.657 45.7888 200.332C45.7805 198.243 45.8069 196.154 45.7818 194.065C45.7446 190.969 45.6794 187.872 45.6181 184.776C45.569 182.292 45.4925 179.809 45.4557 177.325C45.3882 172.753 45.3665 168.18 45.2749 163.608C45.2261 161.176 45.0159 158.747 44.9805 156.315C44.9504 154.248 45.1329 152.179 45.1023 150.113C45.0587 147.175 44.9 144.24 44.8082 141.303C44.7977 140.968 44.9467 140.63 44.9442 140.293C44.8977 133.883 44.8137 127.472 44.7906 121.061C44.7625 113.309 44.8052 105.556 44.7772 97.8039C44.7543 91.4766 44.6271 85.1495 44.629 78.8224C44.6311 71.8824 44.7389 64.9426 44.7797 58.0026C44.8029 54.066 44.7628 50.1291 44.7907 46.1926C44.8123 43.1517 44.8992 40.1113 44.9487 37.0706C44.9638 36.1422 44.9414 35.2132 44.9527 34.2846C45.0046 29.9906 45.0714 25.6967 45.1144 21.4026C45.1359 19.2487 45.0964 17.0941 45.1244 14.9403C45.1506 12.9298 45.2301 10.92 45.2846 8.90981C45.2911 8.66759 45.2883 8.42511 45.2899 8.18275C45.344 8.45128 45.4161 8.7176 45.4495 8.98869C45.6778 10.8454 45.9044 12.7023 46.1174 14.5608C46.1943 15.2316 46.2399 15.9063 46.2864 16.5802C46.4024 18.2605 46.5094 19.9415 46.6225 21.622C46.7883 24.0874 46.9675 26.552 47.1201 29.0182C47.2481 31.0878 47.3624 33.1585 47.4538 35.23C47.5807 38.1076 47.6865 40.9862 47.7898 43.8648C47.8569 45.7353 47.9398 47.6062 47.9529 49.4774C48.0217 59.2859 48.0727 69.0947 48.1244 78.9033C48.1362 81.141 48.1456 83.379 48.1218 85.6164C48.0821 89.3535 48.0159 93.0904 47.9587 96.8273C47.9045 100.369 47.8566 103.911 47.7881 107.453C47.7546 109.185 47.6737 110.916 47.628 112.648C47.6087 113.381 47.6291 114.115 47.6242 114.849C47.5695 123.042 47.488 131.236 47.4688 139.429C47.4597 143.305 47.56 147.182 47.6288 151.057C47.6614 152.901 47.732 154.744 47.7932 156.587C47.8424 158.068 47.8943 159.549 47.9611 161.029C48.0646 163.323 48.1726 165.617 48.2962 167.909C48.3929 169.702 48.5055 171.495 48.6301 173.286C48.7862 175.529 48.9488 177.772 49.1354 180.013C49.2061 180.861 49.3144 181.711 49.4837 182.544C49.5411 182.827 49.785 183.147 50.0351 183.302C51.6146 184.285 53.2528 183.757 54.5625 182.779C56.0805 181.645 56.7373 179.979 56.803 178.127C56.9073 175.19 56.9745 172.25 56.9758 169.311C56.9879 140.558 57.0032 111.805 56.9759 83.0525C56.9582 64.3311 56.8714 45.6099 56.8188 26.8886C56.8181 26.6193 56.8604 26.3499 56.8826 26.0806C56.9718 26.3388 57.067 26.5951 57.1493 26.8554C57.8953 29.2148 58.3627 31.6248 58.6767 34.0835C59.1224 37.5731 59.1588 41.069 59.1585 44.5739L59.1536 112.923C59.1511 135.706 59.1462 158.488 59.1344 181.271C59.134 182.008 59.3603 182.3 60.0258 182.492C62.2101 183.124 64.4562 183.353 66.684 183.117C70.8973 182.671 74.7111 181.19 78.0283 178.434C80.6781 176.233 82.5646 173.541 83.6858 170.337C84.1241 169.084 84.2242 167.699 84.3725 166.363C84.5081 165.141 84.6294 163.893 84.5279 162.676C84.3556 160.61 84.0243 158.555 83.7198 156.501C83.4721 154.83 83.118 153.174 82.8968 151.499C82.5742 149.058 82.26 146.612 82.071 144.158C81.9126 142.1 81.7618 140.015 81.9198 137.965C82.2425 133.779 82.8962 129.631 84.0517 125.576C85.2867 121.242 87.0081 117.105 89.1493 113.15C90.7422 110.207 92.5671 107.401 94.7612 104.866C96.4617 102.901 98.2292 100.991 100.022 99.1093C100.785 98.3077 101.705 97.657 102.527 96.9079C105.649 94.0602 107.936 90.5495 110.296 87.0946C112.138 84.398 113.891 81.627 115.914 79.0713C118.577 75.7056 121.846 73.0378 126.093 71.8642C127.654 71.4326 129.261 71.1561 130.856 70.8553C134.243 70.2165 137.675 70.2554 141.091 70.3759C144.64 70.5012 148.013 71.3957 151.044 73.3545C153.541 74.9686 155.353 77.2322 156.898 79.6997C158.703 82.584 160.409 85.5327 162.087 88.4938C164.244 92.3011 166.338 96.1444 168.444 99.9805C169.576 102.044 170.692 104.116 171.789 106.199C173.159 108.8 173.945 109.815 175.051 112.648C175.781 114.52 177.074 118.026 177.958 119.756C179.721 123.206 180.027 125.482 181.314 128.684C181.578 129.34 182.965 130.143 183.284 130.873C183.876 132.234 185.081 134.204 185.168 134.356C185.248 134.166 185.305 131.793 185.316 131.599C185.442 129.446 185.55 127.291 185.659 125.137C185.772 122.9 185.884 120.662 185.993 118.424C186.107 116.075 186.22 113.726 186.327 111.377C186.443 108.833 186.555 106.289 186.661 103.744C186.777 100.95 186.886 98.155 186.996 95.3602C187.054 93.8793 187.11 92.3984 187.163 90.9174C187.221 89.2694 187.274 87.6213 187.331 85.9733C187.386 84.3531 187.446 82.733 187.497 81.1126C187.557 79.1862 187.61 77.2596 187.665 75.333C187.721 73.3507 187.78 71.3686 187.831 69.3862C187.891 67.0419 187.946 64.6976 187.998 62.3531C188.057 59.6746 188.117 56.9961 188.164 54.3174C188.227 50.8034 188.27 47.289 188.336 43.7751C188.376 41.6533 188.475 39.5323 188.493 37.4104C188.521 34.2817 188.48 31.1524 188.508 28.0236C188.525 26.0132 188.615 24.0034 188.662 21.9931C188.667 21.7912 188.595 21.5875 188.559 21.3846C188.387 21.5087 188.19 21.609 188.048 21.7607C186.962 22.923 185.588 23.3377 184.042 23.3973C181.664 23.489 179.42 22.7876 177.139 22.302C174.954 21.8369 172.758 21.3164 170.519 21.5838C169.188 21.7428 167.869 22.141 166.592 22.5724C164.532 23.2682 162.572 23.0572 160.621 22.2222C158.729 21.4122 156.853 20.5525 154.925 19.8382C153.189 19.1953 151.347 19.2017 149.664 19.9358C148.842 20.2941 148.017 21.0628 147.605 21.8588C146.641 23.7204 145.185 24.5864 143.186 24.9153C140.548 25.3493 138.222 24.4625 135.877 23.4997C133.972 22.7179 132.087 21.8375 130.114 21.2868C127.48 20.5517 125.059 21.3492 122.876 22.9203C121.504 23.908 120.21 25.0443 118.732 25.8372C116.751 26.9006 113.862 27.0535 112.298 25.2987C112.025 24.9917 111.746 24.6236 111.647 24.2381C111.253 22.7118 110.264 22.3831 108.892 22.2246C106.915 21.9963 105.464 23.0593 104.03 24.2067C102.703 25.2688 101.466 26.4503 99.6627 26.7825C98.2309 27.0462 96.8852 26.8586 95.6157 26.313C93.4632 25.3878 91.3512 24.3622 89.2563 23.3107C87.3826 22.3703 85.3802 21.9021 83.3694 22.286C82.074 22.5333 80.8542 23.339 79.683 24.0336C78.2624 24.8761 76.993 25.9846 75.5432 26.7642C73.0488 28.1054 70.3703 28.1616 67.6188 27.6121C64.7644 27.042 62.4138 25.6492 60.4361 23.5712C59.9966 23.1094 59.6378 22.5699 59.2521 22.0584C59.1984 21.9872 59.2036 21.8715 59.1815 21.7764C59.2603 21.8168 59.3514 21.8431 59.4161 21.8996C61.4992 23.7187 63.881 24.8447 66.6424 25.243C70.6323 25.8184 74.3286 25.1509 77.6531 22.8311C78.5826 22.1825 79.3441 21.2975 80.2521 20.6131C81.6833 19.5344 83.3754 19.5855 85.0303 19.7857C88.1351 20.1613 90.8304 21.7769 93.7353 22.7599C96.2486 23.6105 98.8288 24.2612 101.487 23.2273C102.423 22.8636 103.205 22.353 103.784 21.4968C104.8 19.9948 107 19.4546 108.672 19.6349C111.368 19.9256 113.703 21.2658 116.261 21.919C118.059 22.3779 119.861 22.688 121.697 22.06C122.689 21.7209 123.381 21.0424 123.914 20.1987C124.777 18.8331 126.088 18.3468 127.594 18.2116C129.727 18.0202 131.647 18.6938 133.528 19.6197C135.334 20.5085 137.164 21.4187 139.179 21.6924C140.81 21.9139 142.424 21.5898 143.936 20.9073C146.306 19.8374 148.645 18.6961 151.036 17.6752C153.333 16.6945 155.568 16.8876 157.716 18.2368C158.898 18.9785 160.121 19.6817 161.399 20.2345C162.928 20.8965 164.558 20.6858 166.113 20.2703C168.211 19.7099 170.247 18.8941 172.363 18.4426C173.834 18.1289 175.359 18.2487 176.557 19.5251C177.675 20.7161 179.151 21.011 180.679 20.5761C183.062 19.8976 185.41 19.0915 187.776 18.3522C188.943 17.9878 190.111 17.6352 191.355 18.0386C193.03 18.5821 193.218 18.8568 193.013 20.5983C192.898 21.5822 192.759 22.5647 192.686 23.5519C192.597 24.7519 192.579 25.9569 192.509 27.1585C192.349 29.8749 192.18 32.5907 192.009 35.3065C191.903 36.9875 191.775 38.6672 191.678 40.3487C191.555 42.5022 191.457 44.6571 191.34 46.811C191.235 48.7426 191.107 50.6731 191.01 52.6052C190.886 55.0651 190.786 57.5262 190.672 59.9866C190.62 61.1057 190.555 62.2241 190.507 63.3433C190.392 66.0543 190.283 68.7656 190.171 71.4768C190.117 72.7907 190.055 74.1043 190.005 75.4183C189.891 78.4915 189.781 81.5648 189.67 84.6381C189.614 86.2026 189.556 87.767 189.504 89.3316C189.445 91.0909 189.391 92.8505 189.336 94.6099C189.279 96.4251 189.223 98.2402 189.169 100.055C189.112 102.01 189.056 103.964 189.002 105.919C188.945 107.984 188.889 110.05 188.835 112.116C188.778 114.293 188.721 116.471 188.668 118.648C188.61 121.02 188.556 123.392 188.5 125.764C188.444 128.164 188.388 130.564 188.333 132.965C188.277 135.476 188.221 137.987 188.166 140.499L188.057 145.689C188.038 146.554 188.018 147.419 187.996 148.284C187.959 149.682 187.888 151.079 187.83 152.476C187.827 152.553 187.796 152.628 187.778 152.705C187.741 152.629 187.686 152.557 187.667 152.477C187.051 149.863 186.37 147.262 185.851 144.628C185.501 142.852 185.355 141.032 185.168 139.227C185.058 138.16 185.048 137.082 184.989 136.01C184.983 135.907 184.945 135.806 184.922 135.704C184.889 135.792 184.833 135.879 184.827 135.968C184.631 139.327 184.04 142.604 182.859 145.765C182.516 146.683 182.226 147.62 181.907 148.546C181.865 148.667 181.791 148.776 181.732 148.891C181.716 148.74 181.652 148.575 181.692 148.441C181.885 147.799 182.066 147.148 182.324 146.531C183.508 143.698 183.443 140.711 183.284 137.754C183.164 135.541 182.61 133.371 181.7 131.321C181.645 131.197 181.35 130.62 181.347 130.466C181.347 130.441 181.238 130.418 181.179 130.393C181.224 130.599 181.269 130.805 181.314 131.01C181.426 133.136 181.615 136.093 181.628 138.22C181.644 140.703 181.229 142.318 180.555 144.708C180.199 145.973 179.739 147.209 179.323 148.458C179.295 148.543 179.246 148.623 179.206 148.705C179.185 148.602 179.115 148.479 179.149 148.4C180.25 145.851 180.129 143.119 180.291 140.442C180.443 137.936 180.577 135.412 180.442 132.911C180.253 129.419 179.597 125.99 178.137 122.766C178.105 122.695 178.016 122.649 177.984 122.578C177.877 122.341 177.784 122.097 177.686 121.855C177.621 122.156 177.472 122.468 177.508 122.758C177.627 123.727 177.88 124.683 177.958 125.654C178.117 127.637 178.244 129.625 178.294 131.614C178.35 133.85 178.415 136.096 178.276 138.325C178.139 140.502 177.753 142.664 177.469 144.832C177.311 146.045 177.138 147.256 176.966 148.467C176.955 148.546 176.894 148.618 176.855 148.693C176.838 148.617 176.799 148.539 176.806 148.465C176.855 147.903 176.915 147.341 176.969 146.779C177.026 146.19 177.114 145.601 177.131 145.01C177.2 142.611 177.291 140.21 177.292 137.81C177.293 135.522 177.218 133.232 177.129 130.945C177.057 129.096 176.942 127.247 176.796 125.402C176.601 122.957 176.359 120.517 176.132 118.075C176.09 117.623 176.028 117.173 175.962 116.724C175.95 116.636 175.88 116.555 175.836 116.471C175.768 116.559 175.648 116.643 175.641 116.736C175.571 117.603 175.509 118.471 175.468 119.34C175.402 120.736 175.371 122.135 175.295 123.531C175.14 126.387 174.972 129.242 174.794 132.097C174.701 133.584 174.558 135.067 174.466 136.554C174.287 139.464 174.136 142.376 173.959 145.286C173.864 146.829 173.726 148.369 173.63 149.911C173.453 152.766 173.307 155.622 173.119 158.476C173.054 159.463 173.301 162.684 173.265 163.127C173.052 165.746 172.312 168.252 171.418 170.709C171.244 171.187 170.887 171.679 170.478 171.975C169.323 172.807 168.56 172.675 167.951 171.224C167.802 170.869 167.723 170.483 167.611 170.112C167.596 170.063 167.571 170.017 167.55 169.97C167.515 170.052 167.468 170.13 167.446 170.215C167.22 171.069 167.087 171.961 166.751 172.768C166.414 173.576 165.952 174.361 165.404 175.043C164.74 175.87 163.532 175.913 162.762 175.18C162.324 174.762 162.328 175.295 162.294 175.375C161.949 176.178 161.715 177.036 161.314 177.808C160.69 179.011 159.613 179.551 158.272 179.458C157.671 179.417 157.558 179.602 157.568 180.173C157.595 181.661 157.004 182.873 155.672 183.613C155.346 183.795 154.891 183.833 154.508 183.799C153.962 183.751 153.855 183.951 153.898 184.439C153.943 184.937 153.915 185.441 153.907 185.942C153.887 187.129 153.071 187.961 151.899 187.995C151.008 188.021 150.841 188.269 151.194 189.041C151.548 189.817 150.991 190.563 149.946 190.664C148.882 190.768 147.995 190.528 147.152 189.721C143.688 186.402 141.033 182.525 139.053 178.189C137.769 175.378 136.767 172.449 136.372 169.361C136.093 167.176 135.849 164.983 135.711 162.786C135.554 160.291 135.947 157.833 136.455 155.389C137.418 150.759 139.218 146.409 140.823 141.99C141.194 140.97 141.457 139.906 141.7 138.846C142.122 137.009 142.523 135.166 142.86 133.313C142.978 132.666 142.902 131.978 142.856 131.312C142.849 131.201 142.528 131.003 142.381 131.027C141.11 131.234 139.839 131.454 138.579 131.725C136.423 132.188 134.36 132.906 132.365 133.871C131.626 134.228 130.7 134.189 129.865 134.356C128.53 134.622 127.2 134.919 125.864 135.18C125.587 135.234 125.289 135.181 125.001 135.189C124.508 135.203 123.695 135.06 123.582 135.276C123.281 135.857 123.191 136.591 123.174 137.268C123.087 140.92 123.002 144.574 123.011 148.227C123.016 150.131 123.209 152.034 123.328 153.937C123.431 155.563 123.507 157.192 123.673 158.811C123.841 160.451 124.12 162.08 124.325 163.716C124.461 164.809 124.532 165.91 124.668 167.003C124.873 168.639 125.117 170.271 125.33 171.907C125.508 173.284 125.665 174.665 125.834 176.044C125.943 176.945 126.053 177.846 126.173 178.745C126.184 178.826 126.259 178.944 126.328 178.964C127.581 179.331 127.859 180.432 128.162 181.469C128.634 183.088 129.152 184.71 129.425 186.368C129.634 187.639 129.631 188.984 129.472 190.265C129.31 191.568 128.867 192.841 128.501 194.114C127.948 196.034 126.852 197.653 125.6 199.179C125.519 199.279 125.48 199.413 125.421 199.531C125.543 199.53 125.664 199.527 125.786 199.526C126.009 199.526 126.232 199.526 126.454 199.526H136.564C139.136 199.526 141.708 199.546 144.28 199.522C148.491 199.482 152.701 199.414 156.911 199.36C157.338 199.354 157.766 199.365 158.193 199.358C161.846 199.304 165.5 199.247 169.153 199.193C169.525 199.187 169.897 199.201 170.268 199.19C173.348 199.099 176.428 198.999 179.509 198.915C179.812 198.907 180.117 199.023 180.421 199.019C184.102 198.972 187.783 198.92 191.464 198.855C193.976 198.811 196.487 198.742 198.999 198.694C199.696 198.68 200.069 198.529 200.059 197.654C200.033 195.255 200.147 192.854 200.196 190.454C200.211 189.693 200.232 188.93 200.191 188.17C200.111 186.671 198.991 186.078 197.701 186.012C195.138 185.882 192.568 185.845 190.001 185.83C185.535 185.804 181.069 185.815 176.604 185.83C175.791 185.833 174.979 185.936 174.166 185.988C174.06 185.994 173.952 185.968 173.845 185.958C173.91 185.859 173.97 185.757 174.04 185.663C174.733 184.729 175.775 184.449 176.827 184.34C178.187 184.198 179.57 184.27 180.931 184.135C182.434 183.986 183.923 183.704 185.419 183.487C185.583 183.463 185.753 183.487 185.92 183.483C190.302 183.372 194.685 183.265 199.066 183.134C199.265 183.128 199.569 182.943 199.633 182.771C200.153 181.377 200.445 179.986 200.307 178.436C200.16 176.785 200.44 175.095 200.531 173.422C200.54 173.255 200.532 173.088 200.532 172.921C200.532 171.472 200.519 170.024 200.535 168.576C200.584 163.975 200.637 159.375 200.702 154.775C200.746 151.623 200.812 148.471 200.866 145.319C200.923 142.056 200.978 138.792 201.034 135.529C201.089 132.339 201.145 129.15 201.201 125.961L201.368 116.338C201.424 113.12 201.48 109.903 201.535 106.686C201.591 103.441 201.646 100.196 201.702 96.9505C201.757 93.7985 201.814 90.6465 201.869 87.4945C201.926 84.2495 201.981 81.0043 202.036 77.7592C202.092 74.5237 202.147 71.2881 202.204 68.0526C202.259 64.9006 202.316 61.7487 202.37 58.5966C202.427 55.3333 202.481 52.0699 202.538 48.8065L202.705 39.2669C202.761 36.0314 202.816 32.7959 202.872 29.5603C202.927 26.4362 202.985 23.3121 203.039 20.1879C203.096 16.841 203.145 13.4939 203.208 10.1471C203.254 7.76521 203.306 5.3833 203.382 3.00225C203.398 2.50202 203.317 2.30335 202.739 2.31854C199.421 2.40566 196.101 2.43795 192.782 2.50357C190.678 2.54516 188.576 2.61425 186.472 2.66753C184.184 2.7255 181.895 2.77761 179.607 2.8357C177.513 2.88885 175.419 2.94829 173.326 3.0018C171.065 3.05957 168.804 3.11234 166.543 3.16977C164.422 3.22366 162.3 3.2825 160.179 3.33603C157.89 3.39378 155.602 3.44303 153.313 3.50518C151.554 3.55297 149.795 3.62496 148.035 3.66838C145.412 3.73309 142.789 3.77784 140.167 3.83919C138.073 3.88816 135.979 3.95154 133.886 4.00433C131.569 4.06273 129.253 4.11401 126.936 4.17275C124.87 4.22514 122.805 4.28579 120.739 4.33854C118.45 4.39698 116.162 4.44546 113.873 4.50795C112.141 4.55523 110.41 4.62834 108.678 4.67091C106.028 4.73606 103.377 4.78077 100.726 4.84177C98.577 4.89124 96.4278 4.95304 94.2784 5.00731C92.0177 5.06439 89.7569 5.11742 87.4962 5.1752C85.4025 5.2287 83.309 5.28844 81.2153 5.34122C78.8989 5.39962 76.5827 5.47292 74.2659 5.5049C69.2759 5.57379 64.2853 5.67533 59.2955 5.65C57.1916 5.63932 55.0865 5.36779 52.9869 5.16415C51.8805 5.05686 50.7846 4.84139 49.6845 4.67142C49.6097 4.65986 49.5392 4.62011 49.4667 4.59346C49.5358 4.5644 49.6028 4.52745 49.6746 4.50891C49.7269 4.49543 49.7854 4.50742 49.8411 4.50611C52.2132 4.4506 54.5859 4.41195 56.9574 4.33476C59.8084 4.24197 62.6585 4.11988 65.5086 4.00315C66.6001 3.95845 67.6902 3.88191 68.7818 3.84049C70.5129 3.7748 72.2449 3.73053 73.9763 3.66943C75.3739 3.6201 76.7709 3.55596 78.1684 3.50429C81.2416 3.39067 84.315 3.28433 87.388 3.16758C88.5629 3.12294 89.7367 3.0447 90.9118 3.00524C92.8936 2.9387 94.8763 2.89642 96.8583 2.83331C98.3116 2.78703 99.7643 2.71964 101.218 2.66911C102.949 2.6089 104.681 2.56139 106.412 2.4994C107.754 2.45136 109.095 2.37765 110.437 2.33653C112.586 2.2707 114.736 2.22707 116.885 2.16521C118.561 2.11698 120.237 2.05279 121.913 2.00027C123.783 1.94164 125.654 1.88819 127.525 1.83248C129.396 1.77678 131.267 1.71978 133.138 1.66573C135.12 1.60845 137.102 1.55477 139.084 1.49803C140.993 1.4434 142.901 1.38412 144.809 1.33187C146.958 1.27302 149.108 1.22002 151.257 1.16396C153.379 1.10862 155.5 1.05149 157.622 0.997236C159.854 0.940137 162.087 0.886057 164.32 0.829657C166.497 0.774663 168.675 0.737913 170.852 0.656362C172.513 0.594112 174.171 0.467986 175.832 0.387268C176.078 0.375318 176.329 0.493537 176.576 0.490101C180.007 0.442511 183.438 0.38945 186.868 0.326744C189.435 0.279814 192.002 0.214953 194.569 0.161931C197.387 0.103733 200.205 0.0307935 203.023 0.000185876ZM148.946 218.757C147.208 218.802 145.474 218.964 143.738 219.079C142.113 219.187 140.488 219.29 138.864 219.415C136.844 219.571 134.825 219.746 132.806 219.914C130.815 220.08 128.824 220.261 126.832 220.412C124.451 220.593 122.072 220.821 119.688 220.9C116.065 221.019 112.438 221.03 108.814 221.082C108.006 221.093 107.194 221.14 106.392 221.073C104.087 220.88 101.786 220.635 99.4834 220.416C98.2492 220.299 97.0124 220.207 95.7795 220.078C93.782 219.867 91.7916 219.551 89.7892 219.437C87.8368 219.326 85.8727 219.391 83.9143 219.419C82.3775 219.441 80.8399 219.496 79.3056 219.586C76.8673 219.729 74.4311 219.91 71.9945 220.082C69.6964 220.244 67.3989 220.414 65.1012 220.583C63.6157 220.692 62.1304 220.805 60.645 220.916C58.403 221.084 56.1609 221.25 53.9189 221.418C52.4335 221.529 50.9483 221.643 49.4627 221.751C47.1372 221.921 44.8121 222.094 42.4858 222.251C40.6393 222.375 38.7906 222.468 36.944 222.591C35.9 222.66 35.5741 223.017 35.6001 224.085C35.6145 224.676 35.7075 225.264 35.7593 225.854C35.9834 228.407 36.1881 230.962 36.4393 233.512C36.5114 234.244 36.5885 235.065 37.3587 235.437C37.8166 235.658 38.3713 235.774 38.8818 235.772C40.4462 235.765 42.01 235.643 43.5745 235.63C46.6469 235.604 49.7199 235.641 52.7923 235.618C58.3108 235.577 63.8291 235.511 69.3475 235.456C69.8582 235.451 70.3692 235.463 70.8798 235.454C73.7249 235.401 76.5698 235.324 79.4152 235.292C85.546 235.223 91.677 235.168 97.8081 235.125C100.825 235.103 103.842 235.14 106.859 235.117C112.266 235.076 117.673 235.009 123.08 234.955C123.618 234.949 124.157 234.962 124.696 234.952C127.541 234.9 130.386 234.823 133.231 234.791C139.362 234.722 145.493 234.667 151.624 234.623C154.613 234.602 157.602 234.638 160.591 234.616C166.026 234.574 171.461 234.508 176.896 234.453C177.434 234.448 177.973 234.46 178.512 234.451C181.914 234.398 185.316 234.327 188.718 234.29C191.057 234.265 193.396 234.304 195.735 234.282C200.279 234.239 204.823 234.176 209.366 234.117C210.363 234.104 211.119 233.392 211.223 232.336C211.459 229.951 211.673 227.564 211.896 225.011C211.952 224.143 212.041 223.276 212.056 222.407C212.077 221.087 211.413 220.58 210.105 220.74C207.579 221.05 205.05 221.477 202.515 221.545C198.755 221.645 194.987 221.5 191.224 221.406C189.459 221.362 187.695 221.212 185.933 221.079C183.995 220.932 182.06 220.757 180.125 220.58C178.411 220.423 176.699 220.245 174.986 220.082L171.449 219.741C170.27 219.628 169.091 219.518 167.911 219.417C165.727 219.229 163.541 219.042 161.352 218.922C159.401 218.815 157.445 218.776 155.49 218.75C153.309 218.722 151.126 218.701 148.946 218.757ZM91.9095 202.785C90.2451 202.868 88.581 202.96 86.9161 203.033C85.4078 203.1 83.8987 203.146 82.3901 203.203C80.9092 203.258 79.4284 203.316 77.9475 203.369C74.8187 203.482 71.6898 203.591 68.5611 203.705C67.1358 203.756 65.7111 203.825 64.2856 203.869C62.2201 203.933 60.1539 203.973 58.0886 204.042C57.1918 204.073 56.2909 204.105 55.4021 204.218C54.5449 204.327 53.7072 204.615 52.8494 204.688C51.7759 204.778 50.6709 204.803 49.9493 203.723C49.8972 203.645 49.4892 203.683 49.4832 203.713C49.0975 205.669 47.8185 207.062 46.4974 208.409C45.4169 209.51 44.2537 210.53 43.1512 211.61C41.7622 212.971 40.354 214.317 39.0368 215.745C38.058 216.807 37.2083 217.988 36.3085 219.121C36.2191 219.234 36.1814 219.387 36.1197 219.522C36.2788 219.541 36.4385 219.581 36.5969 219.576C38.2729 219.526 39.9488 219.473 41.6244 219.411C42.9106 219.363 44.1959 219.293 45.4822 219.247C47.297 219.184 49.1135 219.16 50.9269 219.07C52.3032 219.001 53.6749 218.843 55.0502 218.747C57.5704 218.57 60.0921 218.416 62.6124 218.24C64.0154 218.142 65.4201 218.051 66.818 217.901C68.5951 217.71 70.3644 217.447 72.1405 217.245C73.3723 217.106 74.6113 217.031 75.8445 216.903C77.87 216.691 79.8894 216.402 81.9192 216.257C83.3419 216.155 84.7781 216.216 86.2075 216.244C87.6053 216.271 89.0081 216.288 90.398 216.42C92.0111 216.575 93.6113 216.861 95.2197 217.07C96.6245 217.252 98.0363 217.383 99.439 217.58C101.249 217.834 103.051 218.139 104.86 218.405C105.323 218.473 105.797 218.476 106.265 218.509C105.882 218.115 105.537 217.672 105.109 217.336C102.966 215.652 101.219 213.582 99.6308 211.415C98.1883 209.446 97.026 207.27 95.756 205.176C94.8901 203.749 93.8714 202.578 91.9095 202.785ZM199.207 201.685C197.873 201.813 196.526 201.821 195.184 201.863C193.119 201.928 191.053 201.982 188.987 202.032C186.476 202.092 183.965 202.16 181.453 202.197C176.881 202.264 172.309 202.312 167.737 202.366C167.115 202.373 166.492 202.358 165.87 202.369C162.913 202.421 159.957 202.478 156.833 202.534H139.731C134.524 202.534 129.316 202.512 124.108 202.556C123.276 202.563 122.443 202.874 122.036 203.745C121.317 205.285 120.676 206.864 119.894 208.371C118.049 211.928 115.439 214.899 112.499 217.575C111.88 218.138 112.302 218.321 112.647 218.379C113.279 218.486 113.945 218.45 114.591 218.402C116.585 218.256 118.576 218.078 120.567 217.908C122.475 217.744 124.383 217.57 126.291 217.408C128.338 217.236 130.386 217.077 132.433 216.905C134.342 216.743 136.248 216.546 138.158 216.411C140.872 216.219 143.588 216.045 146.305 215.914C147.621 215.851 148.943 215.862 150.26 215.913C152.193 215.987 154.123 216.115 156.054 216.24C158.436 216.395 160.817 216.572 163.199 216.739C164.796 216.85 166.393 216.96 167.99 217.073C170.343 217.239 172.697 217.406 175.051 217.574C176.592 217.685 178.133 217.799 179.675 217.908C181.299 218.022 182.924 218.129 184.549 218.243C186.09 218.352 187.631 218.478 189.173 218.574C191.187 218.698 193.203 218.896 195.217 218.887C197.817 218.875 200.422 218.757 203.014 218.556C205.357 218.375 207.688 218.028 210.022 217.738C211.233 217.587 211.685 216.691 211.057 215.668C208.726 211.87 206.358 208.093 204.049 204.281C202.93 202.433 201.424 201.473 199.207 201.685ZM106.702 110.125C106.584 110.463 106.503 110.821 106.341 111.137C105.788 112.218 105.199 113.281 104.637 114.358C103.349 116.826 102.071 119.261 99.7265 120.992C98.1986 122.12 96.4086 122.964 95.3179 124.65C94.9963 125.148 94.4308 125.485 94.0969 125.977C93.4996 126.858 93.0226 127.819 92.4438 128.713C90.1998 132.178 88.149 135.734 86.9516 139.723C86.0242 142.812 85.3648 145.944 85.3988 149.186C85.4165 150.862 85.4556 152.541 85.5742 154.212C85.6723 155.594 85.8919 156.969 86.0745 158.344C86.3405 160.348 86.6694 162.345 86.8731 164.355C86.9568 165.181 86.6943 166.039 86.7491 166.872C86.8438 168.312 86.9825 169.758 87.2477 171.174C87.7534 173.875 88.3293 176.564 88.9354 179.245C89.5556 181.988 90.2639 184.711 90.9029 187.451C91.8809 191.643 93.3099 195.676 95.1946 199.542C97.0953 203.44 99.3617 207.127 101.937 210.613C103.167 212.277 104.447 213.934 105.91 215.387C107.537 217.005 109.661 217.321 111.37 215.394C112.421 214.208 113.418 212.971 114.385 211.715C116.493 208.975 118.567 206.209 120.65 203.451C120.724 203.353 120.757 203.223 120.809 203.109C120.68 203.084 120.552 203.056 120.422 203.036C119.427 202.882 118.407 202.822 117.442 202.56C114.267 201.7 111.715 199.715 109.147 197.787C106.719 195.963 104.331 194.085 101.914 192.245C101.529 191.952 101.168 191.945 100.877 192.467C100.082 193.895 99.2519 195.305 98.4216 196.713C98.2835 196.948 98.076 197.141 97.9005 197.354C97.6861 197.092 97.4283 196.855 97.2648 196.564C96.6501 195.472 97.2717 194.461 97.5745 193.466C98.2138 191.365 98.6876 189.254 98.5985 187.039C98.5211 185.114 98.4196 183.186 98.4488 181.261C98.4686 179.953 98.948 178.667 100.077 177.984C100.936 177.464 100.81 176.858 100.727 176.187C100.43 173.784 99.9377 171.395 99.8015 168.984C99.6259 165.877 99.7043 162.754 100.265 159.503C100.321 159.137 100.357 158.767 100.436 158.406C100.805 156.722 101.1 155.016 101.583 153.365C102.249 151.089 103.019 148.84 103.822 146.608C104.283 145.328 106.432 140.984 106.278 142.287C106.213 143.004 105.314 146.487 104.789 148.157C103.974 150.747 103.163 153.344 102.482 155.972C101.66 159.148 101.043 162.371 101.105 165.678C101.138 167.466 101.187 169.254 101.275 171.039C101.35 172.554 101.489 174.067 101.603 175.58C101.642 176.093 102.014 176.473 102.297 176.295C102.829 175.962 103.355 175.619 103.879 175.273C106.522 173.529 108.858 171.425 111.019 169.124C111.433 168.683 111.947 168.214 112.095 167.67C112.528 166.081 112.838 164.455 113.12 162.83C113.349 161.517 113.467 160.185 113.634 158.862C113.912 156.666 114.3 154.476 114.427 152.272C114.498 151.046 114.105 149.798 113.977 148.554C113.851 147.331 113.861 146.092 113.696 144.876C113.45 143.072 113.18 141.264 112.772 139.493C112.484 138.245 112.145 136.933 111.485 135.862C110.145 133.688 108.483 131.713 107.124 129.55C106.067 127.869 105.15 126.032 104.981 124.023C104.813 122.022 104.875 119.993 104.992 117.985C105.022 117.463 105.533 116.732 106.004 116.538C106.503 116.333 106.92 116.958 107.123 117.525C107.426 118.372 107.771 119.205 108.1 120.044C108.134 120.131 108.178 120.215 108.217 120.301C108.24 120.199 108.288 120.095 108.28 119.996C108.27 119.869 108.209 119.748 108.179 119.622C107.751 117.789 107.246 115.977 107.263 114.061C107.272 113.106 107.072 112.147 106.944 111.193C106.896 110.832 106.785 110.48 106.702 110.125ZM86.8621 184.476C85.97 184.566 85.0723 184.605 84.1761 184.651C82.9468 184.715 81.717 184.77 80.4871 184.819C77.638 184.934 74.7888 185.043 71.7725 185.154C69.4244 185.266 67.0772 185.405 64.7279 185.481C62.0516 185.569 59.3735 185.634 56.696 185.638C55.7104 185.64 54.723 185.453 53.7388 185.333C52.4167 185.172 51.1012 184.915 49.7749 184.84C48.2464 184.754 47.8108 185.254 47.7907 186.784C47.752 189.734 47.7051 192.686 48.6318 195.54C49.0055 196.692 49.2666 197.921 49.8642 198.949C50.7591 200.488 52.3607 201.164 54.0681 201.165C57.2234 201.167 60.3789 200.976 63.5342 200.862C64.9868 200.81 66.4391 200.75 67.8915 200.696C70.9077 200.584 73.924 200.475 76.9401 200.361C78.2814 200.31 79.6218 200.233 80.9634 200.198C83.6126 200.13 86.2625 200.086 88.9119 200.026L89.1052 200.021C90.4582 199.987 91.7984 199.955 92.595 201.429C92.6655 201.559 93.0697 201.509 93.3189 201.543C93.3359 201.329 93.432 201.082 93.3576 200.908C92.71 199.395 92.0372 197.891 91.3618 196.39C89.7143 192.726 88.5159 188.913 87.5648 185.017C87.4748 184.649 87.3145 184.43 86.8621 184.476ZM110.037 174.653C108.06 175.671 106.083 176.7 104.186 177.854C103.341 178.369 102.581 179.116 101.979 179.908C101.514 180.519 101.349 181.361 101.061 182.104C100.305 184.051 100.913 185.83 101.974 187.405C103.628 189.862 105.493 192.175 107.787 194.087C109.199 195.265 119.485 202.369 123.287 199.144C123.814 198.696 124.037 198.012 124.345 197.411C125.602 194.955 127.633 192.878 128.056 190.018C128.225 188.874 128.375 187.695 128.279 186.554C128.167 185.233 127.769 183.937 127.507 182.628C127.334 181.768 127.285 180.855 126.427 180.32C126.318 180.251 126.199 180.2 126.084 180.141C126.056 180.269 125.986 180.404 126.007 180.523C126.264 182.016 126.417 183.5 126.934 184.976C127.557 186.753 127.235 188.666 126.507 190.453C126.183 191.247 125.063 191.626 124.298 191.534C122.166 191.277 120.394 190.231 118.849 188.779C116.669 186.729 115.309 184.169 114.219 181.311C113.968 180.579 113.728 179.844 113.465 179.117C113.027 177.907 112.632 176.677 112.112 175.503C111.703 174.577 110.851 174.233 110.037 174.653ZM147.436 95.1151C147.504 95.3249 147.533 95.5595 147.647 95.7405C148.331 96.8248 149.149 97.0093 149.707 98.1529C150.994 100.789 151.952 102.713 153.082 105.42C153.518 106.467 153.563 107.834 153.926 109.564C153.94 109.628 154.131 109.809 154.269 109.89C154.985 110.31 155.761 110.645 156.421 111.137C158.31 112.546 158.914 114.101 158.341 116.107C157.329 119.645 156.128 117.876 156.848 115.765C157.141 114.906 156.923 114.029 156.246 113.404C156.02 113.196 155.008 112.686 153.759 112.106C153.64 112.051 153.727 112.435 153.223 113.453C153.072 113.757 152.488 114.636 152.321 114.19C152.037 113.428 152.564 111.56 152.321 111.452L152.062 111.337C150.074 110.455 148.082 109.633 147.838 109.603C147.095 109.51 146.405 109.874 146.398 111.202C146.381 114.453 145.092 117.08 142.621 119.15C140.423 120.992 137.973 121.954 135.035 121.502C132.884 121.171 131.048 120.27 129.454 118.833C128.05 117.566 126.986 116.068 126.507 114.209C126.392 113.762 126.268 113.791 125.96 114.076C124.427 115.496 123.414 117.224 122.839 119.22C122.771 119.457 122.757 119.71 122.717 119.956C122.979 119.933 123.252 119.948 123.502 119.88C124.225 119.684 124.939 119.454 125.657 119.238C125.751 119.21 125.847 119.193 125.942 119.171C125.906 119.251 125.862 119.329 125.835 119.412C125.5 120.442 124.758 121.089 123.781 121.432C122.689 121.816 121.032 120.755 121.343 119.659C121.565 118.874 121.956 118.13 122.328 117.397C122.972 116.13 123.66 114.885 124.413 113.631C124.484 113.423 124.555 113.216 124.627 113.009C124.472 113.16 124.317 113.312 124.079 113.463C123.96 113.637 123.874 113.849 123.719 113.979C121.572 115.789 119.177 116.775 116.284 116.501C114.634 116.344 113.197 115.765 111.838 114.914C110.689 114.195 109.454 114.629 109.323 115.966C109.231 116.898 109.327 117.895 109.564 118.805C110.329 121.753 111.149 124.672 112.407 127.484C113.333 129.553 114.623 130.985 116.728 131.666C118.305 132.176 119.898 132.682 121.522 132.987C123.472 133.353 125.451 133.339 127.415 132.869C128.843 132.527 130.306 132.331 131.738 132.002C133.128 131.683 134.58 131.455 135.862 130.873C138.979 129.459 144.528 124.817 147.034 122.508C147.152 122.399 147.27 122.289 147.388 122.179C147.412 122.336 147.465 122.496 147.454 122.651C147.358 124.102 143.704 127.568 142.398 128.198C142.148 128.319 142.079 128.816 141.926 129.139C142.205 129.261 142.481 129.473 142.763 129.483C143.084 129.494 143.408 129.309 143.738 129.244C143.829 129.227 144.025 129.321 144.036 129.386C144.115 129.888 144.2 130.395 144.208 130.902C144.23 132.331 144.243 133.762 144.2 135.191C144.186 135.677 144.045 136.177 143.873 136.637C142.719 139.723 141.472 142.776 140.393 145.887C139.41 148.717 138.49 151.579 137.754 154.481C137.222 156.575 136.836 158.748 136.744 160.901C136.616 163.893 136.565 166.896 137.165 169.887C137.829 173.197 139.089 176.231 140.885 179.044C142.833 182.094 144.86 185.095 146.917 188.072C147.425 188.808 147.957 189.598 148.854 189.978C149.083 190.075 149.683 189.96 150.01 189.763C150.371 189.546 150.49 189.17 150.249 188.668C149.424 186.951 148.668 185.202 147.893 183.462C146.762 180.923 145.627 178.386 144.513 175.84C142.591 171.444 141.849 166.786 141.75 162.046C141.692 159.279 142.019 156.502 142.22 153.734C142.336 152.128 142.484 150.52 142.725 148.93C143.12 146.322 143.644 143.734 144.038 141.126C144.464 138.301 145.181 135.571 146.596 133.078C147.659 131.208 149.046 129.584 151.059 128.684C153.49 127.598 155.78 126.39 157.477 124.217C159.058 122.192 160.017 119.936 160.233 117.423C160.516 114.127 159.742 111.061 157.745 108.357C156.066 106.083 154.473 103.763 153.223 101.209C151.958 98.6246 150.515 96.9715 147.957 95.3941C147.789 95.291 147.61 95.2076 147.436 95.1151ZM105.882 117.994C105.792 118.251 105.637 118.504 105.623 118.765C105.492 121.168 105.845 123.53 106.648 125.773C107.336 127.696 108.164 129.61 109.551 131.164C110.647 132.392 111.373 133.935 112.759 134.916C112.883 135.004 112.913 135.237 112.964 135.409C113.41 136.919 113.896 138.419 114.28 139.944L114.382 140.354C114.701 141.651 114.974 142.964 114.807 144.325C114.784 144.517 114.785 144.717 114.807 144.909C115.081 147.329 115.353 149.749 115.642 152.167C115.877 154.136 115.171 155.99 114.964 157.905C114.833 159.121 114.653 160.332 114.465 161.541C114.262 162.844 114.043 164.146 113.796 165.442C113.541 166.779 113.362 168.149 112.919 169.425C112.676 170.125 112.757 170.633 112.997 171.24C113.506 172.534 113.956 173.851 114.475 175.14C115.685 178.148 116.839 181.182 118.173 184.135C119.186 186.38 120.957 187.913 123.369 188.623C124.538 188.967 125.589 188.557 125.788 187.599C125.883 187.138 125.829 186.618 125.722 186.152C125.615 185.688 125.234 185.27 125.188 184.811C125.064 183.559 125.053 182.297 124.998 181.039C124.989 180.818 125.003 180.596 124.98 180.377C124.823 178.856 124.648 177.337 124.499 175.815C124.365 174.437 124.289 173.051 124.126 171.676C123.952 170.2 123.685 168.736 123.502 167.261C123.399 166.427 123.424 165.576 123.318 164.742C123.127 163.243 122.822 161.756 122.672 160.254C122.451 158.045 122.305 155.827 122.162 153.611C122.026 151.487 121.877 149.36 121.836 147.233C121.781 144.309 121.775 141.383 121.849 138.46C121.874 137.478 122.175 136.495 122.421 135.53C122.525 135.122 122.491 135.06 122.066 135.004C120.704 134.826 119.334 134.652 118 134.335C115.778 133.808 113.968 132.616 112.806 130.604C111.576 128.473 110.403 126.308 109.122 124.075C108.846 123.688 108.549 123.313 108.299 122.91C107.835 122.164 107.332 121.43 106.971 120.634C106.696 120.028 106.649 119.322 106.432 118.684C106.342 118.422 106.071 118.222 105.882 117.994ZM144.816 92.0696C144.739 92.078 144.662 92.1006 144.585 92.1166C144.64 92.1953 144.679 92.2986 144.753 92.3491C145.686 92.9842 146.632 93.6002 147.559 94.2435C149.604 95.6624 151.36 96.5487 152.732 98.6279C154.43 101.203 156.096 103.801 157.747 106.407C159.324 108.896 160.808 111.393 161.137 114.455C161.355 116.478 161.246 118.425 160.646 120.319C159.297 124.58 156.439 127.576 152.354 129.253C149.478 130.433 147.798 132.573 146.752 135.299C146.133 136.913 145.752 138.627 145.368 140.32C144.874 142.494 144.44 144.683 144.063 146.88C143.77 148.585 143.571 150.309 143.388 152.031C143.134 154.414 142.78 156.8 142.754 159.188C142.729 161.651 142.955 164.128 143.243 166.578C143.462 168.448 143.838 170.317 144.34 172.133C145.725 177.149 148.303 181.639 150.738 186.186C151.139 186.935 151.963 187.112 152.444 186.478C152.73 186.101 152.897 185.421 152.769 184.978C152.114 182.724 151.285 180.521 150.632 178.267C149.615 174.756 148.689 171.218 147.725 167.524C147.669 167.464 147.574 167.41 147.564 167.342C147.333 165.876 147.09 164.412 146.895 162.941C146.649 161.088 146.282 159.23 146.259 157.371C146.225 154.579 146.314 151.77 146.597 148.994C146.815 146.867 147.304 144.748 147.868 142.68C148.869 139.005 150.476 135.584 152.75 132.513C153.647 131.302 154.641 130.158 155.648 129.035C156.875 127.666 158.341 126.477 159.384 124.986C161.374 122.141 162.232 118.832 162.396 115.397C162.482 113.587 162.403 111.721 162.049 109.95C161.573 107.571 160.872 105.22 160.065 102.928C158.788 99.2983 156.838 96.0914 153.667 93.7419C151.022 91.7825 148.103 91.7127 144.816 92.0696ZM145.771 87.4296C144.398 87.3898 143.013 88.555 141.637 88.7424C141.582 88.7498 141.489 89.0214 141.532 89.1184C141.927 90.0219 142.735 90.5036 143.603 90.7044C145.22 91.0784 146.874 90.4656 148.515 90.7346C152.393 91.3704 155.295 93.6462 157.71 96.52C159.726 98.9192 161.072 101.768 161.853 104.812C162.439 107.095 163.022 109.417 163.207 111.754C163.408 114.289 163.374 116.854 162.799 119.403C162.107 122.474 160.816 125.176 158.687 127.479C157.582 128.673 156.418 129.814 155.329 131.022C153.77 132.753 152.507 134.696 151.4 136.743C150.17 139.02 149.189 141.394 148.461 143.882C147.644 146.67 147.139 149.52 147.097 152.406C147.063 154.729 147.335 157.063 147.576 159.381C147.765 161.196 148.038 163.011 148.41 164.798C149.075 167.991 149.784 171.178 150.584 174.34C151.211 176.815 151.975 179.266 153.229 181.508C153.528 182.043 154.134 182.679 154.666 182.748C155.521 182.859 156.812 180.743 156.576 179.885C156.245 178.685 155.913 177.486 155.579 176.288C154.482 172.355 153.979 168.312 153.795 164.264C153.642 160.897 153.89 157.504 154.103 154.131C154.233 152.065 154.539 149.997 154.935 147.963C155.383 145.666 156.032 143.408 156.571 141.128C157.225 138.359 158.734 135.952 159.827 133.369C161.03 130.526 162.332 127.722 163.464 124.851C164.403 122.467 164.948 119.97 165.304 117.416C165.603 115.274 165.756 113.127 165.395 111.027C164.991 108.678 164.315 106.368 163.636 104.078C162.72 100.992 161.654 97.9482 161.762 94.4962C161.827 93.0527 160.949 92.1581 159.895 91.4123C158.163 90.1865 156.136 89.6028 154.165 88.9142C151.451 87.9658 148.627 87.5124 145.771 87.4296ZM84.9002 172.21C84.017 173.786 83.164 175.379 82.217 177.05C82.0993 177.279 81.981 177.507 81.8641 177.737C81.3087 178.827 80.3839 179.818 81.1589 181.219C81.3249 181.518 81.3675 181.673 81.7269 181.652C83.0086 181.578 84.3011 181.605 85.5699 181.441C86.04 181.38 86.6994 180.983 86.8365 180.588C87.0213 180.056 86.8179 179.372 86.7211 178.762C86.5856 177.91 86.3814 177.068 86.2332 176.217C86.1548 175.767 86.1057 175.308 86.091 174.852C86.0621 173.948 86.1515 173.063 85.4999 172.255C85.1925 171.874 85.0638 171.918 84.9002 172.21ZM162.936 96.1444C163.039 97.2683 163.011 98.43 163.3 99.5059C163.976 102.025 164.847 104.492 165.562 107.002C166.151 109.068 166.644 111.165 166.602 113.338C166.582 114.402 166.495 115.464 166.442 116.527C166.322 118.937 165.681 121.24 164.98 123.526C163.555 128.175 161.255 132.454 159.337 136.896C158.502 138.832 157.822 140.853 157.282 142.891C156.698 145.093 156.3 147.35 155.932 149.601C155.621 151.5 155.302 153.422 155.279 155.338C155.233 159.358 155.045 163.388 155.575 167.398C155.771 168.885 155.913 170.379 156.081 172.036C156.359 173.871 156.584 175.716 156.953 177.532C157.048 178.003 157.534 178.669 157.941 178.752C159.278 179.025 160.364 178.388 160.916 177.121C161.756 175.191 162.377 173.272 161.809 171.052C161.26 168.906 161.04 166.669 160.774 164.459C160.487 162.071 160.232 159.673 160.113 157.272C159.982 154.604 160.006 151.918 160.61 149.296C161.058 147.354 161.568 145.414 162.22 143.532C163.393 140.151 164.823 136.856 165.908 133.45C167.347 128.937 168.071 124.259 168.423 119.54C168.566 117.62 168.423 115.679 168.453 113.748C168.495 110.949 168.273 108.172 167.774 105.42C167.465 103.716 167.208 101.993 166.75 100.327C166.229 98.4329 165.128 96.9073 163.363 95.897C162.891 95.6264 162.903 95.7943 162.936 96.1444ZM167.84 99.7823C167.875 99.9978 167.91 100.213 167.946 100.512C168.335 102.718 168.829 104.911 169.088 107.132C169.376 109.61 169.542 112.112 169.587 114.607C169.623 116.563 169.454 118.529 169.266 120.481C169.059 122.628 168.845 124.787 168.418 126.896C167.829 129.802 167.156 132.703 166.296 135.538C165.52 138.094 164.467 140.568 163.491 143.06C161.743 147.525 160.901 152.139 161.089 156.936C161.121 157.743 161.029 158.558 161.107 159.358C161.289 161.246 161.514 163.132 161.771 165.012C161.939 166.238 162.236 167.446 162.397 168.673C162.568 169.981 162.862 171.331 162.69 172.607C162.573 173.473 162.968 173.99 163.221 174.629C163.289 174.802 163.658 174.927 163.899 174.947C164.559 175.001 165.6 174.044 165.944 173.18C166.811 170.998 167.03 168.695 167.074 166.395C167.101 165.02 166.745 163.641 166.616 162.259C166.43 160.274 166.118 158.279 166.182 156.299C166.26 153.898 166.576 151.492 166.972 149.118C167.335 146.935 167.755 144.729 168.476 142.645C170.206 137.646 171.24 132.535 171.446 127.258C171.552 124.554 171.584 121.847 171.612 119.141C171.621 118.246 171.502 117.35 171.457 116.454C171.393 115.169 171.422 113.873 171.27 112.599C170.997 110.308 170.789 107.987 170.233 105.758C169.761 103.867 168.837 102.089 168.113 100.178C168.022 100.046 167.931 99.9142 167.84 99.7823ZM172.013 108.477C171.938 108.585 171.826 108.684 171.798 108.804C171.761 108.962 171.776 109.137 171.791 109.303C171.955 111.099 172.17 112.892 172.278 114.692C172.391 116.586 172.395 118.487 172.464 120.384C172.476 120.725 172.569 121.062 172.625 121.568C172.569 123.021 172.556 124.477 172.448 125.925C172.259 128.48 172.161 131.056 171.747 133.577C171.331 136.113 170.72 138.64 169.94 141.089C168.637 145.18 167.562 149.313 167.312 153.599C167.174 155.959 167.346 158.342 167.456 160.71C167.571 163.186 167.762 165.66 167.955 168.131C168.015 168.893 168.095 169.68 168.348 170.389C168.534 170.91 169.018 171.324 169.369 171.786C169.835 171.319 170.462 170.93 170.73 170.369C171.227 169.33 171.609 168.212 171.862 167.087C172.159 165.769 172.389 164.413 172.419 163.068C172.443 162 172.023 160.929 171.978 159.851C171.899 157.952 171.891 156.044 171.973 154.145C172.066 152.012 172.248 149.88 172.469 147.755C172.695 145.582 173.03 143.42 173.289 141.251L173.543 139.132C173.754 137.366 173.957 135.599 174.115 133.829C174.294 131.821 174.428 129.802 174.444 127.788C174.465 125.111 174.379 122.432 174.286 119.756C174.226 118.018 174.113 116.28 173.951 114.549C173.76 112.509 173.163 110.577 172.189 108.768C172.136 108.668 172.072 108.574 172.013 108.477ZM211.853 156.946C213.357 157.294 214.866 157.618 216.382 157.906C217.245 158.069 218.126 158.138 219.082 158.249C221.212 158.417 223.256 158.674 225.306 158.731C229.165 158.838 232.925 158.209 236.562 156.892C236.609 156.875 236.641 156.783 236.681 156.782C237.035 156.772 237.389 156.774 237.742 156.773C237.506 156.987 237.298 157.247 237.03 157.406C235.026 158.595 232.89 159.37 230.576 159.786C228.001 160.248 225.418 160.179 222.861 160.035C220.044 159.876 217.237 159.472 214.464 158.794C212.113 158.218 209.85 157.452 207.617 156.556C207.476 156.5 207.353 156.402 207.222 156.323C207.35 156.297 207.479 156.274 207.606 156.244C209.121 155.884 210.451 156.622 211.853 156.946ZM213.16 135.7C214.077 136.035 214.988 136.39 215.89 136.766C216.435 136.993 216.96 137.272 217.536 137.569C220.125 138.731 222.743 139.568 225.499 140.071C228.129 140.55 230.76 140.616 233.394 140.5C235.047 140.428 236.685 140.01 238.331 139.758C238.532 139.727 238.743 139.761 238.949 139.765C238.824 139.958 238.744 140.229 238.567 140.333C236.819 141.355 234.966 142.047 232.919 142.216C228.013 142.621 223.416 141.394 218.995 139.478C216.915 138.577 214.997 137.302 213.014 136.183C212.846 136.088 212.736 135.889 212.599 135.738C212.787 135.722 212.999 135.641 213.16 135.7ZM83.6202 135.707C83.4835 136.01 83.3645 136.324 83.2064 136.616C82.8838 137.212 82.358 137.754 82.5588 138.506C82.8643 139.65 83.2166 140.783 83.5631 141.916C83.5805 141.973 83.806 142.026 83.8102 142.018C83.9024 141.835 83.9772 141.644 84.0552 141.288C84.2117 141.02 84.3186 140.698 84.5368 140.497C84.835 140.222 84.8743 140.01 84.7406 139.618C84.3997 138.618 84.1425 137.59 83.8539 136.573C83.7723 136.286 83.6979 135.996 83.6202 135.707ZM85.4845 131.353C85.398 131.45 85.2823 131.533 85.2298 131.646C84.9162 132.319 84.5266 132.974 84.3318 133.682C83.9107 135.212 84.6372 136.634 84.8908 138.1C85.0022 138.049 85.1704 138.028 85.2163 137.941C85.6988 137.035 86.2022 136.135 86.6086 135.194C86.7525 134.861 86.7449 134.388 86.6318 134.035C86.4696 133.529 86.1474 133.074 85.8935 132.431C85.8378 132.204 85.798 131.972 85.7207 131.754C85.67 131.61 85.5651 131.486 85.4845 131.353ZM87.4266 123.49C87.3612 123.663 87.2358 123.838 87.24 124.01C87.2705 125.25 86.9273 126.388 86.4816 127.536C86.2016 128.257 86.0431 129.016 86.1661 129.888C86.2974 130.818 86.901 131.331 87.323 132.009C87.5137 132.316 87.7884 132.57 88.025 132.848C88.2336 132.57 88.4422 132.291 88.7344 131.929C89.0683 131.317 89.4175 130.712 89.7328 130.091C90.433 128.71 90.4256 128.707 89.3179 127.498C89.2279 127.399 89.1468 127.292 89.0693 127.184C88.3773 126.215 87.9931 125.126 87.7739 123.964C87.7411 123.791 87.5464 123.647 87.4266 123.49ZM89.8018 117.994C89.7233 118.128 89.6375 118.259 89.5676 118.397C89.2314 119.064 88.9656 119.777 88.5508 120.389C87.9093 121.337 88.3577 122.221 88.5717 123.123C88.9575 124.749 89.4786 126.32 90.6028 127.616C90.8625 127.915 90.8595 127.917 91.1575 127.334C91.7072 126.561 92.2379 125.774 92.815 125.023C93.085 124.671 93.327 124.45 92.8785 124.007C92.3753 123.51 91.8924 122.931 91.5988 122.296C91.0072 121.016 90.5522 119.674 90.0337 118.361C89.9816 118.229 89.8803 118.116 89.8018 117.994ZM113.826 123.353C114.413 123.625 114.984 123.982 115.472 124.408C116.827 125.59 118.37 126.126 120.161 126.007C120.411 125.99 125.734 125.722 125.336 126.406C125.064 126.872 121.045 127.646 120.584 127.652C118.732 127.677 116.51 126.792 115.58 126.406C115.204 126.25 112.436 124.583 112.956 123.605C113.157 123.227 113.619 123.258 113.826 123.353ZM92.4234 113.869C92.1407 114.304 91.7362 114.705 91.6064 115.182C91.447 115.767 90.8795 116.225 91.0719 116.916C91.4686 118.34 91.7742 119.795 92.2727 121.182C92.5867 122.055 93.1806 122.828 93.6626 123.638C93.6733 123.656 93.8919 123.606 93.9403 123.537C94.595 122.6 95.4742 121.949 96.5887 121.401C96.8699 121.206 97.1349 120.98 97.4364 120.824C97.7901 120.642 97.747 120.6 97.4308 120.386C95.4247 119.028 94.0338 117.137 92.9168 115.025C92.7215 114.656 92.5863 114.255 92.4234 113.869ZM0.0427991 97.6264C0.101866 97.7154 0.155098 97.809 0.220858 97.8928C1.85411 99.9736 3.4892 102.053 5.12221 104.134C5.28595 104.343 5.43841 104.56 5.63789 104.815C7.27467 106.508 8.79584 108.239 10.4836 109.789C12.5299 111.667 14.7086 113.403 16.8457 115.182C18.3844 116.462 19.9208 117.78 21.8297 118.472C23.0453 118.913 24.3192 119.337 25.5937 119.441C28.4338 119.674 31.2935 119.658 34.139 119.841C35.0022 119.896 35.8485 120.259 36.6929 120.513C36.818 120.551 37.1755 120.751 36.6273 120.832C35.0375 121.066 33.4657 121.433 31.8723 121.63C30.9029 121.75 29.9064 121.664 28.9224 121.65C26.3896 121.612 23.9977 120.964 21.6637 120.015C18.6903 118.807 16.0276 117.111 13.6432 114.981C12.0053 113.518 10.2963 112.106 8.84109 110.473C6.24272 107.558 3.76673 104.53 1.33755 101.471C0.555413 100.486 0.0542611 99.2658 0.000388367 97.9418C-0.00385962 97.8374 0.0278187 97.7315 0.0427991 97.6264ZM94.8693 109.599C94.1301 110.531 93.1828 111.408 93.4328 112.747C93.6122 113.708 93.9521 114.641 94.2529 115.576C94.9047 117.602 96.5766 118.743 98.1391 119.968C98.2225 120.033 98.51 119.967 98.6066 119.868C99.9148 118.529 101.206 117.174 102.502 115.823C102.75 115.564 103.1 115.34 102.356 115.279C101.855 115.239 101.373 114.979 100.879 114.832C100.259 114.647 99.6343 114.476 98.8447 114.299C98.261 113.771 97.7276 113.169 97.0826 112.732C95.9854 111.988 95.3063 111.021 95.0763 109.722C95.0667 109.668 94.8773 109.589 94.8693 109.599ZM135.29 103.943L134.718 104.134C133.258 104.622 131.811 105.142 130.639 106.23C129.295 107.478 128.606 109.083 128.184 110.809C128.099 111.157 128.04 111.504 128.008 111.846C128.038 111.718 128.076 111.594 128.118 111.48C128.23 111.172 128.513 110.919 128.744 110.663L128.838 110.561C129.292 110.074 129.781 109.702 130.514 110.179C131.321 110.705 130.965 111.36 130.739 112.001C130.663 112.217 130.548 112.419 130.409 112.67C130.033 113.292 129.518 113.63 128.877 113.434C128.528 113.328 128.14 112.976 128.009 112.642C127.999 112.615 127.99 112.588 127.983 112.56C128.009 113.735 128.389 114.847 129.196 115.832C129.901 116.693 130.761 117.445 131.628 118.152C133.727 119.865 136.084 120.165 138.471 118.923C141.512 117.339 143.025 114.471 144.383 111.374C144.468 110.68 144.661 109.978 144.615 109.292C144.526 107.945 143.658 106.993 142.682 106.18C140.542 104.397 138.272 102.942 135.29 103.943ZM98.0056 103.44C97.8118 103.666 97.6047 103.881 97.4298 104.121C97.342 104.241 97.302 104.401 97.2588 104.548C96.866 105.887 96.3938 107.209 96.1177 108.572C95.9446 109.426 96.168 110.314 96.7558 111.207C97.4212 111.681 98.0854 112.156 98.7524 112.627C100.098 113.578 101.686 113.883 103.235 114.278C103.361 114.311 103.664 114.082 103.712 113.923C104.145 112.477 104.54 111.021 104.934 109.564C104.942 109.535 104.806 109.431 104.73 109.421C103.365 109.24 102.016 109.162 100.861 108.171C99.5984 107.087 98.8233 105.754 98.2617 104.244C98.1637 103.981 98.0903 103.708 98.0056 103.44ZM113.766 97.5798C112.149 97.8494 111.086 99.0319 110.157 100.311C109.02 101.876 108.379 103.646 108.316 105.552C108.264 107.134 108.715 108.655 109.449 110.083L109.565 110.31C110.011 111.178 110.463 112.005 111.426 112.47C113.81 113.621 116.309 114.004 118.907 113.609C119.685 113.49 120.595 113.308 121.148 112.819C123.269 110.948 124.444 108.538 124.747 105.609C124.719 104.975 124.729 104.337 124.656 103.709C124.441 101.832 123.455 100.404 121.999 99.2572C120.719 98.2488 119.222 97.6709 117.658 97.4634C116.384 97.2946 115.038 97.3674 113.766 97.5798ZM117.814 85.6408C116.948 88.252 116.087 90.8649 115.239 93.4822C115.428 93.4442 115.628 93.3696 115.785 93.4227C116.727 93.7422 117.633 94.1249 118.369 94.846C118.783 95.2517 119.29 95.5628 119.797 95.9584C119.905 96.0498 120.011 96.1359 120.114 96.2195C120.177 96.2355 120.239 96.2529 120.301 96.2705C122.198 96.8077 123.834 97.8105 124.999 99.4688C126.556 101.686 126.934 104.274 127.337 106.855C127.357 106.986 127.373 107.119 127.391 107.25C127.525 107.192 127.682 107.159 127.79 107.068C128.002 106.89 128.19 106.682 128.385 106.483C129.904 104.925 131.609 103.589 133.571 102.664C135.658 101.68 137.805 101.437 140.063 102.335C141.759 103.009 143.12 104.093 144.445 105.265C145.022 105.776 147.737 107.07 152.59 109.148C151.797 105.796 150.979 103.388 150.138 101.924C149.077 100.079 147.882 98.6701 146.392 97.2917C143.788 94.8839 141.065 92.6714 138.042 90.8023C134.862 88.8359 131.425 87.5308 127.846 86.5712C125.331 85.8969 122.782 85.3492 120.251 84.7325C119.145 84.4632 118.082 84.8346 117.814 85.6408ZM101.296 100.273C99.9667 101.174 98.9063 102.711 99.5098 104.603C100.179 106.701 102.545 108.514 104.79 108.594C105.003 108.602 105.329 108.334 105.426 108.116C105.696 107.506 105.888 106.859 106.076 106.216C106.111 106.094 105.989 105.796 105.935 105.795C104.51 105.764 103.6 104.852 102.605 103.854C101.962 102.803 101.523 101.693 101.588 100.428C101.591 100.378 101.342 100.242 101.296 100.273ZM31.5724 102.524C32.3108 102.891 33.0463 103.27 33.7529 103.695C35.2231 104.578 36.6439 105.549 38.1457 106.373C38.9463 106.812 39.8766 107.012 40.7409 107.341C40.9315 107.413 41.0902 107.569 41.2636 107.687C41.0849 107.774 40.875 107.827 40.7325 107.954C39.6938 108.884 38.7168 108.024 37.747 107.824C35.7436 107.409 34.3436 106.035 32.9607 104.565C32.3529 104.013 31.7776 103.512 31.2274 102.985C31.0953 102.858 31.0466 102.645 30.9596 102.472C31.1656 102.485 31.4018 102.439 31.5724 102.524ZM111.037 104.055C111.741 104.353 111.679 104.919 111.641 105.467C111.578 106.375 110.342 107.561 109.551 107.415C109.268 107.363 108.844 106.934 108.851 106.687C108.868 106.047 109.088 105.411 109.269 104.732C109.39 104.611 109.469 104.534 109.547 104.454C109.963 104.024 110.391 103.782 111.037 104.055ZM103.691 97.7548C103.44 98.123 103.096 98.4585 102.955 98.8647C102.264 100.855 103.526 103.96 106.157 104.716C106.282 104.752 106.562 104.639 106.6 104.534C107.014 103.371 107.397 102.198 107.78 101.024C107.804 100.95 107.753 100.774 107.736 100.774C105.778 100.747 104.827 99.5423 104.259 97.8561C104.224 97.7519 103.942 97.731 103.691 97.7548ZM138.067 101.367C138.234 101.455 138.372 101.598 138.523 101.715C138.359 101.676 138.197 101.627 138.031 101.6C136.319 101.319 134.604 101.048 132.894 100.755C132.655 100.714 132.434 100.569 132.205 100.473C132.456 100.402 132.707 100.332 133.041 100.262C134.862 100.227 136.522 100.547 138.067 101.367ZM107.859 92.5844C107.667 92.8664 107.472 93.1464 107.287 93.4326C107.262 93.4718 107.304 93.5521 107.281 93.5956C106.75 94.5991 106.239 95.6147 105.67 96.5961C105.351 97.1452 105.333 98.2211 105.809 98.5115C106.487 98.9258 107.225 99.244 107.944 99.5908C108.421 99.8211 108.709 99.5292 108.95 99.1769C109.408 98.5067 109.829 97.8086 110.316 97.161C110.697 96.6549 110.321 96.76 109.958 96.6686C108.225 96.2354 108.025 94.786 107.795 93.3721C107.753 93.1198 107.834 92.8475 107.859 92.5844ZM110.694 88.5792C110.449 88.7782 110.112 88.9277 109.973 89.1844C109.204 90.6074 108.918 92.1642 108.971 93.7603C109.013 95.0097 109.781 95.862 110.99 96.1824C111.158 96.2267 111.395 96.1593 111.551 96.0635C111.954 95.8156 112.329 95.5229 112.799 95.1646C112.966 94.8727 113.179 94.597 113.289 94.2851C113.444 93.8466 113.544 93.3849 113.622 92.9254C113.65 92.7646 113.598 92.5032 113.485 92.4193C112.365 91.5885 111.532 90.5362 110.962 89.2705C110.861 89.0455 110.783 88.8099 110.694 88.5792ZM115.218 93.5528L114.874 94.614C114.836 94.732 114.999 95.0365 115.114 95.0641C116.134 95.3089 117.164 95.517 118.188 95.7458C117.625 95.3307 117.062 94.9141 116.497 94.5012C116.203 94.2861 115.875 94.1167 115.579 93.9044C115.444 93.8077 115.334 93.6758 115.218 93.5528ZM115.758 81.3536C115.175 81.8461 114.619 82.3705 113.968 82.9654C112.871 83.8087 112.421 85.0171 112.148 86.2993C111.783 88.0053 111.964 89.5882 113.334 90.8618C113.798 91.2933 114.104 91.1101 114.296 90.6381C114.887 89.1859 115.449 87.7218 116.02 86.2611C116.618 84.7277 116.955 83.2 116.34 81.5545C116.151 81.0495 116.013 81.1388 115.758 81.3536ZM136.629 82.9111C135.901 83.0746 135.073 84.1908 134.779 85.0562C134.649 85.4366 134.459 85.7305 135.197 85.9327C136.815 86.3758 138.36 87.0825 139.787 88.2251C140.108 88.2382 140.44 88.3097 140.749 88.2539C141.908 88.044 143.056 86.8003 144.217 86.7649C145.78 86.7173 147.364 86.8628 148.917 87.0834C150.52 87.311 152.136 87.6004 153.673 88.0939C155.701 88.7455 157.657 89.6228 159.645 90.4003C159.778 90.4521 159.919 90.4808 160.056 90.5203C160.021 90.4055 159.966 90.2931 159.952 90.1757C159.858 89.4023 159.341 88.9183 158.733 88.5749C157 87.596 155.27 86.6009 153.478 85.7382C150.48 84.2947 147.384 83.1703 144.048 82.6784C141.534 82.3077 139.076 82.3613 136.629 82.9111ZM134.859 78.5388C132.392 78.6421 130.32 79.5757 128.771 81.5381C128.021 82.4878 128.19 83.8749 129.331 84.2085C130.749 84.623 132.179 84.9943 133.771 85.3842C134.106 84.8829 134.338 83.4123 134.795 83.0753C136.068 82.1347 137.581 81.7516 139.148 81.728C140.515 81.7074 141.896 81.732 143.25 81.9029C144.862 82.1063 146.484 82.3743 148.046 82.8142C151.484 83.783 154.682 85.3468 157.807 87.0581C157.997 87.162 158.199 87.2435 158.395 87.3354C158.392 87.0374 158.425 86.7325 158.371 86.4443C158.345 86.3087 158.167 86.1796 158.03 86.091C156.802 85.2972 155.622 84.4049 154.323 83.7486C151.612 82.3785 148.846 81.1314 145.904 80.2889C142.287 79.253 138.657 78.3798 134.859 78.5388ZM129.735 72.8352C126.994 73.1364 124.602 74.0537 122.758 76.1787C121.69 77.41 121.051 78.8144 120.987 80.6258C120.987 80.8768 120.936 81.9727 121 82.2064C121.079 82.4991 121.206 82.9667 121.393 83.0101C122.22 83.2014 123.074 83.2852 123.922 83.3592C124.046 83.37 124.292 83.131 124.312 82.9843C124.404 82.3153 124.335 80.7802 124.506 80.1373C125.168 77.6482 126.953 76.2187 129.266 75.3689C131.208 74.655 133.229 74.6412 135.282 74.6634C138.328 74.6964 141.303 75.1365 144.232 75.8885C145.418 76.1932 146.536 76.7712 147.675 77.2484C147.822 77.3101 147.91 77.5137 148.025 77.6516C147.855 77.6257 147.676 77.6256 147.515 77.5702C143.642 76.2329 139.635 75.6061 135.563 75.3715C133.565 75.2565 131.562 75.4628 129.667 76.0624C127.573 76.7253 125.813 77.9126 125.098 80.1873C124.713 81.4151 125.267 83.3319 126.465 83.7745C127.165 84.033 127.415 83.7084 127.688 83.139C128.034 82.4148 128.4 80.8278 128.928 80.2392C130.594 78.3839 132.846 77.7692 135.219 77.7371C136.79 77.7158 138.385 77.9351 139.936 78.2263C142.268 78.6642 144.611 79.1299 146.878 79.8181C150.269 80.8475 153.51 82.2714 156.503 84.2115C156.717 84.3505 156.997 84.3887 157.246 84.4738C157.17 84.228 157.124 83.9681 157.014 83.7383C155.653 80.8821 153.992 78.2334 151.579 76.1329C150.165 74.9013 148.553 73.985 146.726 73.5387C145.402 73.2151 144.066 73.1345 142.67 73.3093C141.356 73.4737 139.993 73.2541 138.652 73.1855C138.005 73.1524 137.356 73.1122 136.716 73.0161C134.395 72.6674 132.082 72.5775 129.735 72.8352ZM120.228 78.0356C120.134 78.0763 120.028 78.1004 119.948 78.1604C119.46 78.5277 119.022 78.9964 118.483 79.2546C117.611 79.6729 117.767 80.3362 117.885 81.0311C117.902 81.1315 117.969 81.2257 117.975 81.3252C118.009 81.8415 118.03 82.3586 118.056 82.8754C118.173 83.5995 119.063 83.5995 119.65 83.4624C119.762 83.0366 119.919 82.6168 119.975 82.1838C120.106 81.1748 120.19 79.3284 120.286 78.3151C120.294 78.2245 120.249 78.1289 120.228 78.0356ZM88.0632 31.3869C88.2178 31.5741 88.1006 32.0034 88.0668 32.3219C88.0454 32.5245 87.8951 32.7242 87.9083 32.9179C88.0606 35.1611 88.2909 37.4005 88.3829 39.6458C88.465 41.6475 88.3968 43.6552 88.4043 45.6602C88.4053 45.9241 88.435 46.4086 88.4977 46.4164C88.9902 46.4773 89.4944 46.4541 89.9936 46.4282C90.0258 46.4265 90.0782 46.1841 90.0652 46.0595C90.0266 45.6909 89.9434 45.3269 89.9069 44.9582C89.6787 42.6561 89.3851 40.3572 89.2581 38.0493C89.1497 36.0781 89.1982 34.0947 89.2754 32.1205C89.2872 31.8178 89.8077 31.3267 90.1288 31.2958C90.555 31.2548 90.8005 31.6782 90.7537 32.211C90.6954 32.8743 90.69 33.5509 90.7488 34.2141C90.9479 36.4631 91.1819 45.789 91.2599 46.3428C91.2676 46.3979 91.5372 46.4468 91.6853 46.447C95.779 46.4525 99.873 46.4846 103.966 46.4362C105.787 46.4147 107.605 46.2208 109.425 46.1199C110.683 46.0502 111.948 46.0685 113.198 45.9381C116.686 45.5744 120.178 45.4388 123.685 45.4211C125.454 45.4122 127.221 45.0902 128.992 44.9533C131.455 44.7628 133.919 44.5564 136.387 44.4606C139.397 44.3438 142.411 44.3245 145.423 44.2898C145.883 44.2845 146.094 44.2578 146.07 43.6903C145.975 41.4594 145.949 39.2256 145.885 36.9932C145.84 35.4565 145.782 33.92 145.715 32.3841C145.696 31.9412 145.826 31.7331 146.314 31.7331C146.821 31.7331 146.888 31.9799 146.897 32.4031C146.932 33.8843 146.834 35.3949 147.096 36.8383C147.487 38.9972 147.325 41.1507 147.392 43.3069C147.417 44.1311 147.804 44.4366 148.586 44.2818C148.949 44.2097 149.319 44.1194 149.685 44.1189C157.316 44.1095 164.946 44.0982 172.576 44.1195C175.116 44.1266 181.811 44.2149 184.349 44.2846C185.023 44.3031 185.697 44.377 186.368 44.4497C187.078 44.5267 187.634 45.2593 187.64 46.133C187.651 47.6367 187.643 49.1405 187.643 50.6443C187.643 50.7836 187.636 50.9232 187.644 51.062C187.67 51.4737 187.865 52.1386 187.698 52.2464C187.286 52.5121 186.713 52.5994 186.199 52.6219C183.072 52.7587 175.787 52.8905 172.658 52.9605C168.644 53.0503 164.628 53.0859 160.613 53.1345C155.512 53.1961 150.411 53.238 145.31 53.3076C143.245 53.3357 141.179 53.4101 139.114 53.4715C137.466 53.5204 135.818 53.5889 134.17 53.6354C131.938 53.6984 129.705 53.7542 127.472 53.803C124.655 53.8645 121.838 53.9132 119.02 53.9722C116.537 54.0243 114.054 54.0829 111.571 54.1386C109.087 54.1943 106.603 54.2262 104.121 54.3127C101.882 54.3908 99.6452 54.5145 97.4089 54.6449C95.9497 54.7299 94.4898 54.8296 93.0366 54.9826C91.2593 55.1698 89.4907 55.4384 87.7144 55.6363C86.4274 55.7797 85.1359 55.9044 83.843 55.9688C81.0778 56.1065 78.3084 56.1645 75.5447 56.3243C73.911 56.4188 63.9749 56.6715 62.3422 56.7973C61.8157 56.8379 61.2652 56.7453 60.7468 56.6237C60.5362 56.5743 60.2553 56.305 60.2232 56.1016C60.0648 55.097 59.965 54.0821 59.8719 53.0684C59.795 52.2301 59.6986 51.3869 59.7193 50.5486C59.735 49.9145 59.9091 49.3074 59.7666 48.6388C59.7247 48.4421 60.447 47.8884 60.8692 47.8231C62.2008 47.6173 71.8718 47.5963 73.2137 47.4463C74.9078 47.257 76.5954 47.0093 78.2864 46.7921C78.4504 46.771 78.6194 46.792 78.7857 46.7849C81.3574 46.6746 83.9284 46.5473 86.5009 46.4663C86.9435 46.4524 86.9013 46.251 86.8993 45.9627C86.8916 44.8488 86.8744 43.7343 86.9023 42.6211C86.9297 41.5298 87.0076 40.4398 87.0633 39.2656C86.8468 37.6287 86.5891 36.0795 86.4296 34.5203C86.3367 33.6128 86.349 32.6847 86.4286 31.7758C86.4507 31.5244 86.8525 31.182 87.1365 31.1129C87.4199 31.0438 87.8861 31.1724 88.0632 31.3869ZM172.88 45.2914C164.884 45.3223 156.887 45.3842 148.89 45.4524C144.82 45.4871 140.749 45.5162 136.68 45.6348C134.713 45.6921 132.753 45.9636 130.789 46.1137C128.408 46.2955 126.026 46.4528 123.645 46.6178C122.777 46.678 121.909 46.7286 121.041 46.7859C118.521 46.9523 116.002 47.1637 113.479 47.2747C110.943 47.3863 108.402 47.3984 105.696 47.4541C105.051 47.5098 104.406 47.6065 103.761 47.6147C98.4653 47.6819 93.1693 47.7072 87.8744 47.8003C85.6359 47.8397 83.3996 48.0091 81.1625 48.1235C80.1829 48.1736 79.202 48.2131 78.2247 48.2937C75.6706 48.5045 64.8066 48.7416 62.2527 48.9535C61.6499 49.0035 61.3039 49.1534 61.3538 49.8955C61.4662 51.5672 61.509 53.2451 61.5226 54.921C61.5266 55.413 61.6631 55.5216 62.1197 55.4828C63.6591 55.3521 73.5131 55.2511 75.0544 55.1417C76.651 55.0283 78.247 54.9032 79.8449 54.8107C82.0256 54.6845 84.208 54.589 86.389 54.4675C86.7022 54.4501 87.0098 54.348 87.3228 54.308C88.6731 54.1355 90.0223 53.9516 91.3759 53.81C92.6915 53.6725 94.0105 53.559 95.3306 53.4748C98.1843 53.2926 101.038 53.0993 103.895 52.9797C106.459 52.8723 109.027 52.8588 111.594 52.8013C113.994 52.7475 116.393 52.6863 118.793 52.6356C121.638 52.5755 124.483 52.516 127.328 52.4692C131.148 52.4064 134.967 52.365 138.787 52.2966C140.686 52.2626 142.584 52.1921 144.482 52.1323C146.102 52.0812 147.721 52.0014 149.342 51.9703C152.938 51.9012 156.535 51.8507 160.132 51.8C164.397 51.74 168.663 51.7143 172.928 51.6228C175.918 51.5586 183.062 51.4142 186.051 51.2823C186.196 51.2758 186.452 51.0476 186.455 50.9185C186.484 49.4989 186.472 48.0785 186.474 46.6584C186.475 46.0566 186.127 45.7168 185.584 45.6274C184.947 45.5224 184.296 45.4747 183.65 45.4542C181.446 45.3843 175.085 45.2829 172.88 45.2914ZM149.741 30.5C149.943 33.4102 150.153 36.3201 150.412 39.2256C150.495 40.1644 150.708 41.0945 150.905 42.0194C151.076 42.819 150.604 43.38 149.605 43.4016C149.396 42.79 149.156 42.23 149.077 41.6482C148.915 40.4508 148.784 39.2438 148.739 38.0371C148.645 35.533 148.615 33.0265 148.562 30.5209C148.553 30.1389 148.478 29.7483 149.093 29.7267C149.71 29.7051 149.709 30.0368 149.741 30.5Z" fill="#333333"/>
<path fill-rule="evenodd" clip-rule="evenodd" d="M120.006 196.149C116.703 204.425 103.269 194.341 101.586 188.405C100.954 186.18 105.28 181.62 107.444 183.424C111.296 186.635 111.02 191.725 116.942 193.001C117.825 193.191 119.72 193.163 120.577 193.409C121.018 193.536 120.828 194.449 120.006 196.149Z" fill="#7A38FF"/>
<path fill-rule="evenodd" clip-rule="evenodd" d="M173.983 155.91C174.369 157.774 174.706 159.556 174.666 161.397C174.643 162.486 174.751 163.579 174.821 164.669C175.021 167.768 173.592 169.944 171.083 171.627C169.363 172.782 167.808 174.182 166.108 175.37C164.68 176.369 163.181 177.279 161.655 178.123C158.572 179.83 155.412 181.429 154.01 184.993C153.361 186.645 152.498 188.258 152.153 189.974C151.754 191.955 152.118 193.926 153.942 195.28C154.005 195.327 154.035 195.419 154.099 195.462C154.382 195.653 154.687 195.991 154.955 195.966C155.161 195.946 155.354 195.481 155.502 195.188C155.831 194.534 155.53 193.957 155.381 193.299C155.157 192.303 155.333 191.215 155.363 190.167C155.366 190.054 155.528 189.945 155.616 189.834C155.667 189.966 155.75 190.096 155.763 190.233C155.83 190.96 155.811 191.703 155.958 192.413C156.064 192.93 156.328 193.437 156.618 193.886C156.919 194.351 157.933 194.129 158.099 193.567C158.406 192.526 158.352 191.481 158.128 190.417C158.015 189.878 158.106 189.293 158.14 188.73C158.145 188.647 158.34 188.574 158.447 188.497C158.501 188.598 158.588 188.706 158.601 188.8C159.097 192.644 159.824 192.644 160.122 192.758C160.42 192.871 160.802 192.718 160.94 192.644C161.116 192.551 161.247 192.245 161.27 192.017C161.358 191.153 161.252 190.242 161.485 189.425C161.786 188.371 162.242 187.328 162.822 186.398C163.206 185.782 163.909 185.356 164.494 184.874C166.014 183.62 167.593 182.454 169.509 181.861C170.868 181.441 172.238 181.056 173.598 180.641C175.946 179.923 178.336 179.316 180.624 178.442C184.192 177.08 186.851 174.715 187.661 170.808C188.106 168.665 187.764 166.506 186.955 164.488C186.314 162.89 185.443 161.384 184.682 159.833C184.604 159.676 184.575 159.494 184.523 159.324C184.661 159.414 184.822 159.481 184.933 159.597C186.875 161.634 188.16 164.049 188.754 166.779C189.391 169.704 189.596 172.663 188.158 175.443C187.842 176.052 187.199 176.543 186.612 176.951C184.839 178.182 182.858 179.012 180.831 179.721C178.471 180.548 176.149 181.588 173.718 182.075C171.373 182.546 169.34 183.63 167.182 184.482C165.856 185.005 165.135 186.221 164.096 187.066C163 187.957 162.684 189.049 162.782 190.366C162.811 190.754 162.771 191.146 162.789 191.535C162.905 194.037 161.662 194.263 159.778 193.52C159.697 193.488 159.465 193.595 159.458 193.655C159.302 195.066 158.497 195.757 157.209 195.296C156.655 195.098 156.683 195.471 156.629 195.601C156.062 196.957 154.676 197.396 153.725 196.347C152.738 195.259 151.822 194.053 151.147 192.758C150.812 192.115 150.967 191.131 151.116 190.342C151.371 188.994 151.716 187.65 152.17 186.356C152.77 184.643 153.755 183.145 154.898 181.714C156.066 180.253 157.522 179.206 159.097 178.323C161.26 177.11 163.391 175.852 165.406 174.41C166.231 173.819 166.932 173.057 167.744 172.444C168.815 171.636 169.942 170.901 171.042 170.13C172.543 169.08 173.57 167.823 173.52 165.809C173.487 164.463 173.924 163.111 173.953 161.757C173.981 160.414 173.744 159.066 173.656 157.719C173.614 157.072 173.644 156.419 173.653 155.77C173.655 155.654 173.715 155.539 173.748 155.424C173.827 155.558 173.905 155.692 173.983 155.91Z" fill="#333333"/>
<path fill-rule="evenodd" clip-rule="evenodd" d="M9.37789 65.335C9.4566 65.1631 9.60373 64.9967 9.6044 64.9973C11.3225 66.5042 12.4081 68.3804 13.0931 70.5649C13.388 71.5052 14.0383 72.3645 14.6478 73.1693C15.7975 74.6872 17.0381 76.1362 18.2225 77.6285C18.2693 77.6875 18.1678 77.9639 18.0667 78.0247C17.3874 78.4327 16.1736 78.2154 15.4425 77.4775C14.8187 76.8477 14.2703 76.139 13.7235 75.4379C12.903 74.3859 11.7539 73.9706 10.5191 73.689C8.55539 73.241 7.09305 72.0345 5.87418 70.5118C3.81802 67.943 2.95774 64.9024 2.53477 61.71C2.43244 60.9376 2.27145 60.1171 2.4248 59.3784C2.74163 57.852 4.10568 57.0174 5.81288 57.5184C8.8766 58.4174 11.9248 59.4187 14.8794 60.6228C16.7999 61.4054 17.566 63.2169 17.9243 65.2308C18.2268 66.9314 17.8502 68.4649 17.1785 69.9756C16.9459 70.4986 16.905 70.4793 16.5621 69.989C15.8927 69.0319 15.723 67.904 15.9301 66.8472C16.3849 64.5254 15.3369 62.6937 13.4891 61.999C11.3443 61.1926 9.20562 60.357 7.0204 59.6747C4.85758 58.9994 4.88751 59.1453 5.28706 61.2423C5.82882 64.0856 6.86828 66.8567 7.9201 69.5713C8.48098 71.0188 9.6404 72.1062 11.2827 72.5459C11.8666 72.7023 11.7864 72.375 11.7032 72.1391C11.3096 71.0235 10.8908 69.9151 10.4338 68.8238C9.97157 67.7201 9.3195 66.6816 9.37789 65.335Z" fill="#7A38FF"/>
<path fill-rule="evenodd" clip-rule="evenodd" d="M178.955 153.278C176.815 152.617 174.805 152.914 172.799 153.706C172.329 153.892 171.669 153.785 171.163 153.615C170.93 153.537 171.662 152.284 172.25 152.061C172.947 151.795 173.664 151.504 174.396 151.419C176.624 151.159 178.69 151.753 180.652 152.794C181.514 153.251 182.425 153.619 183.282 154.085C183.65 154.284 183.954 154.614 184.252 154.919C184.335 155.003 184.353 155.307 184.297 155.341C184.159 155.425 183.934 155.482 183.793 155.426C182.91 155.076 182.037 154.7 181.168 154.317C180.439 153.996 179.72 153.653 178.955 153.278Z" fill="#333333"/>
<path fill-rule="evenodd" clip-rule="evenodd" d="M112.946 34.5447C111.496 35.5485 110.124 36.5679 108.671 37.4572C107.086 38.4278 105.438 39.2979 103.789 40.1581C103.553 40.2811 102.978 40.208 102.878 40.0388C102.705 39.7433 102.642 39.3377 103.197 39.0747C104.177 38.6108 105.11 38.0351 106.023 37.4439C107.43 36.5317 108.799 35.5598 110.194 34.6275C110.952 34.1206 111.697 33.5723 112.516 33.1868C112.85 33.0296 113.622 33.1095 113.747 33.3328C114.122 34 113.538 34.2937 112.946 34.5447Z" fill="#E7EAEE"/>
<path fill-rule="evenodd" clip-rule="evenodd" d="M123.307 139.324C123.794 138.892 124.234 138.495 124.689 138.115C124.822 138.005 124.997 137.945 125.153 137.862C125.22 138.006 125.326 138.145 125.347 138.295C125.491 139.292 125.509 140.351 126.434 141.013C126.827 141.294 127.287 141.587 127.747 141.649C129.458 141.881 131.481 141.705 132.65 139.872C133.124 139.129 132.978 138.373 133.053 137.609C133.073 137.407 133.21 137.083 133.349 137.05C133.912 136.916 133.714 137.396 133.698 137.627C133.634 138.548 133.869 139.457 133.245 140.368C132.491 141.47 131.497 142.172 130.294 142.322C129.115 142.468 127.872 142.554 126.673 142.06C125.599 141.618 125.083 140.84 124.85 139.78C124.819 139.639 124.761 139.504 124.716 139.366C124.606 139.437 124.497 139.51 124.387 139.58C123.223 140.323 122.117 141.217 120.634 141.184C120.422 141.18 120.215 140.912 120.006 140.766C120.196 140.689 120.388 140.616 120.576 140.535C121.473 140.146 122.369 139.756 123.307 139.324Z" fill="#333333"/>
<path fill-rule="evenodd" clip-rule="evenodd" d="M158.734 35.046C159.709 34.1826 160.622 33.3357 161.589 32.5563C161.848 32.3475 162.269 32.2916 162.622 32.2708C162.781 32.2615 163.09 32.5097 163.092 32.6442C163.095 32.9005 162.999 33.2416 162.816 33.4001C162.383 33.7751 161.84 34.0224 161.405 34.395C159.983 35.6122 158.606 36.8828 157.165 38.0762C156.967 38.2397 156.413 38.2073 156.186 38.0426C155.879 37.8209 155.997 37.4137 156.297 37.1519C157.092 36.4594 157.894 35.7752 158.734 35.046Z" fill="#E7EAEE"/>
<path fill-rule="evenodd" clip-rule="evenodd" d="M131.704 183.65C130.888 183.762 130.159 183.924 129.423 183.971C128.555 184.028 127.676 184.034 126.812 183.956C126.533 183.931 126.285 183.568 126.022 183.359C126.279 183.234 126.524 183.039 126.794 182.993C128.229 182.75 129.663 182.474 131.11 182.346C132.332 182.238 133.57 182.304 134.801 182.331C134.941 182.334 135.18 182.578 135.184 182.717C135.189 182.857 134.979 183.104 134.83 183.133C133.821 183.331 132.803 183.483 131.704 183.65Z" fill="#333333"/>
<path fill-rule="evenodd" clip-rule="evenodd" d="M71.7524 34.4611C72.0905 34.1965 72.3583 33.8905 72.6918 33.7758C72.9856 33.6748 73.5922 33.6959 73.6413 33.824C73.7712 34.1622 73.8326 34.5409 73.3624 34.8992C71.931 35.9898 70.5844 37.1916 69.2008 38.3452C69.0619 38.461 68.9004 38.6144 68.7405 38.626C68.46 38.6464 68.0226 38.6656 67.9246 38.5114C67.7902 38.3 67.7854 37.7836 67.9427 37.6449C69.1692 36.5641 70.448 35.5426 71.7524 34.4611Z" fill="#E7EAEE"/>
<path fill-rule="evenodd" clip-rule="evenodd" d="M162.453 38.2629C163.58 37.2747 164.727 36.3928 165.825 35.4536C166.224 35.1121 166.633 34.8523 167.012 35.2608C167.348 35.6227 167.143 36.062 166.76 36.3827C165.663 37.3007 164.595 38.2545 163.467 39.1314C163.249 39.3009 162.809 39.1854 162.472 39.2014C162.466 38.9164 162.459 38.6314 162.453 38.2629Z" fill="#E7EAEE"/>
<path fill-rule="evenodd" clip-rule="evenodd" d="M124.56 142.833C124.852 143.21 125.314 143.549 125.306 143.878C125.294 144.429 125.131 145.004 124.495 145.354C123.556 145.87 122.76 145.666 121.99 145.098C121.319 144.603 121.354 143.713 122.03 142.773C122.311 142.382 123.403 142.225 123.892 142.496C124.094 142.608 124.309 142.694 124.56 142.833ZM124.351 143.293C124.122 143.175 123.903 143.027 123.661 142.946C123.101 142.758 122.656 142.892 122.352 143.446C122.056 143.987 122.318 144.376 122.719 144.638C122.985 144.812 123.386 144.908 123.694 144.853C124.03 144.793 124.445 144.588 124.604 144.317C124.726 144.107 124.504 143.697 124.351 143.293Z" fill="#333333"/>
<path fill-rule="evenodd" clip-rule="evenodd" d="M114.617 38.7225C115.327 38.2911 115.976 37.8603 116.676 37.5399C116.86 37.4557 117.43 37.7185 117.428 37.8134C117.42 38.1879 117.372 38.7132 117.125 38.9012C116.493 39.3816 115.771 39.7721 115.033 40.0695C114.761 40.1794 114.14 40.0317 114.032 39.8209C113.808 39.3805 114.033 38.9352 114.617 38.7225Z" fill="#E7EAEE"/>
</svg>
