<svg width="18" height="18" viewBox="0 0 18 18" fill="none" xmlns="http://www.w3.org/2000/svg">
<g clip-path="url(#clip0_889_0)">
<path d="M8.5 18C13.1944 18 17 14.1944 17 9.5C17 4.80558 13.1944 1 8.5 1C3.80558 1 0 4.80558 0 9.5C0 14.1944 3.80558 18 8.5 18Z" fill="#FFCC4D"/>
<path d="M8.99951 14.25C9.5518 14.25 9.99951 13.6904 9.99951 13C9.99951 12.3096 9.5518 11.75 8.99951 11.75C8.44723 11.75 7.99951 12.3096 7.99951 13C7.99951 13.6904 8.44723 14.25 8.99951 14.25Z" fill="#664500"/>
<path d="M4.05556 10.6915C3.96456 10.6915 3.87206 10.6665 3.78956 10.6145C3.55606 10.4675 3.48606 10.159 3.63306 9.92497C4.09106 9.19847 5.48356 7.95597 7.47806 8.44397C7.74606 8.50947 7.91006 8.78047 7.84456 9.04847C7.77856 9.31647 7.50656 9.47947 7.24006 9.41497C5.43806 8.97397 4.48906 10.443 4.47956 10.458C4.38406 10.609 4.22156 10.6915 4.05556 10.6915ZM10.0421 8.82047C9.89706 8.82047 9.75406 8.75797 9.65506 8.63747C9.48006 8.42397 9.51106 8.10847 9.72506 7.93347C11.3131 6.63147 13.1061 7.15247 13.8326 7.61047C14.0661 7.75747 14.1361 8.06647 13.9886 8.29997C13.8421 8.53247 13.5346 8.60347 13.3006 8.45747C13.2316 8.41547 11.7746 7.54597 10.3586 8.70697C10.2656 8.78347 10.1536 8.82047 10.0421 8.82047Z" fill="#664500"/>
<path d="M6.6729 15.6365C6.6389 15.6365 6.6044 15.632 6.5704 15.6225C6.3714 15.566 6.2554 15.359 6.3119 15.1595C6.5304 14.3895 6.4409 13.645 6.0669 13.1165C5.8184 12.7655 5.4644 12.551 5.0954 12.5275C4.8884 12.515 4.7314 12.3365 4.7444 12.13C4.7574 11.9235 4.9349 11.7545 5.1419 11.7795C5.7384 11.8165 6.2984 12.146 6.6784 12.683C7.1839 13.3975 7.3134 14.3745 7.0329 15.3635C6.9864 15.529 6.8359 15.6365 6.6729 15.6365ZM12.1914 14.106C12.1204 14.106 12.0489 14.086 11.9854 14.044C11.4019 13.659 11.0754 12.9855 11.0894 12.1965C11.1039 11.379 11.4939 10.62 12.0814 10.262C12.2579 10.154 12.4884 10.21 12.5964 10.3875C12.7044 10.5645 12.6484 10.7945 12.4709 10.9025C12.1034 11.1265 11.8489 11.652 11.8389 12.2095C11.8289 12.737 12.0334 13.1775 12.3979 13.418C12.5709 13.532 12.6184 13.7645 12.5044 13.9375C12.4324 14.047 12.3134 14.106 12.1914 14.106Z" fill="#E2A62D"/>
<path d="M8.58956 1.35999C8.56806 1.33549 8.53456 1.32199 8.49506 1.31449C8.49506 1.31449 0.533061 -0.197013 0.188561 0.106987C-0.155439 0.411487 0.370061 8.49899 0.370061 8.49899C0.372561 8.53948 0.381561 8.57399 0.403561 8.59849C0.705561 8.94049 2.78256 7.59649 5.04306 5.59799C7.30406 3.59899 8.89156 1.70199 8.58956 1.35999Z" fill="#DD2E44"/>
<path d="M0.174273 0.135502C0.166773 0.150502 0.160273 0.171002 0.155273 0.197002C0.234773 0.882502 1.00277 6.523 1.48127 8.286C2.19927 7.8845 2.92877 7.339 3.78577 6.6595C3.05777 5.327 0.578773 0.0730017 0.174273 0.135502Z" fill="#EA596E"/>
<path d="M14.9512 14.6145L9.66466 13.963C9.09966 13.912 8.10616 13.907 8.15716 13.012C8.20366 12.2005 9.17716 12.3255 9.89666 12.432L15.2157 13.319L14.9512 14.6145Z" fill="#3B88C3"/>
<path d="M15.2148 13.3195L13.1038 12.9575C12.8568 12.913 12.6368 13.281 12.6258 13.6705C12.6133 14.1035 12.7393 14.3225 12.9888 14.3735L15.0608 14.6295L15.2148 13.3195Z" fill="#88C9F9"/>
<path d="M17.4592 13.1705L16.1482 14.376L13.8047 11.8275L15.1157 10.622C15.7962 9.99598 16.8652 10.041 17.4912 10.7215L17.5587 10.795C18.1842 11.476 18.1397 12.5445 17.4592 13.1705Z" fill="#3B88C3"/>
<path d="M16.1474 14.3767C16.7105 13.859 16.6424 12.8688 15.9954 12.165C15.3483 11.4613 14.3673 11.3105 13.8042 11.8282C13.2411 12.3459 13.3092 13.3361 13.9563 14.0399C14.6033 14.7436 15.5843 14.8944 16.1474 14.3767Z" fill="#88C9F9"/>
<path d="M15.6783 13.8669C15.9598 13.6081 15.8733 13.056 15.4851 12.6338C15.0969 12.2115 14.554 12.0791 14.2725 12.338C13.9909 12.5969 14.0774 13.149 14.4656 13.5712C14.8538 13.9934 15.3967 14.1258 15.6783 13.8669Z" fill="#226699"/>
<path d="M1.25 17.5C1.66421 17.5 2 17.1642 2 16.75C2 16.3358 1.66421 16 1.25 16C0.835786 16 0.5 16.3358 0.5 16.75C0.5 17.1642 0.835786 17.5 1.25 17.5Z" fill="#55ACEE"/>
<path d="M14.5 2C15.0523 2 15.5 1.55228 15.5 1C15.5 0.447715 15.0523 0 14.5 0C13.9477 0 13.5 0.447715 13.5 1C13.5 1.55228 13.9477 2 14.5 2Z" fill="#55ACEE"/>
<path d="M2.43205 14.623L1.26305 11.815L0.206055 14.8375L2.43205 14.623ZM13.0001 2.5L11.0001 3L11.5001 1L13.0001 2.5Z" fill="#EA596E"/>
<path d="M15.9995 6.5L18 3.9995L16.5 3L15.9995 6.5Z" fill="#77B255"/>
</g>
<defs>
<clipPath id="clip0_889_0">
<rect width="18" height="18" fill="white"/>
</clipPath>
</defs>
</svg>
