<svg width="20" height="20" viewBox="0 0 20 20" fill="none" xmlns="http://www.w3.org/2000/svg">
<path fill-rule="evenodd" clip-rule="evenodd" d="M6.77433 5.78279L6.77442 7.02369H9.51642C10.1225 7.02369 10.6461 7.38521 10.8827 7.90432H6.77441V9.14522H10.8827C10.6461 9.6643 10.1226 10.0258 9.51642 10.0258H6.77441V11.3086L10.9758 15.5099L11.8533 14.6325L8.48748 11.2667H9.51638C10.8152 11.2667 11.9054 10.3592 12.1873 9.14522H13.2255V7.90432H12.1871C12.1132 7.58612 11.9841 7.28893 11.81 7.02369H13.2255V5.78279H6.77433ZM11.0286 9.04632C11.0286 9.04632 11.0286 9.04631 11.0286 9.04632V9.04632ZM12.1073 8.00319C12.0354 7.64552 11.8914 7.31363 11.6907 7.02369C11.6675 6.99016 11.6436 6.95718 11.6188 6.92479C11.8572 7.2372 12.0271 7.60414 12.1073 8.00319Z" fill="black"/>
<path fill-rule="evenodd" clip-rule="evenodd" d="M1 10C1 12.4038 1.93631 14.6642 3.63601 16.364C5.33579 18.0637 7.5962 19 10 19C12.4038 19 14.6642 18.0637 16.364 16.364C18.0637 14.6642 19 12.4038 19 10C19 7.5962 18.0637 5.33579 16.364 3.63601C14.6642 1.93631 12.4038 1 10 1C7.5962 1 5.33579 1.93631 3.63601 3.63602C1.93631 5.33579 1 7.5962 1 10ZM15.4865 15.4865C14.0209 16.9521 12.0727 17.7591 10 17.7591C7.92727 17.7591 5.97913 16.9521 4.51349 15.4865C3.04785 14.0209 2.2409 12.0727 2.2409 10C2.2409 7.92727 3.04785 5.97913 4.51349 4.51349C5.97913 3.04785 7.92727 2.2409 10 2.2409C12.0727 2.2409 14.0209 3.04785 15.4865 4.51349C16.9521 5.97913 17.7591 7.92727 17.7591 10C17.7591 12.0727 16.9521 14.0209 15.4865 15.4865ZM15.5564 4.44356C15.5564 4.44355 15.5564 4.44357 15.5564 4.44356V4.44356Z" fill="black"/>
</svg>
