<svg width="68" height="68" viewBox="0 0 68 68" fill="none" xmlns="http://www.w3.org/2000/svg">
<path d="M68 34C68 52.7776 52.7776 68 34 68C15.2224 68 0 52.7776 0 34C0 15.2224 15.2224 0 34 0C52.7776 0 68 15.2224 68 34Z" fill="#DA552F"/>
<path fill-rule="evenodd" clip-rule="evenodd" d="M22.3125 17L38.9513 17.0003V17C45.6056 17 51 22.3278 51 28.9C51 35.4722 45.6056 40.8 38.9513 40.8V40.8003H29.1975V51H22.3125V17ZM38.9512 34.0003V34C41.8031 34 44.115 31.7166 44.115 28.9C44.115 26.0834 41.8031 23.8 38.9512 23.8V23.8003H29.1975V34.0003H38.9512Z" fill="white"/>
</svg>
