<svg width="24" height="24" viewBox="0 0 24 24" fill="none" xmlns="http://www.w3.org/2000/svg">
<g clip-path="url(#clip0_889_647)">
<path fill-rule="evenodd" clip-rule="evenodd" d="M19.9484 16.3206C19.8842 15.9668 19.9275 15.6018 20.0727 15.2727C20.211 14.9501 20.4406 14.6749 20.7333 14.4811C21.026 14.2872 21.369 14.1832 21.72 14.1818H21.8182C22.3968 14.1818 22.9518 13.9519 23.361 13.5428C23.7701 13.1336 24 12.5787 24 12C24 11.4213 23.7701 10.8664 23.361 10.4572C22.9518 10.0481 22.3968 9.81818 21.8182 9.81818H21.6327C21.2817 9.81678 20.9387 9.71277 20.646 9.51894C20.3534 9.32511 20.1237 9.04993 19.9855 8.72727V8.64C19.8402 8.31096 19.7969 7.94597 19.8611 7.59208C19.9253 7.2382 20.094 6.91165 20.3455 6.65454L20.4109 6.58909C20.6138 6.38646 20.7747 6.14583 20.8845 5.88096C20.9943 5.61609 21.0508 5.33218 21.0508 5.04545C21.0508 4.75873 20.9943 4.47482 20.8845 4.20995C20.7747 3.94508 20.6138 3.70445 20.4109 3.50182C20.2083 3.29896 19.9676 3.13803 19.7028 3.02823C19.4379 2.91843 19.154 2.86192 18.8673 2.86192C18.5805 2.86192 18.2966 2.91843 18.0318 3.02823C17.7669 3.13803 17.5263 3.29896 17.3236 3.50182L17.2582 3.56727C17.0011 3.81877 16.6745 3.98748 16.3206 4.05164C15.9668 4.11581 15.6018 4.07249 15.2727 3.92727C14.9501 3.78899 14.6749 3.55937 14.4811 3.26669C14.2872 2.97401 14.1832 2.63104 14.1818 2.28V2.18182C14.1818 1.60316 13.9519 1.04821 13.5428 0.63904C13.1336 0.229869 12.5787 0 12 0C11.4213 0 10.8664 0.229869 10.4572 0.63904C10.0481 1.04821 9.81818 1.60316 9.81818 2.18182V2.36727C9.81678 2.71831 9.71277 3.06128 9.51894 3.35396C9.32511 3.64664 9.04993 3.87626 8.72727 4.01454H8.64C8.31096 4.15976 7.94597 4.20308 7.59208 4.13891C7.2382 4.07475 6.91165 3.90604 6.65454 3.65455L6.58909 3.58909C6.38646 3.38623 6.14583 3.2253 5.88096 3.11551C5.61609 3.00571 5.33218 2.94919 5.04545 2.94919C4.75873 2.94919 4.47482 3.00571 4.20995 3.11551C3.94508 3.2253 3.70445 3.38623 3.50182 3.58909C3.29896 3.79172 3.13803 4.03235 3.02823 4.29722C2.91843 4.56209 2.86192 4.846 2.86192 5.13273C2.86192 5.41945 2.91843 5.70337 3.02823 5.96823C3.13803 6.2331 3.29896 6.47373 3.50182 6.67636L3.56727 6.74182C3.81877 6.99892 3.98748 7.32547 4.05164 7.67936C4.11581 8.03324 4.07249 8.39824 3.92727 8.72727C3.8026 9.06626 3.57883 9.35989 3.28505 9.57001C2.99128 9.78013 2.64108 9.89701 2.28 9.90545H2.18182C1.60316 9.90545 1.04821 10.1353 0.63904 10.5445C0.229869 10.9537 0 11.5086 0 12.0873C0 12.6659 0.229869 13.2209 0.63904 13.63C1.04821 14.0392 1.60316 14.2691 2.18182 14.2691H2.36727C2.71831 14.2705 3.06128 14.3745 3.35396 14.5683C3.64664 14.7622 3.87626 15.0373 4.01454 15.36C4.15976 15.689 4.20308 16.054 4.13891 16.4079C4.07475 16.7618 3.90604 17.0884 3.65455 17.3455L3.58909 17.4109C3.38623 17.6135 3.2253 17.8542 3.11551 18.119C3.00571 18.3839 2.94919 18.6678 2.94919 18.9545C2.94919 19.2413 3.00571 19.5252 3.11551 19.7901C3.2253 20.0549 3.38623 20.2956 3.58909 20.4982C3.79172 20.701 4.03235 20.862 4.29722 20.9718C4.56209 21.0816 4.846 21.1381 5.13273 21.1381C5.41945 21.1381 5.70337 21.0816 5.96823 20.9718C6.2331 20.862 6.47373 20.701 6.67636 20.4982L6.74182 20.4327C6.99892 20.1812 7.32547 20.0125 7.67936 19.9484C8.03324 19.8842 8.39824 19.9275 8.72727 20.0727C9.06626 20.1974 9.35989 20.4212 9.57001 20.7149C9.78013 21.0087 9.89701 21.3589 9.90545 21.72V21.8182C9.90545 22.3968 10.1353 22.9518 10.5445 23.361C10.9537 23.7701 11.5086 24 12.0873 24C12.6659 24 13.2209 23.7701 13.6301 23.361C14.0392 22.9518 14.2691 22.3968 14.2691 21.8182V21.6327C14.2705 21.2817 14.3745 20.9387 14.5683 20.646C14.7622 20.3534 15.0373 20.1237 15.36 19.9855C15.689 19.8402 16.054 19.7969 16.4079 19.8611C16.7618 19.9253 17.0884 20.094 17.3455 20.3455L17.4109 20.4109C17.6135 20.6138 17.8542 20.7747 18.119 20.8845C18.3839 20.9943 18.6678 21.0508 18.9545 21.0508C19.2413 21.0508 19.5252 20.9943 19.7901 20.8845C20.0549 20.7747 20.2956 20.6138 20.4982 20.4109C20.701 20.2083 20.862 19.9676 20.9718 19.7028C21.0816 19.4379 21.1381 19.154 21.1381 18.8673C21.1381 18.5805 21.0816 18.2966 20.9718 18.0318C20.862 17.7669 20.701 17.5263 20.4982 17.3236L20.4327 17.2582C20.1812 17.0011 20.0125 16.6745 19.9484 16.3206ZM15.2727 11.9999C15.2727 13.8074 13.8075 15.2727 12 15.2727C10.1925 15.2727 8.72727 13.8074 8.72727 11.9999C8.72727 10.1925 10.1925 8.72721 12 8.72721C13.8075 8.72721 15.2727 10.1925 15.2727 11.9999Z" fill="#7A38FF"/>
</g>
<defs>
<clipPath id="clip0_889_647">
<rect width="24" height="24" fill="white"/>
</clipPath>
</defs>
</svg>
