<svg width="68" height="68" viewBox="0 0 68 68" fill="none" xmlns="http://www.w3.org/2000/svg">
<path d="M0 34C0 15.2224 15.2224 0 34 0C52.7776 0 68 15.2224 68 34C68 52.7776 52.7776 68 34 68C15.2224 68 0 52.7776 0 34Z" fill="#FFE400"/>
<path d="M52.2343 43.7395C45.6529 40.5535 44.604 35.6346 44.5573 35.2698C44.5009 34.8278 44.4368 34.4803 44.9243 34.0308C45.3945 33.5964 47.4804 32.3054 48.0592 31.9014C49.0158 31.2326 49.4371 30.5647 49.1266 29.7438C48.9094 29.1758 48.3806 28.9619 47.8235 28.9619C47.6479 28.9625 47.4728 28.9822 47.3013 29.0206C46.2502 29.2487 45.2295 29.7752 44.6387 29.9176C44.5677 29.9359 44.4949 29.9457 44.4215 29.9468C44.1066 29.9468 43.9872 29.8068 44.0176 29.4279C44.0915 28.279 44.2479 26.0367 44.0665 23.9421C43.8179 21.0602 42.8883 19.6323 41.7861 18.3694C41.253 17.7569 38.7773 15.1259 33.9995 15.1259C29.2217 15.1259 26.7492 17.7569 26.2194 18.3619C25.1139 19.6247 24.1854 21.0525 23.9389 23.9345C23.7576 26.0291 23.9205 28.2703 23.9878 29.4202C24.0095 29.7808 23.8989 29.9393 23.5839 29.9393C23.5105 29.938 23.4377 29.9281 23.3668 29.91C22.7771 29.7677 21.7564 29.241 20.7053 29.0131C20.5338 28.9745 20.3587 28.955 20.1829 28.9544C19.6238 28.9544 19.0971 29.1716 18.8799 29.7361C18.5694 30.5571 18.9885 31.2249 19.9485 31.8939C20.5272 32.2978 22.6131 33.5878 23.0833 34.0231C23.5698 34.4728 23.5069 34.8203 23.4503 35.2621C23.4036 35.6324 22.3536 40.5514 15.7733 43.7318C15.3878 43.9187 14.732 44.3139 15.8885 44.9524C17.7039 45.9557 18.9125 45.8482 19.8519 46.4531C20.6489 46.9666 20.1776 48.0742 20.7574 48.4738C21.4697 48.9657 23.5751 48.4391 26.2953 49.3371C28.5756 50.0885 29.9612 52.2114 34.0049 52.2114C38.0487 52.2114 39.4744 50.0788 41.7146 49.3371C44.4292 48.4391 46.539 48.9657 47.2525 48.4738C47.8312 48.0742 47.361 46.9666 48.158 46.4531C49.0972 45.8482 50.3048 45.9557 52.1214 44.9524C53.2757 44.3214 52.6198 43.9262 52.2343 43.7395Z" fill="white"/>
<path fill-rule="evenodd" clip-rule="evenodd" d="M53.5996 41.7751C54.2402 42.1312 54.8028 42.5612 55.098 43.3647C55.4292 44.2639 55.2262 45.2823 54.4183 46.1468L54.4075 46.1598C54.0814 46.5205 53.6958 46.8225 53.2672 47.0523C52.4171 47.5191 51.5127 47.8795 50.5744 48.1252C50.3948 48.1732 50.2244 48.251 50.0705 48.3554C49.9098 48.4975 49.8431 48.6745 49.7599 48.8949C49.697 49.0617 49.6247 49.2535 49.4951 49.4738C49.2725 49.8616 48.9669 50.1953 48.6003 50.451C47.7228 51.0569 46.737 51.0951 45.6923 51.1352L45.6892 51.1353C44.7463 51.1711 43.6778 51.2117 42.4575 51.6151C41.9656 51.778 41.4433 52.0983 40.8385 52.4697L40.8347 52.472C39.3616 53.3742 37.3457 54.6088 33.9976 54.6088C30.6466 54.6088 28.6443 53.3786 27.1817 52.4794C26.5726 52.1016 26.047 51.778 25.5409 51.6107C24.3193 51.208 23.2498 51.1666 22.3061 51.1309H22.306C21.2616 51.0907 20.2756 51.0527 19.3983 50.4468C19.0886 50.2317 18.822 49.9607 18.612 49.6475C18.4083 49.3522 18.3144 49.1026 18.2354 48.8925C18.1522 48.6714 18.0855 48.4941 17.9247 48.3532C17.7606 48.2436 17.5793 48.1626 17.3883 48.1133C16.4627 47.8683 15.5703 47.5113 14.7312 47.0502C14.3279 46.8356 13.9613 46.558 13.6453 46.2282C12.7842 45.3442 12.5627 44.2953 12.9015 43.3734C13.2852 42.3307 14.1166 41.9138 14.9886 41.4765C15.1382 41.4014 15.2891 41.3258 15.4391 41.2463C17.372 40.1962 18.8857 38.8845 19.9433 37.3371C20.2449 36.9005 20.5068 36.4379 20.7263 35.9549C20.8294 35.6725 20.8273 35.5194 20.7577 35.3771C20.6832 35.261 20.5847 35.1621 20.4688 35.0873C20.1376 34.8679 19.8 34.6486 19.5687 34.4987C19.4832 34.4427 19.4012 34.3891 19.323 34.3381C19.0099 34.1336 18.7576 33.9688 18.5838 33.8471C17.764 33.2738 17.1907 32.6647 16.8313 31.9838C16.5817 31.5126 16.4366 30.9933 16.4057 30.4609C16.3747 29.9286 16.4588 29.3958 16.6521 28.8989C17.1928 27.4699 18.5447 26.5828 20.1811 26.5828C20.5261 26.5825 20.87 26.6189 21.2072 26.6914C21.2975 26.711 21.3864 26.7315 21.4744 26.7543C21.4602 25.7825 21.482 24.7455 21.5689 23.7302C21.8773 20.1643 23.1271 18.29 24.4301 16.7981C25.2653 15.8606 26.2501 15.068 27.3445 14.4527C29.324 13.3233 31.5555 12.75 33.9997 12.75C36.444 12.75 38.6863 13.3233 40.6637 14.4527C41.7554 15.0678 42.7383 15.8589 43.5727 16.7937C44.8757 18.2858 46.1255 20.1566 46.4339 23.7259C46.5208 24.7411 46.5426 25.7727 46.5273 26.7501C46.6153 26.7273 46.7054 26.7066 46.7956 26.687C47.1328 26.6145 47.4767 26.5781 47.8217 26.5784C49.457 26.5784 50.8068 27.4656 51.3496 28.8946C51.5422 29.3913 51.6253 29.9237 51.5936 30.4554C51.562 30.9872 51.4162 31.5058 51.1662 31.9763C50.8078 32.6571 50.2344 33.2663 49.4146 33.8396C49.1975 33.9942 48.8608 34.2121 48.4358 34.4872L48.4297 34.4912C48.1898 34.6464 47.8359 34.8766 47.4928 35.1036C47.39 35.1736 47.3032 35.2641 47.2375 35.3696C47.1713 35.5063 47.1669 35.6562 47.2593 35.9202C47.4817 36.4136 47.748 36.886 48.0552 37.3317C49.1367 38.9148 50.696 40.2505 52.6929 41.3093C52.7944 41.3619 52.8961 41.4132 52.9974 41.4642C53.0901 41.5108 53.1824 41.5573 53.2738 41.6045C53.3682 41.648 53.479 41.7045 53.5996 41.7751ZM49.6272 45.9137C50.3126 45.7311 51.1248 45.5147 52.1196 44.9653C53.276 44.3214 52.6201 43.9262 52.2314 43.7318C45.6499 40.5512 44.601 35.6323 44.5543 35.2621C44.5524 35.2471 44.5505 35.2322 44.5485 35.2174C44.4942 34.7964 44.4504 34.4573 44.9214 34.0231C45.2411 33.727 46.3077 33.0359 47.1397 32.4968C47.5314 32.2431 47.871 32.023 48.0563 31.8937C49.0151 31.2249 49.4341 30.5571 49.1236 29.7361C48.9064 29.1714 48.3799 28.9543 47.8206 28.9543C47.6449 28.9548 47.4698 28.9745 47.2984 29.0129C46.6788 29.1473 46.0698 29.3855 45.5532 29.5875C45.1933 29.7282 44.8783 29.8514 44.6358 29.9098C44.5648 29.9282 44.492 29.938 44.4186 29.9391C44.1037 29.9391 43.9898 29.7992 44.0147 29.4202C44.0173 29.3798 44.02 29.3381 44.0228 29.2951C44.0991 28.1139 44.2385 25.9554 44.0636 23.9343C43.8171 21.0525 42.8876 19.6245 41.7832 18.3617C41.2533 17.7569 38.7569 15.1367 33.9955 15.1367C29.2339 15.1367 26.7441 17.7678 26.2141 18.3747C25.111 19.6375 24.1825 21.0655 23.9339 23.9473C23.7672 25.8726 23.8913 27.9216 23.9648 29.1334C23.9712 29.24 23.9773 29.3402 23.9827 29.4332C24.0044 29.7936 23.8936 29.9522 23.5787 29.9522C23.5055 29.9509 23.4326 29.9411 23.3615 29.9228C23.1198 29.8645 22.8055 29.7416 22.4465 29.6011C21.9298 29.399 21.3203 29.1605 20.7002 29.0259C20.5288 28.9875 20.3535 28.9679 20.1779 28.9673C19.622 28.9673 19.092 29.1812 18.8748 29.7491C18.5643 30.5701 18.9856 31.2379 19.9433 31.9067C20.1288 32.0362 20.469 32.2568 20.8613 32.511C21.6931 33.0502 22.7587 33.741 23.0782 34.0361C23.5489 34.4711 23.5051 34.8105 23.4507 35.2325C23.4489 35.2466 23.4471 35.2608 23.4453 35.2751C23.3985 35.6399 22.3485 40.5589 15.7682 43.7448C15.3827 43.9315 14.7268 44.3268 15.8832 44.9653C16.8754 45.5106 17.686 45.7258 18.3706 45.9076C18.9388 46.0584 19.4202 46.1862 19.8466 46.4606C20.2776 46.7383 20.3381 47.1896 20.3942 47.6089C20.4419 47.9649 20.4865 48.2978 20.7523 48.4813C21.0615 48.6945 21.6329 48.7164 22.4022 48.7458C23.408 48.7843 24.752 48.8358 26.2902 49.3446C27.0623 49.599 27.7332 50.0113 28.4396 50.4454C29.8193 51.2933 31.3343 52.2243 34.003 52.2243C36.6815 52.2243 38.2127 51.2845 39.5957 50.4357C40.2961 50.0059 40.9584 49.5993 41.7126 49.35C43.2536 48.8412 44.5974 48.7898 45.6023 48.7513C46.3712 48.7218 46.9417 48.7 47.2505 48.4867C47.5168 48.3032 47.5612 47.9703 47.6086 47.6142C47.6645 47.195 47.7246 46.7437 48.1562 46.466C48.5811 46.1923 49.0609 46.0645 49.6272 45.9137Z" fill="black"/>
</svg>
