<svg width="68" height="68" viewBox="0 0 68 68" fill="none" xmlns="http://www.w3.org/2000/svg">
<path fill-rule="evenodd" clip-rule="evenodd" d="M0 33.9994C0 15.2222 15.2226 0 33.9998 0C52.7778 0 68 15.2222 68 33.9994C68 52.7786 52.7778 68 33.9998 68C15.2226 68 0 52.7786 0 33.9994ZM53.2963 29.6872C42.5019 23.2767 24.6967 22.6873 14.3922 25.8148C12.737 26.317 10.9872 25.3829 10.4861 23.7282C9.98465 22.0723 10.9176 20.3236 12.5735 19.8205C24.4028 16.23 44.0666 16.9234 56.4934 24.3C57.9821 25.1837 58.47 27.106 57.5879 28.5919C56.7049 30.0803 54.7811 30.571 53.2963 29.6872ZM49.3515 40.0419C50.5787 40.7965 52.1855 40.411 52.9428 39.1821C53.6974 37.9561 53.3111 36.3486 52.0839 35.5928C41.7477 29.2407 26.6278 27.4532 14.4654 31.1441C13.087 31.564 12.3084 33.0195 12.7243 34.3999C13.1438 35.7783 14.6021 36.5565 15.9825 36.1394C26.6294 32.9076 40.3526 34.5103 49.3515 40.0419ZM45.9753 48.9951C46.9586 49.5965 48.2434 49.2874 48.8452 48.3005C49.4466 47.3168 49.1367 46.0312 48.1526 45.4302C39.326 40.0365 28.384 38.7817 15.6278 41.6977C14.5021 41.954 13.8007 43.0737 14.0582 44.1969C14.3142 45.3198 15.4338 46.0236 16.5571 45.7661C28.2137 43.1036 38.1116 44.1889 45.9753 48.9951Z" fill="#1ED760"/>
</svg>
