<svg width="68" height="68" viewBox="0 0 68 68" fill="none" xmlns="http://www.w3.org/2000/svg">
<circle cx="34" cy="34" r="34" fill="black"/>
<path fill-rule="evenodd" clip-rule="evenodd" d="M29.263 29.7501V28.1899C28.7215 28.1132 28.1755 28.0734 27.6286 28.0708C20.9409 28.0708 15.5 33.5126 15.5 40.2004C15.5 44.3028 17.5503 47.9343 20.678 50.1303C18.5837 47.8906 17.4194 44.9385 17.4211 41.8723C17.4211 35.2798 22.7072 29.904 29.263 29.7501Z" fill="#00F2EA"/>
<path fill-rule="evenodd" clip-rule="evenodd" d="M29.5489 47.4112C32.5327 47.4112 34.9669 45.0375 35.0777 42.0793L35.0878 15.6719H39.9121C39.8091 15.1206 39.757 14.5609 39.7564 14H33.1676L33.1566 40.4083C33.0467 43.3656 30.6116 45.7383 27.6287 45.7383C26.7331 45.7387 25.851 45.5205 25.059 45.1026C25.5704 45.8161 26.2444 46.3977 27.0251 46.7991C27.8059 47.2006 28.671 47.4103 29.5489 47.4112ZM48.9241 24.6353V23.1677C47.1511 23.1693 45.4162 22.6536 43.9321 21.6836C45.2333 23.1818 46.9852 24.2174 48.925 24.6353" fill="#00F2EA"/>
<path fill-rule="evenodd" clip-rule="evenodd" d="M43.9317 21.6826C42.4773 20.0184 41.6762 17.883 41.6771 15.6728H39.9118C40.1404 16.8944 40.6145 18.0569 41.3055 19.0899C41.9965 20.1229 42.8899 21.005 43.9317 21.6826ZM27.6283 34.6604C26.1598 34.6622 24.7519 35.2463 23.7135 36.2847C22.6752 37.323 22.0911 38.7309 22.0894 40.1994C22.0904 41.2095 22.3674 42.2003 22.8905 43.0644C23.4137 43.9285 24.163 44.6333 25.0576 45.1025C24.3764 44.1632 24.0097 43.0325 24.0096 41.8723C24.011 40.4036 24.595 38.9955 25.6334 37.9569C26.6719 36.9184 28.0799 36.3341 29.5485 36.3324C30.1193 36.3324 30.6662 36.4268 31.1829 36.5889V29.8618C30.6414 29.7851 30.0954 29.7453 29.5485 29.7427C29.4523 29.7427 29.3579 29.7482 29.2627 29.75V34.917C28.7341 34.7488 28.1829 34.6623 27.6283 34.6604Z" fill="#FF004F"/>
<path fill-rule="evenodd" clip-rule="evenodd" d="M48.9243 24.6353V29.7564C45.5072 29.7564 42.3419 28.6635 39.7566 26.8083V40.1994C39.7566 46.8871 34.3167 52.328 27.6289 52.328C25.0445 52.328 22.6479 51.5127 20.6782 50.1293C21.8107 51.3505 23.1831 52.3247 24.7096 52.9908C26.2361 53.6568 27.8837 54.0003 29.5491 53.9999C36.2368 53.9999 41.6777 48.5591 41.6777 41.8723V28.4812C44.3485 30.4017 47.5558 31.4331 50.8454 31.4293V24.8387C50.1858 24.8387 49.5445 24.7672 48.9243 24.6343" fill="#FF004F"/>
<path fill-rule="evenodd" clip-rule="evenodd" d="M39.7566 40.1994V26.8084C42.4273 28.729 45.6347 29.7604 48.9243 29.7564V24.6353C46.9848 24.2169 45.2331 23.1809 43.9323 21.6826C42.8905 21.005 41.997 20.1229 41.306 19.0899C40.6151 18.0569 40.1409 16.8944 39.9123 15.6728H35.088L35.0779 42.0802C34.9671 45.0374 32.5329 47.4112 29.5491 47.4112C28.6712 47.4103 27.8061 47.2004 27.0253 46.7989C26.2447 46.3975 25.5707 45.816 25.0592 45.1025C24.1644 44.6334 23.4148 43.9288 22.8915 43.0646C22.3682 42.2004 22.091 41.2097 22.09 40.1994C22.0917 38.7309 22.6758 37.323 23.7142 36.2847C24.7525 35.2463 26.1604 34.6622 27.6289 34.6604C28.1988 34.6604 28.7457 34.7539 29.2633 34.917V29.75C22.7074 29.9039 17.4214 35.2798 17.4214 41.8723C17.4214 45.0604 18.66 47.9627 20.6782 50.1302C22.7128 51.5625 25.1408 52.3302 27.6289 52.328C34.3167 52.328 39.7566 46.8871 39.7566 40.1994Z" fill="white"/>
</svg>
