<svg width="54" height="54" viewBox="0 0 54 54" fill="none" xmlns="http://www.w3.org/2000/svg">
<g clip-path="url(#clip0_889_341)">
<path fill-rule="evenodd" clip-rule="evenodd" d="M27 2.84211C13.658 2.84211 2.84211 13.658 2.84211 27C2.84211 40.342 13.658 51.1579 27 51.1579C40.342 51.1579 51.1579 40.342 51.1579 27C51.1579 13.658 40.342 2.84211 27 2.84211ZM0 27C0 12.0883 12.0883 0 27 0C41.9117 0 54 12.0883 54 27C54 41.9117 41.9117 54 27 54C12.0883 54 0 41.9117 0 27Z" fill="black"/>
<path fill-rule="evenodd" clip-rule="evenodd" d="M27 10.2316C27.7848 10.2316 28.4211 10.8678 28.4211 11.6526V26.1217L37.8671 30.8448C38.5691 31.1957 38.8536 32.0493 38.5026 32.7513C38.1516 33.4533 37.298 33.7378 36.5961 33.3868L26.3645 28.271C25.8831 28.0303 25.5789 27.5383 25.5789 27V11.6526C25.5789 10.8678 26.2152 10.2316 27 10.2316Z" fill="black"/>
</g>
<defs>
<clipPath id="clip0_889_341">
<rect width="54" height="54" fill="white"/>
</clipPath>
</defs>
</svg>
