<svg width="20" height="20" viewBox="0 0 20 20" fill="none" xmlns="http://www.w3.org/2000/svg">
<path fill-rule="evenodd" clip-rule="evenodd" d="M7.68517 2.68517C7.85708 2.51326 8.09024 2.41669 8.33335 2.41669H11.6667C11.9098 2.41669 12.143 2.51326 12.3149 2.68517C12.4868 2.85708 12.5834 3.09024 12.5834 3.33335V4.25H7.41669V3.33335C7.41669 3.09024 7.51326 2.85708 7.68517 2.68517ZM5.91669 4.25V3.33335C5.91669 2.69241 6.1713 2.07772 6.62451 1.62451C7.07773 1.1713 7.69241 0.916687 8.33335 0.916687H11.6667C12.3076 0.916687 12.9223 1.1713 13.3755 1.62451C13.8287 2.07772 14.0834 2.69241 14.0834 3.33335V4.25H17.5C17.9142 4.25 18.25 4.58579 18.25 5C18.25 5.41421 17.9142 5.75 17.5 5.75H16.5834V16.6667C16.5834 17.3076 16.3287 17.9223 15.8755 18.3755C15.4223 18.8287 14.8076 19.0834 14.1667 19.0834H5.83335C5.19241 19.0834 4.57772 18.8287 4.12451 18.3755C3.6713 17.9223 3.41669 17.3076 3.41669 16.6667V5.75H2.5C2.08579 5.75 1.75 5.41421 1.75 5C1.75 4.58579 2.08579 4.25 2.5 4.25H5.91669ZM4.91669 16.6667V5.75002H15.0834V16.6667C15.0834 16.9098 14.9868 17.143 14.8149 17.3149C14.643 17.4868 14.4098 17.5834 14.1667 17.5834H5.83335C5.59024 17.5834 5.35708 17.4868 5.18517 17.3149C5.01326 17.143 4.91669 16.9098 4.91669 16.6667ZM8.33331 8.41669C8.74753 8.41669 9.08331 8.75247 9.08331 9.16669V14.1667C9.08331 14.5809 8.74753 14.9167 8.33331 14.9167C7.9191 14.9167 7.58331 14.5809 7.58331 14.1667V9.16669C7.58331 8.75247 7.9191 8.41669 8.33331 8.41669ZM12.4167 9.16669C12.4167 8.75247 12.0809 8.41669 11.6667 8.41669C11.2525 8.41669 10.9167 8.75247 10.9167 9.16669V14.1667C10.9167 14.5809 11.2525 14.9167 11.6667 14.9167C12.0809 14.9167 12.4167 14.5809 12.4167 14.1667V9.16669Z" fill="#828282"/>
</svg>
