<svg width="68" height="68" viewBox="0 0 68 68" fill="none" xmlns="http://www.w3.org/2000/svg">
<path d="M0 34C0 15.2223 15.2223 0 34 0C52.7777 0 68 15.2223 68 34C68 52.7777 52.7777 68 34 68C15.2223 68 0 52.7777 0 34Z" fill="#55ACEE"/>
<path d="M32.9817 27.6356L33.053 28.8121L31.8639 28.668C27.5356 28.1158 23.7542 26.243 20.5436 23.0978L18.9739 21.5371L18.5696 22.6896C17.7135 25.2586 18.2605 27.9717 20.0441 29.7965C20.9954 30.8049 20.7814 30.9489 19.1404 30.3487C18.5696 30.1566 18.0702 30.0126 18.0226 30.0846C17.8562 30.2527 18.4269 32.4375 18.8788 33.3019C19.4971 34.5024 20.7576 35.6788 22.137 36.3751L23.3023 36.9274L21.9229 36.9514C20.5911 36.9514 20.5436 36.9754 20.6863 37.4796C21.1619 39.0402 23.0407 40.6969 25.1335 41.4172L26.608 41.9214L25.3238 42.6897C23.4212 43.7941 21.1857 44.4184 18.9501 44.4664C17.8799 44.4904 17 44.5865 17 44.6585C17 44.8986 19.9014 46.2431 21.59 46.7713C26.6556 48.332 32.6725 47.6597 37.1912 44.9946C40.4018 43.0979 43.6124 39.3283 45.1107 35.6788C45.9193 33.7341 46.7279 30.1806 46.7279 28.4759C46.7279 27.3715 46.7992 27.2274 48.131 25.9069C48.9158 25.1386 49.6531 24.2982 49.7958 24.0581C50.0336 23.602 50.0098 23.602 48.7969 24.0101C46.7754 24.7304 46.49 24.6344 47.4889 23.5539C48.2262 22.7856 49.1061 21.3931 49.1061 20.9849C49.1061 20.9129 48.7494 21.0329 48.3451 21.249C47.917 21.4891 46.9657 21.8492 46.2522 22.0653L44.968 22.4735L43.8026 21.6812C43.1605 21.249 42.2568 20.7688 41.7812 20.6247C40.5683 20.2886 38.7132 20.3366 37.6193 20.7208C34.6465 21.8012 32.7677 24.5864 32.9817 27.6356Z" fill="white"/>
</svg>
