<svg width="24" height="24" viewBox="0 0 24 24" fill="none" xmlns="http://www.w3.org/2000/svg">
<path d="M12 12C14.7614 12 17 9.76143 17 7C17 4.23858 14.7614 2 12 2C9.23858 2 7 4.23858 7 7C7 9.76143 9.23858 12 12 12Z" fill="#7A38FF"/>
<path fill-rule="evenodd" clip-rule="evenodd" d="M21 18.6667V20V21C21 21 21 21 21 21C21 21.5523 20.5523 22 20 22H4C3.44772 22 3.00001 21.5523 3 21C3 21 3 21 3 21V20V18.6667C3 17.429 3.47411 16.242 4.31802 15.3668C5.16193 14.4917 6.30653 14 7.5 14H16.5C17.6935 14 18.8381 14.4917 19.682 15.3668C20.5259 16.242 21 17.429 21 18.6667Z" fill="#7A38FF"/>
</svg>
