<svg width="40" height="40" viewBox="0 0 40 40" fill="none" xmlns="http://www.w3.org/2000/svg">
<circle cx="20" cy="20" r="20" fill="#7A38FF"/>
<path d="M20 20C22.3012 20 24.1667 18.1345 24.1667 15.8334C24.1667 13.5322 22.3012 11.6667 20 11.6667C17.6988 11.6667 15.8333 13.5322 15.8333 15.8334C15.8333 18.1345 17.6988 20 20 20Z" fill="white"/>
<path fill-rule="evenodd" clip-rule="evenodd" d="M27.5 27.3334V27.5H27.4862C27.4068 27.973 26.9955 28.3334 26.5 28.3334H13.5C13.0045 28.3334 12.5932 27.973 12.5138 27.5H12.5V27.3334V26.6667V25.5556C12.5 24.5242 12.8951 23.535 13.5983 22.8057C14.3016 22.0764 15.2554 21.6667 16.25 21.6667H23.75C24.7446 21.6667 25.6984 22.0764 26.4016 22.8057C27.1049 23.535 27.5 24.5242 27.5 25.5556V26.6667V27.3334Z" fill="white"/>
</svg>
