<svg width="20" height="20" viewBox="0 0 20 20" fill="none" xmlns="http://www.w3.org/2000/svg">
<path fill-rule="evenodd" clip-rule="evenodd" d="M0 5.41667C0 4.08198 1.08198 3 2.41667 3H11.5833C12.918 3 14 4.08198 14 5.41667V7.64014C14 7.73379 14.0523 7.81958 14.1356 7.86243C14.2189 7.90528 14.3191 7.89801 14.3953 7.84358L18.6474 4.80637C18.876 4.64307 19.1767 4.62124 19.4265 4.74979C19.6763 4.87834 19.8333 5.13573 19.8333 5.41667V13.75C19.8333 14.0309 19.6763 14.2883 19.4265 14.4169C19.1767 14.5454 18.876 14.5236 18.6474 14.3603L14.3953 11.3231C14.3191 11.2687 14.2189 11.2614 14.1356 11.3042C14.0523 11.3471 14 11.4329 14 11.5265V13.75C14 15.0847 12.918 16.1667 11.5833 16.1667H2.41667C1.08198 16.1667 0 15.0847 0 13.75V5.41667ZM2.41667 4.5C1.91041 4.5 1.5 4.91041 1.5 5.41667V13.75C1.5 14.2563 1.91041 14.6667 2.41667 14.6667H11.5833C12.0896 14.6667 12.5 14.2563 12.5 13.75V5.41667C12.5 4.91041 12.0896 4.5 11.5833 4.5H2.41667ZM18.3333 7.35986C18.3333 7.26621 18.281 7.18041 18.1977 7.13756C18.1145 7.09471 18.0142 7.10199 17.938 7.15642L14.8252 9.3799C14.7595 9.42683 14.7205 9.50259 14.7205 9.58333C14.7205 9.66407 14.7595 9.73984 14.8252 9.78677L17.938 12.0102C18.0142 12.0647 18.1145 12.072 18.1977 12.0291C18.281 11.9862 18.3333 11.9005 18.3333 11.8068V7.35986Z" fill="black"/>
</svg>
