<svg width="68" height="68" viewBox="0 0 68 68" fill="none" xmlns="http://www.w3.org/2000/svg">
<circle cx="33.8271" cy="34.173" r="33.8271" fill="#7A38FF"/>
<path d="M58.0342 42.6063C58.9573 39.9639 59.4609 37.1264 59.4609 34.1729C59.4609 31.2195 58.9573 28.3819 58.0342 25.7396C58.0117 25.6602 57.9849 25.5828 57.9526 25.5083C54.3921 15.6247 44.922 8.53845 33.8267 8.53845C22.7314 8.53845 13.2611 15.6247 9.70083 25.5083C9.6685 25.583 9.64155 25.6602 9.61925 25.7396C8.69618 28.3819 8.1925 31.2195 8.1925 34.1729C8.1925 37.1264 8.69618 39.9639 9.61925 42.6063C9.64179 42.6856 9.6685 42.7631 9.70083 42.8375C13.2613 52.7214 22.7314 59.8074 33.8267 59.8074C44.922 59.8074 54.3921 52.7211 57.9526 42.8375C57.9849 42.7631 58.0117 42.6859 58.0342 42.6063ZM33.8267 56.133C32.8505 56.133 31.2765 54.3662 29.961 50.4191C29.326 48.5144 28.8177 46.3248 28.4473 43.9429H39.2062C38.8358 46.3248 38.3274 48.5141 37.6927 50.4191C36.3769 54.3662 34.803 56.133 33.8267 56.133ZM28.0014 40.2682C27.8248 38.3089 27.7314 36.2648 27.7314 34.1729C27.7314 32.081 27.8248 30.037 28.0014 28.0776H39.6518C39.8284 30.037 39.9218 32.081 39.9218 34.1729C39.9218 36.2648 39.8284 38.3089 39.6518 40.2682H28.0014ZM11.8669 34.1732C11.8669 32.059 12.168 30.0139 12.7283 28.0779H24.3157C24.144 30.0776 24.0568 32.1271 24.0568 34.1732C24.0568 36.2192 24.1437 38.2687 24.3157 40.2684H12.7283C12.168 38.3321 11.8669 36.2873 11.8669 34.1732ZM33.8267 12.2131C34.803 12.2131 36.3772 13.9799 37.6927 17.927C38.3274 19.8317 38.836 22.0213 39.2062 24.403H28.447C28.8174 22.021 29.3257 19.8317 29.9607 17.927C31.2765 13.9799 32.8505 12.2131 33.8267 12.2131ZM43.3375 28.0779H54.9249C55.4852 30.0139 55.7863 32.059 55.7863 34.1732C55.7863 36.2873 55.4852 38.3324 54.9249 40.2684H43.3375C43.5092 38.2687 43.5964 36.2192 43.5964 34.1732C43.5964 32.1271 43.5092 30.0776 43.3375 28.0779ZM53.4891 24.4032H42.9159C42.2623 19.8964 41.141 15.853 39.568 12.9765C45.6667 14.6298 50.7194 18.851 53.4891 24.4032ZM28.0852 12.9762C26.5122 15.8527 25.3909 19.8961 24.7373 24.4032H14.1641C16.934 18.851 21.9865 14.6298 28.0852 12.9762ZM14.1641 43.9429H24.7373C25.3909 48.4497 26.5122 52.4931 28.0852 55.3698C21.9865 53.7162 16.934 49.4953 14.1641 43.9429ZM39.568 55.3698C41.141 52.4933 42.2623 48.45 42.9159 43.9429H53.4891C50.7194 49.4953 45.6667 53.7162 39.568 55.3698Z" fill="white"/>
</svg>
