<svg width="68" height="68" viewBox="0 0 68 68" fill="none" xmlns="http://www.w3.org/2000/svg">
<path d="M34 68C52.7777 68 68 52.7777 68 34C68 15.2223 52.7777 0 34 0C15.2223 0 0 15.2223 0 34C0 52.7777 15.2223 68 34 68Z" fill="#25D366"/>
<path fill-rule="evenodd" clip-rule="evenodd" d="M35.1208 52.9161H35.1124C31.7287 52.9149 28.4039 52.0659 25.451 50.4552L14.7334 53.2667L17.6016 42.7902C15.8324 39.7241 14.9014 36.2461 14.9029 32.6829C14.9073 21.5357 23.9769 12.4667 35.1206 12.4667C40.529 12.469 45.6051 14.5745 49.4222 18.396C53.2392 22.2173 55.3402 27.2968 55.3381 32.6988C55.3336 43.8434 46.2677 52.9115 35.1208 52.9161ZM25.9475 46.7952L26.5612 47.1594C29.1412 48.6904 32.0986 49.5005 35.1139 49.5017H35.1208C44.3826 49.5017 51.9208 41.9633 51.9245 32.6976C51.9262 28.2076 50.18 23.9857 47.0074 20.8094C43.8348 17.6331 39.6157 15.883 35.1274 15.8815C25.8584 15.8815 18.3201 23.4191 18.3164 32.684C18.3151 35.8592 19.2035 38.9514 20.8856 41.6268L21.2852 42.2626L19.5876 48.4635L25.9475 46.7952ZM44.6143 37.0516C44.9667 37.2219 45.2046 37.3369 45.3062 37.5064C45.4324 37.7171 45.4324 38.7285 45.0117 39.9087C44.5905 41.0887 42.5724 42.1657 41.6017 42.3106C40.7315 42.4408 39.6301 42.495 38.42 42.1105C37.6863 41.8777 36.7454 41.5669 35.5401 41.0463C30.8043 39.0014 27.6039 34.4114 26.999 33.5439C26.9566 33.4831 26.927 33.4406 26.9104 33.4185L26.9064 33.4131C26.639 33.0564 24.8477 30.6664 24.8477 28.1928C24.8477 25.8658 25.9907 24.6462 26.5169 24.0848C26.5529 24.0463 26.5861 24.0109 26.6158 23.9785C27.0788 23.4728 27.6261 23.3463 27.9629 23.3463C28.2996 23.3463 28.6367 23.3494 28.9311 23.3642C28.9674 23.366 29.0052 23.3658 29.0442 23.3656C29.3386 23.3639 29.7056 23.3617 30.0677 24.2314C30.207 24.5661 30.4108 25.0623 30.6257 25.5856C31.0604 26.6439 31.5407 27.8131 31.6252 27.9823C31.7515 28.2352 31.8357 28.5301 31.6673 28.8674C31.642 28.9179 31.6186 28.9657 31.5963 29.0113C31.4698 29.2695 31.3768 29.4594 31.1621 29.71C31.0777 29.8086 30.9905 29.9148 30.9033 30.021C30.7295 30.2327 30.5557 30.4443 30.4044 30.5951C30.1515 30.847 29.8882 31.1203 30.1829 31.626C30.4776 32.1318 31.4914 33.786 32.9932 35.1255C34.6075 36.5654 36.0106 37.174 36.7217 37.4825C36.8606 37.5428 36.9731 37.5916 37.0556 37.6329C37.5606 37.8858 37.8553 37.8435 38.15 37.5064C38.4447 37.1693 39.4128 36.0313 39.7495 35.5257C40.0863 35.0201 40.4232 35.1043 40.8861 35.2728C41.3493 35.4416 43.8329 36.6635 44.3381 36.9163C44.4367 36.9657 44.5289 37.0103 44.6143 37.0516Z" fill="#FDFDFD"/>
</svg>
