<svg width="68" height="68" viewBox="0 0 68 68" fill="none" xmlns="http://www.w3.org/2000/svg">
<path d="M0 34C0 15.2223 15.2223 0 34 0C52.7777 0 68 15.2223 68 34C68 52.7777 52.7777 68 34 68C15.2223 68 0 52.7777 0 34Z" fill="#FF0000"/>
<path d="M51.3755 25.6037C50.9584 24.0015 49.7295 22.7397 48.169 22.3115C45.341 21.5333 34 21.5333 34 21.5333C34 21.5333 22.6591 21.5333 19.8309 22.3115C18.2704 22.7397 17.0415 24.0015 16.6244 25.6037C15.8667 28.5076 15.8667 34.5667 15.8667 34.5667C15.8667 34.5667 15.8667 40.6255 16.6244 43.5296C17.0415 45.1319 18.2704 46.3936 19.8309 46.822C22.6591 47.6 34 47.6 34 47.6C34 47.6 45.341 47.6 48.169 46.822C49.7295 46.3936 50.9584 45.1319 51.3755 43.5296C52.1334 40.6255 52.1334 34.5667 52.1334 34.5667C52.1334 34.5667 52.1334 28.5076 51.3755 25.6037Z" fill="white"/>
<path d="M30.6 40.8V29.4667L39.6666 35.1336L30.6 40.8Z" fill="#FF0000"/>
</svg>
